{
.appVersion = "926";
DisplayStrings = (
"/ze-cy.001/zedieresis-cy"
);
classes = (
{
code = "zero one two three four five six seven eight nine A O gravecomb acutecomb tildecomb zero.osf one.osf two.osf three.osf four.osf five.osf six.osf seven.osf eight.osf nine.osf one.tf seven.tf one.tosf two.tosf three.tosf four.tosf five.tosf six.tosf seven.tosf eight.tosf nine.tosf uni0308 uni0307 uni030B uni0302 uni030C uni0306 uni030A uni0304 uni030F uni0311";
name = aalt1;
},
{
code = "plus B C D E F G H I J K L M N P Q R S T U V W X Y Z grave a i j o dieresis acute Agrave Aacute Acircumflex Atilde Adieresis Aring AE Ccedilla Egrave Eacute Ecircumflex Edieresis Igrave Iacute Icircumflex Idieresis Eth Ntilde Ograve Oacute Ocircumflex Otilde Odieresis Oslash Ugrave Uacute Ucircumflex Udieresis Yacute Thorn Amacron Abreve Ccaron Dcaron Emacron Ebreve Ecaron Itilde Imacron Ibreve Jcircumflex Lacute Lcaron Nacute Ncaron Omacron Obreve Ohungarumlaut Racute Rcaron Sacute Scircumflex Scaron Tcaron Umacron Ubreve Uring Uhungarumlaut Wcircumflex Ycircumflex Ydieresis Zacute Zdotaccent Zcaron circumflex caron breve dotaccent ring tilde hungarumlaut dotbelowcomb Wgrave Wacute Wdieresis minus uni1E9E uni018F uni0295 uni0410 uni0411 uni0412 uni0413 uni0403 uni0490 uni0414 uni0415 uni0400 uni0401 uni0416 uni0417 uni0418 uni0419 uni040D uni041A uni040C uni041B uni041C uni041D uni041E uni041F uni0420 uni0421 uni0422 uni0423 uni040E uni0424 uni0425 uni0427 uni0426 uni0428 uni0429 uni040F uni042C uni042A uni042B uni0409 uni040A uni0405 uni0404 uni042D uni0406 uni0407 uni0408 uni040B uni042E uni042F uni0402 uni0462 uni046A uni0472 uni0474 uni0492 uni0494 uni0496 uni0498 uni049A uni04A0 uni04A2 uni04AA uni04AE uni04B0 uni04B2 uni04B6 uni04BA uni04C1 uni04C7 uni04D0 uni04D2 uni04D6 uni04D8 uni04DC uni04DE uni04E2 uni04E4 uni04E6 uni04E8 uni04EA uni04EC uni04EE uni04F0 uni04F2 uni04F4 uni04F8 uni0512 uni04A4 uni04D4 plus.tf minus.tf uni0324 uni0325 uni032D uni032E uni0330 uni0331 overscore";

glyphs = (
{
glyphname = A;
lastChange = "2016-10-15 04:15:38 +0000";
layers = (
{
anchors = (
{
name = mark0;
position = "{576, 0}";
},
{
name = mark1;
position = "{0, 0}";
},
{
name = mark2;
position = "{0, 0}";
},
{
name = mark3;
position = "{332, 0}";
},
{
name = mark4;
position = "{350, 715}";
},
{
name = mark5;
position = "{0, 0}";
},
{
name = mark6;
position = "{0, 0}";
}
);
layerId = UUID0;
paths = (
{
closed = 1;
nodes = (
"31 5 OFFCURVE",
"37 0 OFFCURVE",
"48 0 CURVE SMOOTH",
"98 0 LINE SMOOTH",
"114 0 OFFCURVE",
"127 8 OFFCURVE",
"133 24 CURVE SMOOTH",
"194 186 LINE",
"495 186 LINE",
"556 24 LINE SMOOTH",
"562 8 OFFCURVE",
"574 0 OFFCURVE",
"591 0 CURVE SMOOTH",
"641 0 LINE SMOOTH",
"652 0 OFFCURVE",
"658 5 OFFCURVE",
"658 15 CURVE SMOOTH",
"658 20 OFFCURVE",
"657 26 OFFCURVE",
"654 32 CURVE",
"411 670 LINE SMOOTH",
"403 690 OFFCURVE",
"392 700 OFFCURVE",
"378 700 CURVE SMOOTH",
"310 700 LINE SMOOTH",
"295 700 OFFCURVE",
"285 690 OFFCURVE",
"278 670 CURVE SMOOTH",
"35 32 LINE",
"32 26 OFFCURVE",
"31 20 OFFCURVE",
"31 15 CURVE SMOOTH"
);
},
{
closed = 1;
nodes = (
"225 266 LINE",
"299 461 LINE SMOOTH",
"315 502 OFFCURVE",
"324 530 OFFCURVE",
"343 616 CURVE",
"345 616 LINE",
"364 530 OFFCURVE",
"373 502 OFFCURVE",
"389 461 CURVE SMOOTH",
"464 266 LINE"
);
}
);
width = 664;
},
{
anchors = (
{
name = mark0;
position = "{572, 0}";
},
{
name = mark1;
position = "{340, 0}";
},
{
name = mark2;
position = "{350, 717}";
},
{
name = mark3;
position = "{0, 0}";
},
{
name = mark4;
position = "{0, 0}";
}
);
layerId = "7D4B8FA6-1CBF-4C70-BCBE-1433105F567F";
paths = (
{
closed = 1;
nodes = (
"30 6 OFFCURVE",
"39 0 OFFCURVE",
"56 0 CURVE SMOOTH",
"134 0 LINE SMOOTH",
"155 0 OFFCURVE",
"170 11 OFFCURVE",
"179 34 CURVE SMOOTH",
"229 165 LINE",
"477 165 LINE",
"526 34 LINE SMOOTH",
"535 11 OFFCURVE",
"550 0 OFFCURVE",
"571 0 CURVE SMOOTH",
"649 0 LINE SMOOTH",
"666 0 OFFCURVE",
"675 6 OFFCURVE",
"675 18 CURVE SMOOTH",
"675 23 OFFCURVE",
"674 27 OFFCURVE",
"672 32 CURVE SMOOTH",
"433 661 LINE",
"422 687 OFFCURVE",
"407 700 OFFCURVE",
"387 700 CURVE SMOOTH",
"318 700 LINE SMOOTH",
"299 700 OFFCURVE",
"283 687 OFFCURVE",
"272 661 CURVE",
"33 32 LINE SMOOTH",
"31 27 OFFCURVE",
"30 23 OFFCURVE",
"30 18 CURVE SMOOTH"
);
},
{
closed = 1;
nodes = (
"274 286 LINE",
"334 441 LINE SMOOTH",
"340 456 OFFCURVE",
"343 469 OFFCURVE",
"347 481 CURVE",
"352 518 LINE",
"354 518 LINE",
"356 476 OFFCURVE",
"355 482 OFFCURVE",
"371 441 CURVE SMOOTH",
"431 286 LINE"
);
}
);
width = 681;
}
);
unicode = 0041;
},
{
glyphname = Aogonek;
lastChange = "2016-10-15 04:12:12 +0000";
layers = (
{
anchors = (
{
name = mark0;
position = "{0, 0}";
},
{
name = mark1;
position = "{0, 0}";
},
{
name = mark2;
position = "{0, 0}";
},
{
name = mark3;
position = "{0, 0}";
},
{
name = mark4;
position = "{332, 715}";
},
{
name = mark5;
position = "{0, 0}";
},
{
name = mark6;
position = "{0, 0}";
}
);
layerId = UUID0;
paths = (
{
closed = 1;
nodes = (
"31 5 OFFCURVE",
"37 0 OFFCURVE",
"48 0 CURVE SMOOTH",
"98 0 LINE SMOOTH",
"114 0 OFFCURVE",
"127 8 OFFCURVE",
"133 24 CURVE SMOOTH",
"194 186 LINE",
"495 186 LINE",
"556 24 LINE SMOOTH",
"559 17 OFFCURVE",
"560 10 OFFCURVE",
"560 5 CURVE SMOOTH",
"560 -10 OFFCURVE",
"519 -36 OFFCURVE",
"514 -41 CURVE SMOOTH",
"498 -54 OFFCURVE",
"478 -79 OFFCURVE",
"478 -125 CURVE SMOOTH",
"478 -168 OFFCURVE",
"512 -204 OFFCURVE",
"584 -204 CURVE SMOOTH",
"602 -204 OFFCURVE",
"653 -203 OFFCURVE",
"653 -188 CURVE",
"646 -146 LINE SMOOTH",
"645 -139 OFFCURVE",
"642 -136 OFFCURVE",
"638 -136 CURVE SMOOTH",
"634 -137 LINE SMOOTH",
"625 -139 OFFCURVE",
"612 -140 OFFCURVE",
"595 -140 CURVE SMOOTH",
"569 -140 OFFCURVE",
"556 -128 OFFCURVE",
"556 -103 CURVE SMOOTH",
"556 -47 OFFCURVE",
"658 -2 OFFCURVE",
"658 15 CURVE SMOOTH",
"658 18 OFFCURVE",
"657 24 OFFCURVE",
"654 32 CURVE SMOOTH",
"411 670 LINE SMOOTH",
"403 690 OFFCURVE",
"392 700 OFFCURVE",
"378 700 CURVE SMOOTH",
"310 700 LINE SMOOTH",
"295 700 OFFCURVE",
"285 690 OFFCURVE",
"278 670 CURVE SMOOTH",
"35 32 LINE",
"32 26 OFFCURVE",
"31 20 OFFCURVE",
"31 15 CURVE SMOOTH"
);
},
{
closed = 1;
nodes = (
"225 266 LINE",
"299 461 LINE SMOOTH",
"315 502 OFFCURVE",
"324 530 OFFCURVE",
"343 616 CURVE",
"345 616 LINE",
"364 530 OFFCURVE",
"373 502 OFFCURVE",
"389 461 CURVE SMOOTH",
"464 266 LINE"
);
}
);
width = 664;
},
{
anchors = (
{
name = mark0;
position = "{0, 0}";
},
{
name = mark1;
position = "{0, 0}";
},
{
name = mark2;
position = "{340, 717}";
},
{
name = mark3;
position = "{0, 0}";
},
{
name = mark4;
position = "{0, 0}";
}
);
layerId = "7D4B8FA6-1CBF-4C70-BCBE-1433105F567F";
paths = (
{
closed = 1;
nodes = (
"30 6 OFFCURVE",
"39 0 OFFCURVE",
"56 0 CURVE SMOOTH",
"134 0 LINE SMOOTH",
"155 0 OFFCURVE",
"170 11 OFFCURVE",
"179 34 CURVE SMOOTH",
"229 165 LINE",
"477 165 LINE",
"526 34 LINE",
"529 29 OFFCURVE",
"530 23 OFFCURVE",
"530 17 CURVE SMOOTH",
"530 10 OFFCURVE",
"528 4 OFFCURVE",
"523 0 CURVE SMOOTH",
"459 -56 OFFCURVE",
"450 -79 OFFCURVE",
"448 -121 CURVE",
"448 -176 OFFCURVE",
"494 -205 OFFCURVE",
"585 -205 CURVE SMOOTH",
"642 -205 OFFCURVE",
"667 -203 OFFCURVE",
"667 -184 CURVE",
"661 -122 LINE",
"659 -112 OFFCURVE",
"654 -107 OFFCURVE",
"646 -107 CURVE SMOOTH",
"641 -107 LINE SMOOTH",
"628 -108 OFFCURVE",
"615 -109 OFFCURVE",
"602 -109 CURVE SMOOTH",
"577 -109 OFFCURVE",
"563 -105 OFFCURVE",
"563 -86 CURVE SMOOTH",
"563 -65 OFFCURVE",
"652 -5 OFFCURVE",
"658 -3 CURVE SMOOTH",
"669 1 OFFCURVE",
"675 8 OFFCURVE",
"675 18 CURVE SMOOTH",
"675 23 OFFCURVE",
"674 27 OFFCURVE",
"672 32 CURVE SMOOTH",
"433 661 LINE",
"422 687 OFFCURVE",
"407 700 OFFCURVE",
"387 700 CURVE SMOOTH",
"318 700 LINE SMOOTH",
"299 700 OFFCURVE",
"283 687 OFFCURVE",
"272 661 CURVE",
"33 32 LINE SMOOTH",
"31 27 OFFCURVE",
"30 23 OFFCURVE",
"30 18 CURVE SMOOTH"
);
},
{
closed = 1;
nodes = (
"274 286 LINE",
"334 441 LINE SMOOTH",
"340 456 OFFCURVE",
"343 469 OFFCURVE",
"347 481 CURVE",
"352 518 LINE",
"354 518 LINE",
"356 476 OFFCURVE",
"355 482 OFFCURVE",
"371 441 CURVE SMOOTH",
"431 286 LINE"
);
}
);
width = 681;
}
);
unicode = 0104;
},
{
glyphname = AE;
lastChange = "2016-10-15 04:12:12 +0000";
layers = (
{
anchors = (
{
name = mark0;
position = "{0, 0}";
},
{
name = mark1;
position = "{0, 0}";
},
{
name = mark2;
position = "{0, 0}";
},
{
name = mark3;
position = "{464, 0}";
},
{
name = mark4;
position = "{485, 715}";
},
{
name = mark5;
position = "{0, 0}";
},
{
name = mark6;
position = "{0, 0}";
}
);
layerId = UUID0;
paths = (
{
closed = 1;
nodes = (
"33 5 OFFCURVE",
"39 0 OFFCURVE",
"51 0 CURVE SMOOTH",
"104 0 LINE SMOOTH",
"118 0 OFFCURVE",
"129 8 OFFCURVE",
"137 24 CURVE SMOOTH",
"215 186 LINE",
"454 186 LINE",
"454 27 LINE SMOOTH",
"454 9 OFFCURVE",
"462 0 OFFCURVE",
"478 0 CURVE SMOOTH",
"900 0 LINE SMOOTH",
"918 0 OFFCURVE",
"927 7 OFFCURVE",
"927 22 CURVE SMOOTH",
"927 58 LINE SMOOTH",
"927 73 OFFCURVE",
"918 80 OFFCURVE",
"900 80 CURVE SMOOTH",
"547 80 LINE",
"547 323 LINE",
"856 323 LINE SMOOTH",
"874 323 OFFCURVE",
"883 330 OFFCURVE",
"883 345 CURVE SMOOTH",
"883 381 LINE SMOOTH",
"883 396 OFFCURVE",
"874 403 OFFCURVE",
"856 403 CURVE SMOOTH",
"547 403 LINE",
"547 620 LINE",
"886 620 LINE SMOOTH",
"904 620 OFFCURVE",
"913 627 OFFCURVE",
"913 642 CURVE SMOOTH",
"913 678 LINE SMOOTH",
"913 693 OFFCURVE",
"904 700 OFFCURVE",
"886 700 CURVE SMOOTH",
"386 700 LINE SMOOTH",
"372 700 OFFCURVE",
"361 692 OFFCURVE",
"353 675 CURVE SMOOTH",
"38 32 LINE SMOOTH",
"35 26 OFFCURVE",
"33 20 OFFCURVE",
"33 14 CURVE SMOOTH"
);
},
{
closed = 1;
nodes = (
"254 266 LINE",
"376 514 LINE",
"401 568 LINE SMOOTH",
"407 582 OFFCURVE",
"414 599 OFFCURVE",
"419 620 CURVE",
"454 620 LINE",
"454 266 LINE"
);
}
);
width = 956;
},
{
anchors = (
{
name = mark0;
position = "{0, 0}";
},
{
name = mark1;
position = "{455, 0}";
},
{
name = mark2;
position = "{474, 717}";
},
{
name = mark3;
position = "{0, 0}";
},
{
name = mark4;
position = "{0, 0}";
}
);
layerId = "7D4B8FA6-1CBF-4C70-BCBE-1433105F567F";
paths = (
{
closed = 1;
nodes = (
"31 6 OFFCURVE",
"40 0 OFFCURVE",
"58 0 CURVE SMOOTH",
"137 0 LINE SMOOTH",
"157 0 OFFCURVE",
"172 11 OFFCURVE",
"182 34 CURVE SMOOTH",
"237 165 LINE",
"416 165 LINE",
"416 37 LINE SMOOTH",
"416 12 OFFCURVE",
"427 0 OFFCURVE",
"450 0 CURVE SMOOTH",
"869 0 LINE SMOOTH",
"893 0 OFFCURVE",
"905 11 OFFCURVE",
"905 32 CURVE SMOOTH",
"905 89 LINE SMOOTH",
"905 110 OFFCURVE",
"893 121 OFFCURVE",
"869 121 CURVE SMOOTH",
"559 121 LINE",
"559 303 LINE",
"827 303 LINE SMOOTH",
"852 303 OFFCURVE",
"864 313 OFFCURVE",
"864 334 CURVE SMOOTH",
"864 392 LINE SMOOTH",
"864 413 OFFCURVE",
"852 424 OFFCURVE",
"827 424 CURVE SMOOTH",
"559 424 LINE",
"559 579 LINE",
"853 579 LINE SMOOTH",
"878 579 OFFCURVE",
"890 590 OFFCURVE",
"890 611 CURVE SMOOTH",
"890 668 LINE SMOOTH",
"890 689 OFFCURVE",
"878 700 OFFCURVE",
"853 700 CURVE SMOOTH",
"346 700 LINE SMOOTH",
"328 700 OFFCURVE",
"311 687 OFFCURVE",
"300 661 CURVE SMOOTH",
"35 32 LINE",
"32 27 OFFCURVE",
"31 22 OFFCURVE",
"31 17 CURVE SMOOTH"
);
},
{
closed = 1;
nodes = (
"288 286 LINE",
"367 471 LINE",
"385 520 LINE SMOOTH",
"392 539 OFFCURVE",
"394 559 OFFCURVE",
"398 579 CURVE",
"416 579 LINE",
"416 286 LINE"
);
}
);
width = 933;
}
);
unicode = 00C6;
},
{
glyphname = B;
lastChange = "2016-10-15 04:12:12 +0000";
layers = (
{
anchors = (
{
name = mark0;
position = "{0, 0}";
},
{
name = mark1;
position = "{0, 0}";
},
{
name = mark2;
position = "{0, 0}";
},
{
name = mark3;
position = "{324, 0}";
},
{
name = mark4;
position = "{324, 715}";
},
{
name = mark5;
position = "{0, 0}";
},
{
name = mark6;
position = "{0, 0}";
}
);
layerId = UUID0;
paths = (
{
closed = 1;
nodes = (
"83 27 LINE SMOOTH",
"83 9 OFFCURVE",
"91 0 OFFCURVE",
"107 0 CURVE SMOOTH",
"322 0 LINE SMOOTH",
"544 0 OFFCURVE",
"609 86 OFFCURVE",
"609 194 CURVE SMOOTH",
"609 300 OFFCURVE",
"496 360 OFFCURVE",
"438 365 CURVE",
"438 366 LINE",
"501 376 OFFCURVE",
"579 440 OFFCURVE",
"579 517 CURVE SMOOTH",
"579 614 OFFCURVE",
"524 700 OFFCURVE",
"298 700 CURVE SMOOTH",
"107 700 LINE SMOOTH",
"91 700 OFFCURVE",
"83 691 OFFCURVE",
"83 673 CURVE SMOOTH"
);
},
{
closed = 1;
nodes = (
"177 395 LINE",
"177 620 LINE",
"299 620 LINE SMOOTH",
"443 620 OFFCURVE",
"484 583 OFFCURVE",
"484 517 CURVE SMOOTH",
"484 449 OFFCURVE",
"412 395 OFFCURVE",
"299 395 CURVE SMOOTH"
);
},
{
closed = 1;
nodes = (
"177 80 LINE",
"177 324 LINE",
"307 324 LINE SMOOTH",
"443 324 OFFCURVE",
"509 280 OFFCURVE",
"509 197 CURVE SMOOTH",
"509 109 OFFCURVE",
"444 80 OFFCURVE",
"307 80 CURVE SMOOTH"
);
}
);
width = 663;
},
{
anchors = (
{
name = mark0;
position = "{0, 0}";
},
{
name = mark1;
position = "{328, 0}";
},
{
name = mark2;
position = "{328, 717}";
},
{
name = mark3;
position = "{0, 0}";
},
{
name = mark4;
position = "{0, 0}";
}
);
layerId = "7D4B8FA6-1CBF-4C70-BCBE-1433105F567F";
paths = (
{
closed = 1;
nodes = (
"78 37 LINE SMOOTH",
"78 12 OFFCURVE",
"91 0 OFFCURVE",
"117 0 CURVE SMOOTH",
"308 0 LINE SMOOTH",
"532 0 OFFCURVE",
"623 84 OFFCURVE",
"623 201 CURVE SMOOTH",
"623 307 OFFCURVE",
"511 361 OFFCURVE",
"458 365 CURVE",
"458 366 LINE",
"516 373 OFFCURVE",
"602 423 OFFCURVE",
"602 512 CURVE SMOOTH",
"602 636 OFFCURVE",
"541 700 OFFCURVE",
"283 700 CURVE SMOOTH",
"117 700 LINE SMOOTH",
"91 700 OFFCURVE",
"78 688 OFFCURVE",
"78 664 CURVE SMOOTH"
);
},
{
closed = 1;
nodes = (
"221 417 LINE",
"221 581 LINE",
"285 581 LINE SMOOTH",
"444 581 OFFCURVE",
"458 551 OFFCURVE",
"458 507 CURVE SMOOTH",
"458 447 OFFCURVE",
"370 417 OFFCURVE",
"285 417 CURVE SMOOTH"
);
},
{
closed = 1;
nodes = (
"221 119 LINE",
"221 302 LINE",
"292 302 LINE SMOOTH",
"409 302 OFFCURVE",
"470 282 OFFCURVE",
"470 210 CURVE SMOOTH",
"470 136 OFFCURVE",
"431 119 OFFCURVE",
"292 119 CURVE SMOOTH"
);
}
);
width = 673;
}
);
unicode = 0042;
},
{
glyphname = Bstroke;
lastChange = "2016-10-15 04:12:42 +0000";
layers = (
{
layerId = UUID0;
paths = (
{
closed = 1;
nodes = (
"20 190 LINE SMOOTH",
"20 175 OFFCURVE",
"29 168 OFFCURVE",
"46 168 CURVE SMOOTH",
"103 168 LINE",
"103 27 LINE SMOOTH",
"103 9 OFFCURVE",
"111 0 OFFCURVE",
"127 0 CURVE SMOOTH",
"342 0 LINE SMOOTH",
"564 0 OFFCURVE",
"629 87 OFFCURVE",
"629 194 CURVE SMOOTH",
"629 299 OFFCURVE",
"516 359 OFFCURVE",
"458 365 CURVE",
"458 366 LINE",
"518 376 OFFCURVE",
"599 438 OFFCURVE",
"599 517 CURVE SMOOTH",
"599 616 OFFCURVE",
"542 700 OFFCURVE",
"317 700 CURVE SMOOTH",
"127 700 LINE SMOOTH",
"111 700 OFFCURVE",
"103 691 OFFCURVE",
"103 673 CURVE SMOOTH",
"103 246 LINE",
"46 246 LINE SMOOTH",
"29 246 OFFCURVE",
"20 239 OFFCURVE",
"20 224 CURVE SMOOTH"
);
},
{
closed = 1;
nodes = (
"196 395 LINE",
"196 620 LINE",
"319 620 LINE SMOOTH",
"459 620 OFFCURVE",
"503 587 OFFCURVE",
"503 517 CURVE SMOOTH",
"503 445 OFFCURVE",
"426 395 OFFCURVE",
"319 395 CURVE SMOOTH"
);
},
{
closed = 1;
nodes = (
"196 80 LINE",
"196 168 LINE",
"337 168 LINE SMOOTH",
"355 168 OFFCURVE",
"364 175 OFFCURVE",
"364 190 CURVE SMOOTH",
"364 224 LINE SMOOTH",
"364 239 OFFCURVE",
"355 246 OFFCURVE",
"337 246 CURVE SMOOTH",
"196 246 LINE",
"196 324 LINE",
"326 324 LINE SMOOTH",
"462 324 OFFCURVE",
"529 280 OFFCURVE",
"529 197 CURVE SMOOTH",
"529 108 OFFCURVE",
"463 80 OFFCURVE",
"326 80 CURVE SMOOTH"
);
}
);
width = 683;
},
{
layerId = "7D4B8FA6-1CBF-4C70-BCBE-1433105F567F";
width = 600;
}
);
unicode = 0243;
},
{
glyphname = C;
lastChange = "2016-10-15 04:12:12 +0000";
layers = (
{
anchors = (
{
name = mark0;
position = "{0, 0}";
},
{
name = mark1;
position = "{0, 0}";
},
{
name = mark2;
position = "{0, 0}";
},
{
name = mark3;
position = "{373, 0}";
},
{
name = mark4;
position = "{373, 715}";
},
{
name = mark5;
position = "{0, 0}";
},
{
name = mark6;
position = "{0, 0}";
}
);
layerId = UUID0;
paths = (
{
closed = 1;
nodes = (
"73 553 OFFCURVE",
"45 464 OFFCURVE",
"45 350 CURVE SMOOTH",
"45 123 OFFCURVE",
"161 -15 OFFCURVE",
"373 -15 CURVE SMOOTH",
"499 -15 OFFCURVE",
"591 38 OFFCURVE",
"630 116 CURVE SMOOTH",
"635 125 OFFCURVE",
"637 132 OFFCURVE",
"637 138 CURVE SMOOTH",
"637 145 OFFCURVE",
"634 151 OFFCURVE",
"627 155 CURVE SMOOTH",
"587 178 LINE SMOOTH",
"583 180 OFFCURVE",
"579 181 OFFCURVE",
"576 181 CURVE SMOOTH",
"560 181 OFFCURVE",
"530 124 OFFCURVE",
"490 94 CURVE SMOOTH",
"462 73 OFFCURVE",
"425 62 OFFCURVE",
"378 62 CURVE SMOOTH",
"210 62 OFFCURVE",
"145 173 OFFCURVE",
"145 350 CURVE SMOOTH",
"145 527 OFFCURVE",
"211 639 OFFCURVE",
"378 639 CURVE SMOOTH",
"470 639 OFFCURVE",
"515 593 OFFCURVE",
"536 554 CURVE SMOOTH",
"543 540 OFFCURVE",
"551 533 OFFCURVE",
"559 533 CURVE SMOOTH",
"562 533 OFFCURVE",
"566 534 OFFCURVE",
"570 536 CURVE SMOOTH",
"609 558 LINE SMOOTH",
"616 562 OFFCURVE",
"619 568 OFFCURVE",
"619 576 CURVE SMOOTH",
"619 582 OFFCURVE",
"617 589 OFFCURVE",
"613 597 CURVE SMOOTH",
"577 672 OFFCURVE",
"494 715 OFFCURVE",
"373 715 CURVE SMOOTH",
"267 715 OFFCURVE",
"186 683 OFFCURVE",
"129 618 CURVE SMOOTH"
);
}
);
width = 685;
},
{
anchors = (
{
name = mark0;
position = "{0, 0}";
},
{
name = mark1;
position = "{374, 0}";
},
{
name = mark2;
position = "{374, 717}";
},
{
name = mark3;
position = "{0, 0}";
},
{
name = mark4;
position = "{0, 0}";
}
);
layerId = "7D4B8FA6-1CBF-4C70-BCBE-1433105F567F";
paths = (
{
closed = 1;
nodes = (
"70 553 OFFCURVE",
"42 463 OFFCURVE",
"42 350 CURVE SMOOTH",
"42 121 OFFCURVE",
"167 -17 OFFCURVE",
"374 -17 CURVE SMOOTH",
"502 -17 OFFCURVE",
"601 36 OFFCURVE",
"639 102 CURVE",
"644 113 OFFCURVE",
"647 121 OFFCURVE",
"647 128 CURVE SMOOTH",
"647 137 OFFCURVE",
"643 144 OFFCURVE",
"634 150 CURVE SMOOTH",
"575 189 LINE SMOOTH",
"569 193 OFFCURVE",
"563 195 OFFCURVE",
"558 195 CURVE SMOOTH",
"531 195 OFFCURVE",
"502 99 OFFCURVE",
"379 99 CURVE SMOOTH",
"238 99 OFFCURVE",
"194 194 OFFCURVE",
"194 350 CURVE SMOOTH",
"194 512 OFFCURVE",
"242 602 OFFCURVE",
"379 602 CURVE SMOOTH",
"498 602 OFFCURVE",
"507 519 OFFCURVE",
"540 519 CURVE SMOOTH",
"544 519 OFFCURVE",
"550 521 OFFCURVE",
"558 524 CURVE",
"616 556 LINE SMOOTH",
"625 561 OFFCURVE",
"630 569 OFFCURVE",
"630 578 CURVE SMOOTH",
"630 585 OFFCURVE",
"627 593 OFFCURVE",
"622 604 CURVE SMOOTH",
"587 677 OFFCURVE",
"498 717 OFFCURVE",
"374 717 CURVE SMOOTH",
"267 717 OFFCURVE",
"185 684 OFFCURVE",
"127 618 CURVE SMOOTH"
);
}
);
width = 692;
}
);
unicode = 0043;
},
{
glyphname = Ccedilla;
lastChange = "2016-10-15 04:12:12 +0000";
layers = (
{
anchors = (
{
name = mark0;
position = "{0, 0}";
},
{
name = mark1;
position = "{0, 0}";
},
{
name = mark2;
position = "{0, 0}";
},
{
name = mark3;
position = "{0, 0}";
},
{
name = mark4;
position = "{373, 715}";
},
{
name = mark5;
position = "{0, 0}";
},
{
name = mark6;
position = "{0, 0}";
}
);
layerId = UUID0;
paths = (
{
closed = 1;
nodes = (
"637 145 OFFCURVE",
"634 151 OFFCURVE",
"627 155 CURVE SMOOTH",
"587 178 LINE SMOOTH",
"583 180 OFFCURVE",
"579 181 OFFCURVE",
"576 181 CURVE SMOOTH",
"560 181 OFFCURVE",
"530 124 OFFCURVE",
"490 94 CURVE SMOOTH",
"462 73 OFFCURVE",
"425 62 OFFCURVE",
"378 62 CURVE SMOOTH",
"210 62 OFFCURVE",
"145 173 OFFCURVE",
"145 350 CURVE SMOOTH",
"145 527 OFFCURVE",
"211 639 OFFCURVE",
"378 639 CURVE SMOOTH",
"470 639 OFFCURVE",
"515 593 OFFCURVE",
"536 554 CURVE SMOOTH",
"543 540 OFFCURVE",
"551 533 OFFCURVE",
"559 533 CURVE SMOOTH",
"562 533 OFFCURVE",
"566 534 OFFCURVE",
"570 536 CURVE SMOOTH",
"609 558 LINE SMOOTH",
"616 562 OFFCURVE",
"619 568 OFFCURVE",
"619 576 CURVE SMOOTH",
"619 582 OFFCURVE",
"617 589 OFFCURVE",
"613 597 CURVE SMOOTH",
"577 672 OFFCURVE",
"494 715 OFFCURVE",
"373 715 CURVE SMOOTH",
"161 715 OFFCURVE",
"45 578 OFFCURVE",
"45 350 CURVE SMOOTH",
"45 137 OFFCURVE",
"147 1 OFFCURVE",
"339 -14 CURVE",
"316 -53 LINE",
"313 -60 OFFCURVE",
"311 -69 OFFCURVE",
"311 -80 CURVE SMOOTH",
"311 -88 OFFCURVE",
"315 -92 OFFCURVE",
"323 -92 CURVE SMOOTH",
"337 -92 LINE SMOOTH",
"369 -92 OFFCURVE",
"390 -102 OFFCURVE",
"390 -121 CURVE SMOOTH",
"390 -143 OFFCURVE",
"374 -154 OFFCURVE",
"341 -154 CURVE SMOOTH",
"323 -154 OFFCURVE",
"307 -146 OFFCURVE",
"294 -146 CURVE SMOOTH",
"287 -146 OFFCURVE",
"283 -150 OFFCURVE",
"281 -157 CURVE SMOOTH",
"276 -176 LINE SMOOTH",
"275 -178 OFFCURVE",
"275 -180 OFFCURVE",
"275 -182 CURVE SMOOTH",
"275 -200 OFFCURVE",
"328 -203 OFFCURVE",
"345 -203 CURVE SMOOTH",
"409 -203 OFFCURVE",
"450 -172 OFFCURVE",
"450 -123 CURVE SMOOTH",
"450 -86 OFFCURVE",
"427 -52 OFFCURVE",
"378 -48 CURVE",
"397 -14 LINE",
"508 -10 OFFCURVE",
"594 43 OFFCURVE",
"630 116 CURVE SMOOTH",
"635 125 OFFCURVE",
"637 132 OFFCURVE",
"637 138 CURVE SMOOTH"
);
}
);
width = 685;
},
{
anchors = (
{
name = mark0;
position = "{0, 0}";
},
{
name = mark1;
position = "{0, 0}";
},
{
name = mark2;
position = "{374, 717}";
},
{
name = mark3;
position = "{0, 0}";
},
{
name = mark4;
position = "{0, 0}";
}
);
layerId = "7D4B8FA6-1CBF-4C70-BCBE-1433105F567F";
paths = (
{
closed = 1;
nodes = (
"647 137 OFFCURVE",
"643 144 OFFCURVE",
"634 150 CURVE SMOOTH",
"575 189 LINE SMOOTH",
"569 193 OFFCURVE",
"563 195 OFFCURVE",
"558 195 CURVE SMOOTH",
"531 195 OFFCURVE",
"502 99 OFFCURVE",
"379 99 CURVE SMOOTH",
"238 99 OFFCURVE",
"194 194 OFFCURVE",
"194 350 CURVE SMOOTH",
"194 512 OFFCURVE",
"242 602 OFFCURVE",
"379 602 CURVE SMOOTH",
"498 602 OFFCURVE",
"507 519 OFFCURVE",
"540 519 CURVE SMOOTH",
"544 519 OFFCURVE",
"550 521 OFFCURVE",
"558 524 CURVE",
"616 556 LINE SMOOTH",
"625 561 OFFCURVE",
"630 569 OFFCURVE",
"630 578 CURVE SMOOTH",
"630 585 OFFCURVE",
"627 593 OFFCURVE",
"622 604 CURVE SMOOTH",
"587 677 OFFCURVE",
"498 717 OFFCURVE",
"374 717 CURVE SMOOTH",
"161 717 OFFCURVE",
"42 577 OFFCURVE",
"42 350 CURVE SMOOTH",
"42 143 OFFCURVE",
"147 9 OFFCURVE",
"316 -13 CURVE",
"300 -46 LINE SMOOTH",
"295 -55 OFFCURVE",
"293 -66 OFFCURVE",
"293 -79 CURVE SMOOTH",
"293 -90 OFFCURVE",
"299 -96 OFFCURVE",
"310 -96 CURVE SMOOTH",
"320 -96 LINE SMOOTH",
"353 -96 OFFCURVE",
"370 -104 OFFCURVE",
"370 -121 CURVE SMOOTH",
"370 -139 OFFCURVE",
"356 -148 OFFCURVE",
"327 -148 CURVE SMOOTH",
"312 -148 OFFCURVE",
"299 -146 OFFCURVE",
"288 -142 CURVE SMOOTH",
"280 -140 LINE",
"273 -140 OFFCURVE",
"268 -144 OFFCURVE",
"266 -153 CURVE SMOOTH",
"259 -175 LINE SMOOTH",
"258 -177 OFFCURVE",
"258 -180 OFFCURVE",
"258 -183 CURVE SMOOTH",
"258 -202 OFFCURVE",
"310 -205 OFFCURVE",
"332 -205 CURVE SMOOTH",
"391 -205 OFFCURVE",
"446 -185 OFFCURVE",
"446 -119 CURVE SMOOTH",
"446 -76 OFFCURVE",
"426 -52 OFFCURVE",
"371 -44 CURVE",
"384 -17 LINE",
"506 -15 OFFCURVE",
"602 37 OFFCURVE",
"639 102 CURVE",
"644 113 OFFCURVE",
"647 121 OFFCURVE",
"647 128 CURVE SMOOTH"
);
}
);
width = 692;
}
);
unicode = 00C7;
},
{
glyphname = Ccedillaacute;
lastChange = "2016-10-15 04:12:42 +0000";
layers = (
{
anchors = (
{
name = mark0;
position = "{0, 0}";
},
{
name = mark1;
position = "{0, 0}";
},
{
name = mark2;
position = "{0, 0}";
},
{
name = mark3;
position = "{0, 0}";
},
{
name = mark4;
position = "{373, 851}";
},
{
name = mark5;
position = "{0, 0}";
},
{
name = mark6;
position = "{0, 0}";
}
);
layerId = UUID0;
paths = (
{
closed = 1;
nodes = (
"290 755 OFFCURVE",
"295 752 OFFCURVE",
"305 752 CURVE SMOOTH",
"351 752 LINE SMOOTH",
"365 752 OFFCURVE",
"378 757 OFFCURVE",
"391 766 CURVE",
"487 846 LINE SMOOTH",
"496 854 OFFCURVE",
"501 860 OFFCURVE",
"501 864 CURVE SMOOTH",
"501 869 OFFCURVE",
"494 872 OFFCURVE",
"480 872 CURVE SMOOTH",
"404 872 LINE SMOOTH",
"389 872 OFFCURVE",
"374 866 OFFCURVE",
"364 854 CURVE SMOOTH",
"299 778 LINE SMOOTH",
"293 771 OFFCURVE",
"290 765 OFFCURVE",
"290 760 CURVE SMOOTH"
);
},
{
closed = 1;
nodes = (
"637 145 OFFCURVE",
"634 151 OFFCURVE",
"627 155 CURVE SMOOTH",
"587 178 LINE SMOOTH",
"583 180 OFFCURVE",
"579 181 OFFCURVE",
"576 181 CURVE SMOOTH",
"560 181 OFFCURVE",
"530 124 OFFCURVE",
"490 94 CURVE SMOOTH",
"462 73 OFFCURVE",
"425 62 OFFCURVE",
"378 62 CURVE SMOOTH",
"210 62 OFFCURVE",
"145 173 OFFCURVE",
"145 350 CURVE SMOOTH",
"145 527 OFFCURVE",
"211 639 OFFCURVE",
"378 639 CURVE SMOOTH",
"470 639 OFFCURVE",
"515 593 OFFCURVE",
"536 554 CURVE SMOOTH",
"543 540 OFFCURVE",
"551 533 OFFCURVE",
"559 533 CURVE SMOOTH",
"562 533 OFFCURVE",
"566 534 OFFCURVE",
"570 536 CURVE SMOOTH",
"609 558 LINE SMOOTH",
"616 562 OFFCURVE",
"619 568 OFFCURVE",
"619 576 CURVE SMOOTH",
"619 582 OFFCURVE",
"617 589 OFFCURVE",
"613 597 CURVE SMOOTH",
"577 672 OFFCURVE",
"494 715 OFFCURVE",
"373 715 CURVE SMOOTH",
"161 715 OFFCURVE",
"45 578 OFFCURVE",
"45 350 CURVE SMOOTH",
"45 137 OFFCURVE",
"147 1 OFFCURVE",
"339 -14 CURVE",
"316 -53 LINE",
"313 -60 OFFCURVE",
"311 -69 OFFCURVE",
"311 -80 CURVE SMOOTH",
"311 -88 OFFCURVE",
"315 -92 OFFCURVE",
"323 -92 CURVE SMOOTH",
"337 -92 LINE SMOOTH",
"369 -92 OFFCURVE",
"390 -102 OFFCURVE",
"390 -121 CURVE SMOOTH",
"390 -143 OFFCURVE",
"374 -154 OFFCURVE",
"341 -154 CURVE SMOOTH",
"323 -154 OFFCURVE",
"307 -146 OFFCURVE",
"294 -146 CURVE SMOOTH",
"287 -146 OFFCURVE",
"283 -150 OFFCURVE",
"281 -157 CURVE SMOOTH",
"276 -176 LINE SMOOTH",
"275 -178 OFFCURVE",
"275 -180 OFFCURVE",
"275 -182 CURVE SMOOTH",
"275 -200 OFFCURVE",
"328 -203 OFFCURVE",
"345 -203 CURVE SMOOTH",
"409 -203 OFFCURVE",
"450 -172 OFFCURVE",
"450 -123 CURVE SMOOTH",
"450 -86 OFFCURVE",
"427 -52 OFFCURVE",
"378 -48 CURVE",
"397 -14 LINE",
"508 -10 OFFCURVE",
"594 43 OFFCURVE",
"630 116 CURVE SMOOTH",
"635 125 OFFCURVE",
"637 132 OFFCURVE",
"637 138 CURVE SMOOTH"
);
}
);
width = 685;
},
{
anchors = (
{
name = mark0;
position = "{0, 0}";
},
{
name = mark1;
position = "{0, 0}";
},
{
name = mark2;
position = "{374, 851}";
},
{
name = mark3;
position = "{0, 0}";
},
{
name = mark4;
position = "{0, 0}";
}
);
layerId = "7D4B8FA6-1CBF-4C70-BCBE-1433105F567F";
paths = (
{
closed = 1;
nodes = (
"289 756 OFFCURVE",
"296 752 OFFCURVE",
"309 752 CURVE SMOOTH",
"359 752 LINE",
"382 751 OFFCURVE",
"400 758 OFFCURVE",
"414 771 CURVE SMOOTH",
"491 842 LINE SMOOTH",
"500 850 OFFCURVE",
"504 857 OFFCURVE",
"504 862 CURVE SMOOTH",
"504 869 OFFCURVE",
"496 872 OFFCURVE",
"479 872 CURVE SMOOTH",
"393 872 LINE SMOOTH",
"368 872 OFFCURVE",
"350 864 OFFCURVE",
"340 849 CURVE SMOOTH",
"297 783 LINE SMOOTH",
"292 774 OFFCURVE",
"289 768 OFFCURVE",
"289 763 CURVE SMOOTH"
);
},
{
closed = 1;
nodes = (
"647 137 OFFCURVE",
"643 144 OFFCURVE",
"634 150 CURVE SMOOTH",
"575 189 LINE SMOOTH",
"569 193 OFFCURVE",
"563 195 OFFCURVE",
"558 195 CURVE SMOOTH",
"531 195 OFFCURVE",
"502 99 OFFCURVE",
"379 99 CURVE SMOOTH",
"238 99 OFFCURVE",
"194 194 OFFCURVE",
"194 350 CURVE SMOOTH",
"194 512 OFFCURVE",
"242 602 OFFCURVE",
"379 602 CURVE SMOOTH",
"498 602 OFFCURVE",
"507 519 OFFCURVE",
"540 519 CURVE SMOOTH",
"544 519 OFFCURVE",
"550 521 OFFCURVE",
"558 524 CURVE",
"616 556 LINE SMOOTH",
"625 561 OFFCURVE",
"630 569 OFFCURVE",
"630 578 CURVE SMOOTH",
"630 585 OFFCURVE",
"627 593 OFFCURVE",
"622 604 CURVE SMOOTH",
"587 677 OFFCURVE",
"498 717 OFFCURVE",
"374 717 CURVE SMOOTH",
"161 717 OFFCURVE",
"42 577 OFFCURVE",
"42 350 CURVE SMOOTH",
"42 143 OFFCURVE",
"147 9 OFFCURVE",
"316 -13 CURVE",
"300 -46 LINE SMOOTH",
"295 -55 OFFCURVE",
"293 -66 OFFCURVE",
"293 -79 CURVE SMOOTH",
"293 -90 OFFCURVE",
"299 -96 OFFCURVE",
"310 -96 CURVE SMOOTH",
"320 -96 LINE SMOOTH",
"353 -96 OFFCURVE",
"370 -104 OFFCURVE",
"370 -121 CURVE SMOOTH",
"370 -139 OFFCURVE",
"356 -148 OFFCURVE",
"327 -148 CURVE SMOOTH",
"312 -148 OFFCURVE",
"299 -146 OFFCURVE",
"288 -142 CURVE SMOOTH",
"280 -140 LINE",
"273 -140 OFFCURVE",
"268 -144 OFFCURVE",
"266 -153 CURVE SMOOTH",
"259 -175 LINE SMOOTH",
"258 -177 OFFCURVE",
"258 -180 OFFCURVE",
"258 -183 CURVE SMOOTH",
"258 -202 OFFCURVE",
"310 -205 OFFCURVE",
"332 -205 CURVE SMOOTH",
"391 -205 OFFCURVE",
"446 -185 OFFCURVE",
"446 -119 CURVE SMOOTH",
"446 -76 OFFCURVE",
"426 -52 OFFCURVE",
"371 -44 CURVE",
"384 -17 LINE",
"506 -15 OFFCURVE",
"602 37 OFFCURVE",
"639 102 CURVE",
"644 113 OFFCURVE",
"647 121 OFFCURVE",
"647 128 CURVE SMOOTH"
);
}
);
width = 692;
}
);
unicode = 1E08;
},
{
glyphname = D;
lastChange = "2016-10-15 04:12:12 +0000";
layers = (
{
anchors = (
{
name = mark0;
position = "{0, 0}";
},
{
name = mark1;
position = "{0, 0}";
},
{
name = mark2;
position = "{0, 0}";
},
{
name = mark3;
position = "{348, 0}";
},
{
name = mark4;
position = "{348, 715}";
},
{
name = mark5;
position = "{0, 0}";
},
{
name = mark6;
position = "{0, 0}";
}
);
layerId = UUID0;
paths = (
{
closed = 1;
nodes = (
"83 27 LINE SMOOTH",
"83 9 OFFCURVE",
"91 0 OFFCURVE",
"107 0 CURVE SMOOTH",
"288 0 LINE SMOOTH",
"567 0 OFFCURVE",
"656 133 OFFCURVE",
"656 351 CURVE SMOOTH",
"656 569 OFFCURVE",
"565 700 OFFCURVE",
"288 700 CURVE SMOOTH",
"107 700 LINE SMOOTH",
"91 700 OFFCURVE",
"83 691 OFFCURVE",
"83 673 CURVE SMOOTH"
);
},
{
closed = 1;
nodes = (
"177 80 LINE",
"177 621 LINE",
"283 621 LINE SMOOTH",
"499 621 OFFCURVE",
"556 531 OFFCURVE",
"556 351 CURVE SMOOTH",
"556 172 OFFCURVE",
"500 80 OFFCURVE",
"283 80 CURVE SMOOTH"
);
}
);
width = 701;
},
{
anchors = (
{
name = mark0;
position = "{0, 0}";
},
{
name = mark1;
position = "{350, 0}";
},
{
name = mark2;
position = "{350, 717}";
},
{
name = mark3;
position = "{0, 0}";
},
{
name = mark4;
position = "{0, 0}";
}
);
layerId = "7D4B8FA6-1CBF-4C70-BCBE-1433105F567F";
paths = (
{
closed = 1;
nodes = (
"78 37 LINE SMOOTH",
"78 12 OFFCURVE",
"89 0 OFFCURVE",
"112 0 CURVE SMOOTH",
"283 0 LINE SMOOTH",
"586 0 OFFCURVE",
"666 130 OFFCURVE",
"666 351 CURVE SMOOTH",
"666 573 OFFCURVE",
"585 700 OFFCURVE",
"283 700 CURVE SMOOTH",
"112 700 LINE SMOOTH",
"89 700 OFFCURVE",
"78 688 OFFCURVE",
"78 664 CURVE SMOOTH"
);
},
{
closed = 1;
nodes = (
"221 121 LINE",
"221 580 LINE",
"273 580 LINE SMOOTH",
"479 580 OFFCURVE",
"514 505 OFFCURVE",
"514 351 CURVE SMOOTH",
"514 198 OFFCURVE",
"480 121 OFFCURVE",
"273 121 CURVE SMOOTH"
);
}
);
width = 708;
}
);
unicode = 0044;
},
{
glyphname = Eth;
lastChange = "2016-10-15 04:12:12 +0000";
layers = (
{
layerId = UUID0;
paths = (
{
closed = 1;
nodes = (
"20 341 LINE SMOOTH",
"20 326 OFFCURVE",
"29 319 OFFCURVE",
"46 319 CURVE SMOOTH",
"107 319 LINE",
"107 27 LINE SMOOTH",
"107 9 OFFCURVE",
"115 0 OFFCURVE",
"132 0 CURVE SMOOTH",
"312 0 LINE SMOOTH",
"593 0 OFFCURVE",
"681 133 OFFCURVE",
"681 351 CURVE SMOOTH",
"681 569 OFFCURVE",
"591 700 OFFCURVE",
"312 700 CURVE SMOOTH",
"132 700 LINE SMOOTH",
"115 700 OFFCURVE",
"107 691 OFFCURVE",
"107 673 CURVE SMOOTH",
"107 399 LINE",
"46 399 LINE SMOOTH",
"29 399 OFFCURVE",
"20 392 OFFCURVE",
"20 377 CURVE SMOOTH"
);
},
{
closed = 1;
nodes = (
"201 80 LINE",
"201 319 LINE",
"353 319 LINE SMOOTH",
"371 319 OFFCURVE",
"380 326 OFFCURVE",
"380 341 CURVE SMOOTH",
"380 377 LINE SMOOTH",
"380 392 OFFCURVE",
"371 399 OFFCURVE",
"353 399 CURVE SMOOTH",
"201 399 LINE",
"201 621 LINE",
"308 621 LINE SMOOTH",
"525 621 OFFCURVE",
"581 527 OFFCURVE",
"581 351 CURVE SMOOTH",
"581 177 OFFCURVE",
"527 80 OFFCURVE",
"308 80 CURVE SMOOTH"
);
}
);
width = 726;
},
{
layerId = "7D4B8FA6-1CBF-4C70-BCBE-1433105F567F";
paths = (
{
closed = 1;
nodes = (
"15 331 LINE SMOOTH",
"15 310 OFFCURVE",
"27 299 OFFCURVE",
"51 299 CURVE SMOOTH",
"103 299 LINE",
"103 37 LINE SMOOTH",
"103 12 OFFCURVE",
"114 0 OFFCURVE",
"137 0 CURVE SMOOTH",
"307 0 LINE SMOOTH",
"610 0 OFFCURVE",
"690 130 OFFCURVE",
"690 351 CURVE SMOOTH",
"690 575 OFFCURVE",
"608 700 OFFCURVE",
"307 700 CURVE SMOOTH",
"137 700 LINE SMOOTH",
"114 700 OFFCURVE",
"103 688 OFFCURVE",
"103 664 CURVE SMOOTH",
"103 420 LINE",
"51 420 LINE SMOOTH",
"27 420 OFFCURVE",
"15 409 OFFCURVE",
"15 388 CURVE SMOOTH"
);
},
{
closed = 1;
nodes = (
"245 121 LINE",
"245 299 LINE",
"362 299 LINE SMOOTH",
"386 299 OFFCURVE",
"398 310 OFFCURVE",
"398 331 CURVE SMOOTH",
"398 388 LINE SMOOTH",
"398 409 OFFCURVE",
"386 420 OFFCURVE",
"362 420 CURVE SMOOTH",
"245 420 LINE",
"245 580 LINE",
"298 580 LINE SMOOTH",
"504 580 OFFCURVE",
"538 505 OFFCURVE",
"538 351 CURVE SMOOTH",
"538 275 OFFCURVE",
"523 215 OFFCURVE",
"494 177 CURVE SMOOTH",
"465 140 OFFCURVE",
"398 121 OFFCURVE",
"298 121 CURVE SMOOTH"
);
}
);
width = 732;
}
);
unicode = 00D0;
},
{
glyphname = Dcedilla;
lastChange = "2016-10-15 04:12:42 +0000";
layers = (
{
anchors = (
{
name = mark0;
position = "{0, 0}";
},
{
name = mark1;
position = "{0, 0}";
},
{
name = mark2;
position = "{0, 0}";
},
{
name = mark3;
position = "{0, 0}";
},
{
name = mark4;
position = "{348, 715}";
},
{
name = mark5;
position = "{0, 0}";
},
{
name = mark6;
position = "{0, 0}";
}
);
layerId = UUID0;
paths = (
{
closed = 1;
nodes = (
"656 569 OFFCURVE",
"565 700 OFFCURVE",
"288 700 CURVE SMOOTH",
"107 700 LINE SMOOTH",
"91 700 OFFCURVE",
"83 691 OFFCURVE",
"83 673 CURVE SMOOTH",
"83 27 LINE SMOOTH",
"83 9 OFFCURVE",
"91 0 OFFCURVE",
"107 0 CURVE SMOOTH",
"313 0 LINE",
"282 -53 LINE",
"279 -60 OFFCURVE",
"277 -69 OFFCURVE",
"277 -80 CURVE SMOOTH",
"277 -88 OFFCURVE",
"281 -92 OFFCURVE",
"289 -92 CURVE SMOOTH",
"303 -92 LINE SMOOTH",
"335 -92 OFFCURVE",
"356 -102 OFFCURVE",
"356 -121 CURVE SMOOTH",
"356 -143 OFFCURVE",
"340 -154 OFFCURVE",
"307 -154 CURVE SMOOTH",
"289 -154 OFFCURVE",
"273 -146 OFFCURVE",
"260 -146 CURVE SMOOTH",
"253 -146 OFFCURVE",
"249 -150 OFFCURVE",
"247 -157 CURVE SMOOTH",
"242 -176 LINE SMOOTH",
"241 -178 OFFCURVE",
"241 -180 OFFCURVE",
"241 -182 CURVE SMOOTH",
"241 -200 OFFCURVE",
"294 -203 OFFCURVE",
"311 -203 CURVE SMOOTH",
"375 -203 OFFCURVE",
"416 -172 OFFCURVE",
"416 -123 CURVE SMOOTH",
"416 -86 OFFCURVE",
"393 -52 OFFCURVE",
"344 -48 CURVE",
"372 0 LINE SMOOTH",
"373 3 OFFCURVE",
"374 4 OFFCURVE",
"374 5 CURVE",
"580 28 OFFCURVE",
"656 155 OFFCURVE",
"656 351 CURVE SMOOTH"
);
},
{
closed = 1;
nodes = (
"556 172 OFFCURVE",
"500 80 OFFCURVE",
"283 80 CURVE SMOOTH",
"177 80 LINE",
"177 621 LINE",
"283 621 LINE SMOOTH",
"499 621 OFFCURVE",
"556 531 OFFCURVE",
"556 351 CURVE SMOOTH"
);
}
);
width = 701;
},
{
anchors = (
{
name = mark0;
position = "{0, 0}";
},
{
name = mark1;
position = "{0, 0}";
},
{
name = mark2;
position = "{350, 717}";
},
{
name = mark3;
position = "{0, 0}";
},
{
name = mark4;
position = "{0, 0}";
}
);
layerId = "7D4B8FA6-1CBF-4C70-BCBE-1433105F567F";
paths = (
{
closed = 1;
nodes = (
"666 573 OFFCURVE",
"585 700 OFFCURVE",
"283 700 CURVE SMOOTH",
"112 700 LINE SMOOTH",
"89 700 OFFCURVE",
"78 688 OFFCURVE",
"78 664 CURVE SMOOTH",
"78 37 LINE SMOOTH",
"78 12 OFFCURVE",
"89 0 OFFCURVE",
"112 0 CURVE SMOOTH",
"309 0 LINE",
"286 -46 LINE SMOOTH",
"281 -55 OFFCURVE",
"279 -66 OFFCURVE",
"279 -79 CURVE SMOOTH",
"279 -90 OFFCURVE",
"285 -96 OFFCURVE",
"296 -96 CURVE SMOOTH",
"306 -96 LINE SMOOTH",
"339 -96 OFFCURVE",
"356 -104 OFFCURVE",
"356 -121 CURVE SMOOTH",
"356 -139 OFFCURVE",
"342 -148 OFFCURVE",
"313 -148 CURVE SMOOTH",
"298 -148 OFFCURVE",
"285 -146 OFFCURVE",
"274 -142 CURVE SMOOTH",
"266 -140 LINE",
"259 -140 OFFCURVE",
"254 -144 OFFCURVE",
"252 -153 CURVE SMOOTH",
"245 -175 LINE SMOOTH",
"244 -177 OFFCURVE",
"244 -180 OFFCURVE",
"244 -183 CURVE SMOOTH",
"244 -202 OFFCURVE",
"296 -205 OFFCURVE",
"318 -205 CURVE SMOOTH",
"377 -205 OFFCURVE",
"432 -185 OFFCURVE",
"432 -119 CURVE SMOOTH",
"432 -76 OFFCURVE",
"412 -52 OFFCURVE",
"357 -44 CURVE",
"379 0 LINE SMOOTH",
"380 1 OFFCURVE",
"380 3 OFFCURVE",
"380 5 CURVE",
"598 30 OFFCURVE",
"666 153 OFFCURVE",
"666 351 CURVE SMOOTH"
);
},
{
closed = 1;
nodes = (
"514 198 OFFCURVE",
"480 121 OFFCURVE",
"273 121 CURVE SMOOTH",
"221 121 LINE",
"221 580 LINE",
"273 580 LINE SMOOTH",
"479 580 OFFCURVE",
"514 505 OFFCURVE",
"514 351 CURVE SMOOTH"
);
}
);
width = 708;
}
);
unicode = 1E10;
},
{
glyphname = E;
lastChange = "2016-10-15 04:12:12 +0000";
layers = (
{
anchors = (
{
name = mark0;
position = "{330, 0}";
},
{
name = mark1;
position = "{0, 0}";
},
{
name = mark2;
position = "{0, 0}";
},
{
name = mark3;
position = "{330, 0}";
},
{
name = mark4;
position = "{330, 715}";
},
{
name = mark5;
position = "{0, 0}";
},
{
name = mark6;
position = "{0, 0}";
}
);
layerId = UUID0;
paths = (
{
closed = 1;
nodes = (
"83 27 LINE SMOOTH",
"83 9 OFFCURVE",
"91 0 OFFCURVE",
"107 0 CURVE SMOOTH",
"549 0 LINE SMOOTH",
"567 0 OFFCURVE",
"576 7 OFFCURVE",
"576 22 CURVE SMOOTH",
"576 58 LINE SMOOTH",
"576 73 OFFCURVE",
"567 80 OFFCURVE",
"549 80 CURVE SMOOTH",
"177 80 LINE",
"177 323 LINE",
"505 323 LINE SMOOTH",
"523 323 OFFCURVE",
"532 330 OFFCURVE",
"532 345 CURVE SMOOTH",
"532 381 LINE SMOOTH",
"532 396 OFFCURVE",
"523 403 OFFCURVE",
"505 403 CURVE SMOOTH",
"177 403 LINE",
"177 620 LINE",
"535 620 LINE SMOOTH",
"553 620 OFFCURVE",
"562 627 OFFCURVE",
"562 642 CURVE SMOOTH",
"562 678 LINE SMOOTH",
"562 693 OFFCURVE",
"553 700 OFFCURVE",
"535 700 CURVE SMOOTH",
"107 700 LINE SMOOTH",
"91 700 OFFCURVE",
"83 691 OFFCURVE",
"83 673 CURVE SMOOTH"
);
}
);
width = 620;
},
{
anchors = (
{
name = mark0;
position = "{331, 0}";
},
{
name = mark1;
position = "{331, 0}";
},
{
name = mark2;
position = "{331, 717}";
},
{
name = mark3;
position = "{0, 0}";
},
{
name = mark4;
position = "{0, 0}";
}
);
layerId = "7D4B8FA6-1CBF-4C70-BCBE-1433105F567F";
paths = (
{
closed = 1;
nodes = (
"78 37 LINE SMOOTH",
"78 12 OFFCURVE",
"89 0 OFFCURVE",
"112 0 CURVE SMOOTH",
"547 0 LINE SMOOTH",
"571 0 OFFCURVE",
"583 11 OFFCURVE",
"583 32 CURVE SMOOTH",
"583 89 LINE SMOOTH",
"583 110 OFFCURVE",
"571 121 OFFCURVE",
"547 121 CURVE SMOOTH",
"221 121 LINE",
"221 303 LINE",
"505 303 LINE SMOOTH",
"530 303 OFFCURVE",
"542 313 OFFCURVE",
"542 334 CURVE SMOOTH",
"542 392 LINE SMOOTH",
"542 413 OFFCURVE",
"530 424 OFFCURVE",
"505 424 CURVE SMOOTH",
"221 424 LINE",
"221 579 LINE",
"531 579 LINE SMOOTH",
"556 579 OFFCURVE",
"568 590 OFFCURVE",
"568 611 CURVE SMOOTH",
"568 668 LINE SMOOTH",
"568 689 OFFCURVE",
"556 700 OFFCURVE",
"531 700 CURVE SMOOTH",
"112 700 LINE SMOOTH",
"89 700 OFFCURVE",
"78 688 OFFCURVE",
"78 664 CURVE SMOOTH"
);
}
);
width = 625;
}
);
unicode = 0045;
},
{
glyphname = Eogonek;
lastChange = "2016-10-15 04:12:12 +0000";
layers = (
{
anchors = (
{
name = mark0;
position = "{0, 0}";
},
{
name = mark1;
position = "{0, 0}";
},
{
name = mark2;
position = "{0, 0}";
},
{
name = mark3;
position = "{0, 0}";
},
{
name = mark4;
position = "{321, 715}";
},
{
name = mark5;
position = "{0, 0}";
},
{
name = mark6;
position = "{0, 0}";
}
);
layerId = UUID0;
paths = (
{
closed = 1;
nodes = (
"83 27 LINE SMOOTH",
"83 9 OFFCURVE",
"91 0 OFFCURVE",
"107 0 CURVE SMOOTH",
"419 0 LINE SMOOTH",
"436 0 OFFCURVE",
"449 0 OFFCURVE",
"458 1 CURVE",
"458 -1 LINE",
"399 -44 OFFCURVE",
"373 -74 OFFCURVE",
"373 -125 CURVE SMOOTH",
"373 -167 OFFCURVE",
"408 -204 OFFCURVE",
"479 -204 CURVE SMOOTH",
"497 -204 OFFCURVE",
"549 -203 OFFCURVE",
"549 -189 CURVE",
"542 -146 LINE SMOOTH",
"541 -139 OFFCURVE",
"538 -136 OFFCURVE",
"534 -136 CURVE SMOOTH",
"530 -137 LINE SMOOTH",
"520 -139 OFFCURVE",
"507 -140 OFFCURVE",
"491 -140 CURVE SMOOTH",
"467 -140 OFFCURVE",
"451 -128 OFFCURVE",
"451 -103 CURVE SMOOTH",
"451 -61 OFFCURVE",
"532 -5 OFFCURVE",
"546 0 CURVE",
"549 0 LINE SMOOTH",
"567 0 OFFCURVE",
"576 7 OFFCURVE",
"576 22 CURVE SMOOTH",
"576 58 LINE SMOOTH",
"576 73 OFFCURVE",
"567 80 OFFCURVE",
"549 80 CURVE SMOOTH",
"177 80 LINE",
"177 323 LINE",
"505 323 LINE SMOOTH",
"523 323 OFFCURVE",
"532 330 OFFCURVE",
"532 345 CURVE SMOOTH",
"532 381 LINE SMOOTH",
"532 396 OFFCURVE",
"523 403 OFFCURVE",
"505 403 CURVE SMOOTH",
"177 403 LINE",
"177 620 LINE",
"535 620 LINE SMOOTH",
"553 620 OFFCURVE",
"562 627 OFFCURVE",
"562 642 CURVE SMOOTH",
"562 678 LINE SMOOTH",
"562 693 OFFCURVE",
"553 700 OFFCURVE",
"535 700 CURVE SMOOTH",
"107 700 LINE SMOOTH",
"91 700 OFFCURVE",
"83 691 OFFCURVE",
"83 673 CURVE SMOOTH"
);
}
);
width = 620;
},
{
anchors = (
{
name = mark0;
position = "{0, 0}";
},
{
name = mark1;
position = "{0, 0}";
},
{
name = mark2;
position = "{322, 717}";
},
{
name = mark3;
position = "{0, 0}";
},
{
name = mark4;
position = "{0, 0}";
}
);
layerId = "7D4B8FA6-1CBF-4C70-BCBE-1433105F567F";
paths = (
{
closed = 1;
nodes = (
"78 37 LINE SMOOTH",
"78 12 OFFCURVE",
"89 0 OFFCURVE",
"112 0 CURVE SMOOTH",
"347 0 LINE SMOOTH",
"373 0 OFFCURVE",
"392 1 OFFCURVE",
"405 2 CURVE",
"405 -1 LINE",
"326 -72 OFFCURVE",
"329 -96 OFFCURVE",
"329 -121 CURVE SMOOTH",
"329 -177 OFFCURVE",
"375 -205 OFFCURVE",
"467 -205 CURVE SMOOTH",
"525 -205 OFFCURVE",
"549 -203 OFFCURVE",
"549 -182 CURVE",
"542 -122 LINE SMOOTH",
"541 -112 OFFCURVE",
"536 -107 OFFCURVE",
"527 -107 CURVE SMOOTH",
"522 -107 LINE SMOOTH",
"510 -108 OFFCURVE",
"497 -109 OFFCURVE",
"483 -109 CURVE SMOOTH",
"458 -109 OFFCURVE",
"444 -105 OFFCURVE",
"444 -86 CURVE SMOOTH",
"444 -77 OFFCURVE",
"456 -63 OFFCURVE",
"480 -43 CURVE",
"542 0 LINE",
"547 0 LINE SMOOTH",
"571 0 OFFCURVE",
"583 11 OFFCURVE",
"583 32 CURVE SMOOTH",
"583 89 LINE SMOOTH",
"583 110 OFFCURVE",
"571 121 OFFCURVE",
"547 121 CURVE SMOOTH",
"221 121 LINE",
"221 303 LINE",
"505 303 LINE SMOOTH",
"530 303 OFFCURVE",
"542 313 OFFCURVE",
"542 334 CURVE SMOOTH",
"542 392 LINE SMOOTH",
"542 413 OFFCURVE",
"530 424 OFFCURVE",
"505 424 CURVE SMOOTH",
"221 424 LINE",
"221 579 LINE",
"531 579 LINE SMOOTH",
"556 579 OFFCURVE",
"568 590 OFFCURVE",
"568 611 CURVE SMOOTH",
"568 668 LINE SMOOTH",
"568 689 OFFCURVE",
"556 700 OFFCURVE",
"531 700 CURVE SMOOTH",
"112 700 LINE SMOOTH",
"89 700 OFFCURVE",
"78 688 OFFCURVE",
"78 664 CURVE SMOOTH"
);
}
);
width = 625;
}
);
unicode = 0118;
},
{
glyphname = Eopen;
lastChange = "2016-10-15 04:12:42 +0000";
layers = (
{
anchors = (
{
name = mark0;
position = "{0, 0}";
},
{
name = mark1;
position = "{0, 0}";
},
{
name = mark2;
position = "{0, 0}";
},
{
name = mark3;
position = "{309, 0}";
},
{
name = mark4;
position = "{302, 715}";
},
{
name = mark5;
position = "{0, 0}";
},
{
name = mark6;
position = "{0, 0}";
}
);
layerId = UUID0;
paths = (
{
closed = 1;
nodes = (
"70 284 OFFCURVE",
"54 243 OFFCURVE",
"54 194 CURVE SMOOTH",
"54 56 OFFCURVE",
"162 -15 OFFCURVE",
"309 -15 CURVE SMOOTH",
"408 -15 OFFCURVE",
"475 26 OFFCURVE",
"521 69 CURVE SMOOTH",
"530 78 OFFCURVE",
"534 85 OFFCURVE",
"534 92 CURVE SMOOTH",
"534 97 OFFCURVE",
"532 101 OFFCURVE",
"528 105 CURVE SMOOTH",
"498 139 LINE SMOOTH",
"494 143 OFFCURVE",
"489 145 OFFCURVE",
"484 145 CURVE SMOOTH",
"468 145 OFFCURVE",
"405 62 OFFCURVE",
"306 62 CURVE SMOOTH",
"214 62 OFFCURVE",
"154 101 OFFCURVE",
"154 202 CURVE SMOOTH",
"154 288 OFFCURVE",
"242 330 OFFCURVE",
"305 330 CURVE SMOOTH",
"360 330 LINE SMOOTH",
"375 330 OFFCURVE",
"383 337 OFFCURVE",
"383 351 CURVE SMOOTH",
"383 385 LINE SMOOTH",
"383 400 OFFCURVE",
"375 407 OFFCURVE",
"360 407 CURVE SMOOTH",
"309 407 LINE SMOOTH",
"213 407 OFFCURVE",
"175 465 OFFCURVE",
"175 528 CURVE SMOOTH",
"175 608 OFFCURVE",
"238 639 OFFCURVE",
"304 639 CURVE SMOOTH",
"356 639 OFFCURVE",
"414 613 OFFCURVE",
"447 582 CURVE",
"455 573 OFFCURVE",
"462 569 OFFCURVE",
"469 569 CURVE SMOOTH",
"474 569 OFFCURVE",
"478 571 OFFCURVE",
"482 575 CURVE SMOOTH",
"512 608 LINE SMOOTH",
"516 613 OFFCURVE",
"518 618 OFFCURVE",
"518 623 CURVE SMOOTH",
"518 650 OFFCURVE",
"451 683 OFFCURVE",
"408 697 CURVE SMOOTH",
"372 709 OFFCURVE",
"337 715 OFFCURVE",
"302 715 CURVE SMOOTH",
"157 715 OFFCURVE",
"80 624 OFFCURVE",
"80 533 CURVE SMOOTH",
"80 458 OFFCURVE",
"137 395 OFFCURVE",
"206 375 CURVE",
"206 373 LINE",
"168 369 OFFCURVE",
"133 350 OFFCURVE",
"102 317 CURVE SMOOTH"
);
}
);
width = 583;
},
{
anchors = (
{
name = mark0;
position = "{0, 0}";
},
{
name = mark1;
position = "{323, 0}";
},
{
name = mark2;
position = "{317, 717}";
},
{
name = mark3;
position = "{0, 0}";
},
{
name = mark4;
position = "{0, 0}";
}
);
layerId = "7D4B8FA6-1CBF-4C70-BCBE-1433105F567F";
paths = (
{
closed = 1;
nodes = (
"66 281 OFFCURVE",
"51 241 OFFCURVE",
"51 190 CURVE SMOOTH",
"51 57 OFFCURVE",
"177 -17 OFFCURVE",
"323 -17 CURVE SMOOTH",
"433 -17 OFFCURVE",
"497 12 OFFCURVE",
"552 67 CURVE SMOOTH",
"561 76 OFFCURVE",
"566 85 OFFCURVE",
"566 94 CURVE SMOOTH",
"566 101 OFFCURVE",
"563 108 OFFCURVE",
"557 115 CURVE SMOOTH",
"515 161 LINE SMOOTH",
"509 167 OFFCURVE",
"503 170 OFFCURVE",
"496 170 CURVE SMOOTH",
"477 170 OFFCURVE",
"434 128 OFFCURVE",
"400 112 CURVE SMOOTH",
"380 103 OFFCURVE",
"354 99 OFFCURVE",
"321 99 CURVE SMOOTH",
"254 99 OFFCURVE",
"198 128 OFFCURVE",
"198 202 CURVE SMOOTH",
"198 282 OFFCURVE",
"258 311 OFFCURVE",
"321 311 CURVE SMOOTH",
"380 311 LINE SMOOTH",
"401 311 OFFCURVE",
"411 321 OFFCURVE",
"411 341 CURVE SMOOTH",
"411 394 LINE SMOOTH",
"411 415 OFFCURVE",
"401 426 OFFCURVE",
"380 426 CURVE SMOOTH",
"314 426 LINE SMOOTH",
"246 426 OFFCURVE",
"213 462 OFFCURVE",
"213 519 CURVE SMOOTH",
"213 568 OFFCURVE",
"249 602 OFFCURVE",
"321 602 CURVE SMOOTH",
"376 602 OFFCURVE",
"414 585 OFFCURVE",
"449 556 CURVE SMOOTH",
"462 545 OFFCURVE",
"473 540 OFFCURVE",
"482 540 CURVE SMOOTH",
"490 540 OFFCURVE",
"497 544 OFFCURVE",
"503 551 CURVE SMOOTH",
"541 596 LINE SMOOTH",
"548 605 OFFCURVE",
"552 612 OFFCURVE",
"552 619 CURVE SMOOTH",
"552 651 OFFCURVE",
"452 695 OFFCURVE",
"426 703 CURVE SMOOTH",
"394 712 OFFCURVE",
"358 717 OFFCURVE",
"317 717 CURVE SMOOTH",
"175 717 OFFCURVE",
"76 642 OFFCURVE",
"76 530 CURVE SMOOTH",
"76 434 OFFCURVE",
"124 397 OFFCURVE",
"201 375 CURVE",
"201 373 LINE",
"162 362 OFFCURVE",
"128 341 OFFCURVE",
"97 312 CURVE"
);
}
);
width = 612;
}
);
unicode = 0190;
},
{
glyphname = Ereversed;
lastChange = "2016-10-15 04:12:42 +0000";
layers = (
{
layerId = UUID0;
paths = (
{
closed = 1;
nodes = (
"44 22 LINE SMOOTH",
"44 7 OFFCURVE",
"53 0 OFFCURVE",
"71 0 CURVE SMOOTH",
"513 0 LINE SMOOTH",
"529 0 OFFCURVE",
"537 9 OFFCURVE",
"537 27 CURVE SMOOTH",
"537 673 LINE SMOOTH",
"537 691 OFFCURVE",
"529 700 OFFCURVE",
"513 700 CURVE SMOOTH",
"85 700 LINE SMOOTH",
"68 700 OFFCURVE",
"59 693 OFFCURVE",
"59 678 CURVE SMOOTH",
"59 642 LINE SMOOTH",
"59 627 OFFCURVE",
"68 620 OFFCURVE",
"85 620 CURVE SMOOTH",
"443 620 LINE",
"443 403 LINE",
"115 403 LINE SMOOTH",
"97 403 OFFCURVE",
"88 396 OFFCURVE",
"88 381 CURVE SMOOTH",
"88 345 LINE SMOOTH",
"88 330 OFFCURVE",
"97 323 OFFCURVE",
"115 323 CURVE SMOOTH",
"443 323 LINE",
"443 80 LINE",
"71 80 LINE SMOOTH",
"53 80 OFFCURVE",
"44 73 OFFCURVE",
"44 58 CURVE SMOOTH"
);
}
);
width = 620;
},
{
layerId = "7D4B8FA6-1CBF-4C70-BCBE-1433105F567F";
paths = (
{
closed = 1;
nodes = (
"42 32 LINE SMOOTH",
"42 11 OFFCURVE",
"54 0 OFFCURVE",
"78 0 CURVE SMOOTH",
"513 0 LINE SMOOTH",
"536 0 OFFCURVE",
"547 12 OFFCURVE",
"547 37 CURVE SMOOTH",
"547 664 LINE SMOOTH",
"547 688 OFFCURVE",
"536 700 OFFCURVE",
"513 700 CURVE SMOOTH",
"94 700 LINE SMOOTH",
"69 700 OFFCURVE",
"57 689 OFFCURVE",
"57 668 CURVE SMOOTH",
"57 611 LINE SMOOTH",
"57 590 OFFCURVE",
"69 579 OFFCURVE",
"94 579 CURVE SMOOTH",
"404 579 LINE",
"404 424 LINE",
"120 424 LINE SMOOTH",
"95 424 OFFCURVE",
"83 413 OFFCURVE",
"83 392 CURVE SMOOTH",
"83 334 LINE SMOOTH",
"83 313 OFFCURVE",
"95 303 OFFCURVE",
"120 303 CURVE SMOOTH",
"404 303 LINE",
"404 121 LINE",
"78 121 LINE SMOOTH",
"54 121 OFFCURVE",
"42 110 OFFCURVE",
"42 89 CURVE SMOOTH"
);
}
);
width = 625;
}
);
unicode = 018E;
},
{
glyphname = F;
lastChange = "2016-10-15 04:12:12 +0000";
layers = (
{
anchors = (
{
name = mark0;
position = "{0, 0}";
},
{
name = mark1;
position = "{0, 0}";
},
{
name = mark2;
position = "{0, 0}";
},
{
name = mark3;
position = "{308, 0}";
},
{
name = mark4;
position = "{308, 715}";
},
{
name = mark5;
position = "{0, 0}";
},
{
name = mark6;
position = "{0, 0}";
}
);
layerId = UUID0;
paths = (
{
closed = 1;
nodes = (
"83 27 LINE SMOOTH",
"83 9 OFFCURVE",
"91 0 OFFCURVE",
"107 0 CURVE SMOOTH",
"152 0 LINE SMOOTH",
"169 0 OFFCURVE",
"177 9 OFFCURVE",
"177 27 CURVE SMOOTH",
"177 309 LINE",
"463 309 LINE SMOOTH",
"481 309 OFFCURVE",
"490 316 OFFCURVE",
"490 331 CURVE SMOOTH",
"490 367 LINE SMOOTH",
"490 382 OFFCURVE",
"481 389 OFFCURVE",
"463 389 CURVE SMOOTH",
"177 389 LINE",
"177 620 LINE",
"505 620 LINE SMOOTH",
"523 620 OFFCURVE",
"532 627 OFFCURVE",
"532 642 CURVE SMOOTH",
"532 678 LINE SMOOTH",
"532 693 OFFCURVE",
"523 700 OFFCURVE",
"505 700 CURVE SMOOTH",
"107 700 LINE SMOOTH",
"91 700 OFFCURVE",
"83 691 OFFCURVE",
"83 673 CURVE SMOOTH"
);
}
);
width = 569;
},
{
anchors = (
{
name = mark0;
position = "{0, 0}";
},
{
name = mark1;
position = "{307, 0}";
},
{
name = mark2;
position = "{307, 717}";
},
{
name = mark3;
position = "{0, 0}";
},
{
name = mark4;
position = "{0, 0}";
}
);
layerId = "7D4B8FA6-1CBF-4C70-BCBE-1433105F567F";
paths = (
{
closed = 1;
nodes = (
"78 37 LINE SMOOTH",
"78 12 OFFCURVE",
"89 0 OFFCURVE",
"112 0 CURVE SMOOTH",
"187 0 LINE SMOOTH",
"210 0 OFFCURVE",
"221 12 OFFCURVE",
"221 37 CURVE SMOOTH",
"221 288 LINE",
"458 288 LINE SMOOTH",
"483 288 OFFCURVE",
"495 299 OFFCURVE",
"495 320 CURVE SMOOTH",
"495 377 LINE SMOOTH",
"495 398 OFFCURVE",
"483 409 OFFCURVE",
"458 409 CURVE SMOOTH",
"221 409 LINE",
"221 579 LINE",
"499 579 LINE SMOOTH",
"523 579 OFFCURVE",
"535 590 OFFCURVE",
"535 611 CURVE SMOOTH",
"535 668 LINE SMOOTH",
"535 689 OFFCURVE",
"523 700 OFFCURVE",
"499 700 CURVE SMOOTH",
"112 700 LINE SMOOTH",
"89 700 OFFCURVE",
"78 688 OFFCURVE",
"78 664 CURVE SMOOTH"
);
}
);
width = 574;
}
);
unicode = 0046;
},
{
glyphname = Fhook;
lastChange = "2016-10-15 04:12:42 +0000";
layers = (
{
layerId = UUID0;
paths = (
{
closed = 1;
nodes = (
"-87 -196 OFFCURVE",
"-12 -204 OFFCURVE",
"17 -204 CURVE SMOOTH",
"126 -204 OFFCURVE",
"183 -151 OFFCURVE",
"183 -4 CURVE SMOOTH",
"183 309 LINE",
"469 309 LINE SMOOTH",
"487 309 OFFCURVE",
"496 316 OFFCURVE",
"496 331 CURVE SMOOTH",
"496 367 LINE SMOOTH",
"496 382 OFFCURVE",
"487 389 OFFCURVE",
"469 389 CURVE SMOOTH",
"183 389 LINE",
"183 620 LINE",
"511 620 LINE SMOOTH",
"529 620 OFFCURVE",
"538 627 OFFCURVE",
"538 642 CURVE SMOOTH",
"538 678 LINE SMOOTH",
"538 693 OFFCURVE",
"529 700 OFFCURVE",
"511 700 CURVE SMOOTH",
"113 700 LINE SMOOTH",
"97 700 OFFCURVE",
"89 691 OFFCURVE",
"89 673 CURVE SMOOTH",
"89 19 LINE SMOOTH",
"89 -112 OFFCURVE",
"63 -127 OFFCURVE",
"14 -127 CURVE SMOOTH",
"-10 -127 OFFCURVE",
"-38 -109 OFFCURVE",
"-59 -109 CURVE SMOOTH",
"-68 -109 OFFCURVE",
"-73 -114 OFFCURVE",
"-76 -124 CURVE SMOOTH",
"-86 -158 LINE SMOOTH",
"-87 -160 OFFCURVE",
"-87 -163 OFFCURVE",
"-87 -167 CURVE SMOOTH"
);
}
);
width = 569;
},
{
layerId = "7D4B8FA6-1CBF-4C70-BCBE-1433105F567F";
paths = (
{
closed = 1;
nodes = (
"-77 -197 OFFCURVE",
"-6 -205 OFFCURVE",
"42 -205 CURVE SMOOTH",
"166 -205 OFFCURVE",
"227 -135 OFFCURVE",
"227 17 CURVE SMOOTH",
"227 288 LINE",
"465 288 LINE SMOOTH",
"489 288 OFFCURVE",
"501 299 OFFCURVE",
"501 320 CURVE SMOOTH",
"501 377 LINE SMOOTH",
"501 398 OFFCURVE",
"489 409 OFFCURVE",
"465 409 CURVE SMOOTH",
"227 409 LINE",
"227 579 LINE",
"505 579 LINE SMOOTH",
"530 579 OFFCURVE",
"542 590 OFFCURVE",
"542 611 CURVE SMOOTH",
"542 668 LINE SMOOTH",
"542 689 OFFCURVE",
"530 700 OFFCURVE",
"505 700 CURVE SMOOTH",
"119 700 LINE SMOOTH",
"96 700 OFFCURVE",
"84 688 OFFCURVE",
"84 664 CURVE SMOOTH",
"84 44 LINE SMOOTH",
"84 -83 OFFCURVE",
"62 -90 OFFCURVE",
"22 -90 CURVE SMOOTH",
"3 -90 OFFCURVE",
"-21 -77 OFFCURVE",
"-38 -77 CURVE SMOOTH",
"-50 -77 OFFCURVE",
"-57 -84 OFFCURVE",
"-60 -97 CURVE SMOOTH",
"-76 -156 LINE SMOOTH",
"-77 -158 OFFCURVE",
"-77 -161 OFFCURVE",
"-77 -165 CURVE SMOOTH"
);
}
);
width = 574;
}
);
unicode = 0191;
},
{
glyphname = G;
lastChange = "2016-10-15 04:12:12 +0000";
layers = (
{
anchors = (
{
name = mark0;
position = "{0, 0}";
},
{
name = mark1;
position = "{0, 0}";
},
{
name = mark2;
position = "{0, 0}";
},
{
name = mark3;
position = "{384, 0}";
},
{
name = mark4;
position = "{379, 715}";
},
{
name = mark5;
position = "{0, 0}";
},
{
name = mark6;
position = "{0, 0}";
}
);
layerId = UUID0;
paths = (
{
closed = 1;
nodes = (
"74 553 OFFCURVE",
"45 464 OFFCURVE",
"45 350 CURVE SMOOTH",
"45 125 OFFCURVE",
"168 -15 OFFCURVE",
"384 -15 CURVE SMOOTH",
"514 -15 OFFCURVE",
"579 17 OFFCURVE",
"659 77 CURVE",
"659 307 LINE SMOOTH",
"659 322 OFFCURVE",
"650 329 OFFCURVE",
"632 329 CURVE SMOOTH",
"420 329 LINE SMOOTH",
"403 329 OFFCURVE",
"394 322 OFFCURVE",
"394 307 CURVE SMOOTH",
"394 271 LINE SMOOTH",
"394 256 OFFCURVE",
"403 249 OFFCURVE",
"420 249 CURVE SMOOTH",
"565 249 LINE",
"565 120 LINE",
"540 84 OFFCURVE",
"474 62 OFFCURVE",
"389 62 CURVE SMOOTH",
"214 62 OFFCURVE",
"145 174 OFFCURVE",
"145 350 CURVE SMOOTH",
"145 529 OFFCURVE",
"222 639 OFFCURVE",
"384 639 CURVE SMOOTH",
"512 639 OFFCURVE",
"550 537 OFFCURVE",
"572 537 CURVE SMOOTH",
"574 537 OFFCURVE",
"578 538 OFFCURVE",
"583 541 CURVE SMOOTH",
"620 566 LINE",
"625 571 OFFCURVE",
"628 576 OFFCURVE",
"628 583 CURVE SMOOTH",
"628 614 OFFCURVE",
"580 657 OFFCURVE",
"533 682 CURVE SMOOTH",
"492 703 OFFCURVE",
"442 715 OFFCURVE",
"379 715 CURVE SMOOTH",
"274 715 OFFCURVE",
"192 683 OFFCURVE",
"133 618 CURVE SMOOTH"
);
}
);
width = 718;
},
{
anchors = (
{
name = mark0;
position = "{0, 0}";
},
{
name = mark1;
position = "{379, 0}";
},
{
name = mark2;
position = "{379, 717}";
},
{
name = mark3;
position = "{0, 0}";
},
{
name = mark4;
position = "{0, 0}";
}
);
layerId = "7D4B8FA6-1CBF-4C70-BCBE-1433105F567F";
paths = (
{
closed = 1;
nodes = (
"71 553 OFFCURVE",
"42 463 OFFCURVE",
"42 350 CURVE SMOOTH",
"42 124 OFFCURVE",
"169 -17 OFFCURVE",
"379 -17 CURVE SMOOTH",
"505 -17 OFFCURVE",
"590 7 OFFCURVE",
"681 74 CURVE",
"681 322 LINE SMOOTH",
"681 343 OFFCURVE",
"669 354 OFFCURVE",
"644 354 CURVE SMOOTH",
"432 354 LINE SMOOTH",
"408 354 OFFCURVE",
"396 343 OFFCURVE",
"396 322 CURVE SMOOTH",
"396 264 LINE SMOOTH",
"396 243 OFFCURVE",
"408 232 OFFCURVE",
"432 232 CURVE SMOOTH",
"538 232 LINE",
"538 145 LINE",
"497 110 OFFCURVE",
"452 99 OFFCURVE",
"384 99 CURVE SMOOTH",
"242 99 OFFCURVE",
"194 195 OFFCURVE",
"194 350 CURVE SMOOTH",
"194 511 OFFCURVE",
"246 602 OFFCURVE",
"384 602 CURVE SMOOTH",
"437 602 OFFCURVE",
"488 579 OFFCURVE",
"520 543 CURVE SMOOTH",
"532 530 OFFCURVE",
"544 524 OFFCURVE",
"555 524 CURVE SMOOTH",
"560 524 OFFCURVE",
"565 526 OFFCURVE",
"572 529 CURVE",
"627 565 LINE SMOOTH",
"637 571 OFFCURVE",
"642 578 OFFCURVE",
"642 587 CURVE SMOOTH",
"642 621 OFFCURVE",
"570 674 OFFCURVE",
"531 692 CURVE SMOOTH",
"494 709 OFFCURVE",
"443 717 OFFCURVE",
"379 717 CURVE SMOOTH",
"271 717 OFFCURVE",
"188 684 OFFCURVE",
"130 618 CURVE"
);
}
);
width = 735;
}
);
unicode = 0047;
},
{
glyphname = Gammaafrican;
lastChange = "2016-10-15 04:12:42 +0000";
layers = (
{
layerId = UUID0;
paths = (
{
closed = 1;
nodes = (
"38 684 OFFCURVE",
"40 677 OFFCURVE",
"45 668 CURVE SMOOTH",
"280 264 LINE",
"222 197 OFFCURVE",
"193 145 OFFCURVE",
"193 109 CURVE SMOOTH",
"193 28 OFFCURVE",
"243 -15 OFFCURVE",
"331 -15 CURVE SMOOTH",
"418 -15 OFFCURVE",
"468 28 OFFCURVE",
"468 109 CURVE SMOOTH",
"468 145 OFFCURVE",
"439 200 OFFCURVE",
"383 264 CURVE",
"618 668 LINE SMOOTH",
"623 677 OFFCURVE",
"625 684 OFFCURVE",
"625 687 CURVE SMOOTH",
"625 696 OFFCURVE",
"618 700 OFFCURVE",
"605 700 CURVE SMOOTH",
"550 700 LINE SMOOTH",
"535 700 OFFCURVE",
"523 692 OFFCURVE",
"515 676 CURVE SMOOTH",
"359 376 LINE",
"333 320 LINE",
"331 320 LINE",
"272 438 LINE",
"148 676 LINE SMOOTH",
"140 692 OFFCURVE",
"128 700 OFFCURVE",
"113 700 CURVE SMOOTH",
"58 700 LINE SMOOTH",
"45 700 OFFCURVE",
"38 696 OFFCURVE",
"38 687 CURVE SMOOTH"
);
},
{
closed = 1;
nodes = (
"302 62 OFFCURVE",
"287 80 OFFCURVE",
"287 109 CURVE SMOOTH",
"287 125 OFFCURVE",
"277 129 OFFCURVE",
"330 207 CURVE",
"332 207 LINE",
"385 123 OFFCURVE",
"374 126 OFFCURVE",
"374 109 CURVE SMOOTH",
"374 80 OFFCURVE",
"359 62 OFFCURVE",
"331 62 CURVE SMOOTH"
);
}
);
width = 626;
},
{
layerId = "7D4B8FA6-1CBF-4C70-BCBE-1433105F567F";
paths = (
{
closed = 1;
nodes = (
"41 674 OFFCURVE",
"43 667 OFFCURVE",
"48 658 CURVE SMOOTH",
"269 261 LINE",
"209 196 OFFCURVE",
"185 167 OFFCURVE",
"185 114 CURVE SMOOTH",
"185 41 OFFCURVE",
"231 -17 OFFCURVE",
"353 -17 CURVE SMOOTH",
"478 -17 OFFCURVE",
"520 47 OFFCURVE",
"520 114 CURVE SMOOTH",
"520 165 OFFCURVE",
"500 193 OFFCURVE",
"437 261 CURVE",
"657 658 LINE SMOOTH",
"662 667 OFFCURVE",
"665 675 OFFCURVE",
"665 681 CURVE SMOOTH",
"665 694 OFFCURVE",
"655 700 OFFCURVE",
"634 700 CURVE SMOOTH",
"548 700 LINE SMOOTH",
"530 700 OFFCURVE",
"514 689 OFFCURVE",
"503 667 CURVE SMOOTH",
"445 555 OFFCURVE",
"413 491 OFFCURVE",
"404 476 CURVE SMOOTH",
"378 430 LINE SMOOTH",
"363 404 OFFCURVE",
"356 379 OFFCURVE",
"354 355 CURVE",
"352 355 LINE",
"347 396 OFFCURVE",
"321 443 OFFCURVE",
"301 476 CURVE",
"202 667 LINE SMOOTH",
"190 689 OFFCURVE",
"174 700 OFFCURVE",
"157 700 CURVE SMOOTH",
"71 700 LINE SMOOTH",
"51 700 OFFCURVE",
"41 694 OFFCURVE",
"41 681 CURVE SMOOTH"
);
},
{
closed = 1;
nodes = (
"333 96 OFFCURVE",
"319 109 OFFCURVE",
"319 133 CURVE SMOOTH",
"319 154 OFFCURVE",
"330 174 OFFCURVE",
"352 192 CURVE",
"354 192 LINE",
"375 174 OFFCURVE",
"386 154 OFFCURVE",
"386 133 CURVE SMOOTH",
"386 109 OFFCURVE",
"372 96 OFFCURVE",
"353 96 CURVE SMOOTH"
);
}
);
width = 658;
}
);
unicode = 0194;
},
{
glyphname = Glottalstop;
lastChange = "2016-10-15 04:12:42 +0000";
layers = (
{
layerId = UUID0;
paths = (
{
closed = 1;
nodes = (
"61 583 OFFCURVE",
"64 578 OFFCURVE",
"69 574 CURVE SMOOTH",
"104 552 LINE SMOOTH",
"108 550 OFFCURVE",
"112 549 OFFCURVE",
"115 549 CURVE SMOOTH",
"124 549 OFFCURVE",
"132 556 OFFCURVE",
"138 571 CURVE SMOOTH",
"157 616 OFFCURVE",
"198 639 OFFCURVE",
"258 639 CURVE SMOOTH",
"321 639 OFFCURVE",
"370 595 OFFCURVE",
"370 525 CURVE SMOOTH",
"370 478 OFFCURVE",
"345 427 OFFCURVE",
"294 371 CURVE SMOOTH",
"244 315 OFFCURVE",
"219 254 OFFCURVE",
"219 187 CURVE SMOOTH",
"219 27 LINE SMOOTH",
"219 9 OFFCURVE",
"227 0 OFFCURVE",
"243 0 CURVE SMOOTH",
"288 0 LINE SMOOTH",
"305 0 OFFCURVE",
"313 9 OFFCURVE",
"313 27 CURVE SMOOTH",
"313 173 LINE SMOOTH",
"313 232 OFFCURVE",
"339 290 OFFCURVE",
"390 348 CURVE SMOOTH",
"441 406 OFFCURVE",
"467 465 OFFCURVE",
"467 522 CURVE SMOOTH",
"467 642 OFFCURVE",
"377 715 OFFCURVE",
"259 715 CURVE SMOOTH",
"102 715 OFFCURVE",
"61 599 OFFCURVE",
"61 590 CURVE SMOOTH"
);
}
);
width = 503;
},
{
layerId = "7D4B8FA6-1CBF-4C70-BCBE-1433105F567F";
width = 600;
}
);
unicode = 0241;
},
{
glyphname = H;
lastChange = "2016-10-15 04:12:12 +0000";
layers = (
{
anchors = (
{
name = mark0;
position = "{0, 0}";
},
{
name = mark1;
position = "{0, 0}";
},
{
name = mark2;
position = "{0, 0}";
},
{
name = mark3;
position = "{347, 0}";
},
{
name = mark4;
position = "{347, 715}";
},
{
name = mark5;
position = "{0, 0}";
},
{
name = mark6;
position = "{0, 0}";
}
);
layerId = UUID0;
paths = (
{
closed = 1;
nodes = (
"83 27 LINE SMOOTH",
"83 9 OFFCURVE",
"91 0 OFFCURVE",
"107 0 CURVE SMOOTH",
"152 0 LINE SMOOTH",
"169 0 OFFCURVE",
"177 9 OFFCURVE",
"177 27 CURVE SMOOTH",
"177 324 LINE",
"518 324 LINE",
"518 27 LINE SMOOTH",
"518 9 OFFCURVE",
"526 0 OFFCURVE",
"542 0 CURVE SMOOTH",
"587 0 LINE SMOOTH",
"603 0 OFFCURVE",
"611 9 OFFCURVE",
"611 27 CURVE SMOOTH",
"611 673 LINE SMOOTH",
"611 691 OFFCURVE",
"603 700 OFFCURVE",
"587 700 CURVE SMOOTH",
"542 700 LINE SMOOTH",
"526 700 OFFCURVE",
"518 691 OFFCURVE",
"518 673 CURVE SMOOTH",
"518 404 LINE",
"177 404 LINE",
"177 673 LINE SMOOTH",
"177 691 OFFCURVE",
"169 700 OFFCURVE",
"152 700 CURVE SMOOTH",
"107 700 LINE SMOOTH",
"91 700 OFFCURVE",
"83 691 OFFCURVE",
"83 673 CURVE SMOOTH"
);
}
);
width = 694;
},
{
anchors = (
{
name = mark0;
position = "{0, 0}";
},
{
name = mark1;
position = "{352, 0}";
},
{
name = mark2;
position = "{352, 717}";
},
{
name = mark3;
position = "{0, 0}";
},
{
name = mark4;
position = "{0, 0}";
}
);
layerId = "7D4B8FA6-1CBF-4C70-BCBE-1433105F567F";
paths = (
{
closed = 1;
nodes = (
"78 37 LINE SMOOTH",
"78 12 OFFCURVE",
"89 0 OFFCURVE",
"112 0 CURVE SMOOTH",
"187 0 LINE SMOOTH",
"210 0 OFFCURVE",
"221 12 OFFCURVE",
"221 37 CURVE SMOOTH",
"221 304 LINE",
"483 304 LINE",
"483 37 LINE SMOOTH",
"483 12 OFFCURVE",
"495 0 OFFCURVE",
"518 0 CURVE SMOOTH",
"592 0 LINE SMOOTH",
"615 0 OFFCURVE",
"626 12 OFFCURVE",
"626 37 CURVE SMOOTH",
"626 664 LINE SMOOTH",
"626 688 OFFCURVE",
"615 700 OFFCURVE",
"592 700 CURVE SMOOTH",
"518 700 LINE SMOOTH",
"495 700 OFFCURVE",
"483 688 OFFCURVE",
"483 664 CURVE SMOOTH",
"483 425 LINE",
"221 425 LINE",
"221 664 LINE SMOOTH",
"221 688 OFFCURVE",
"210 700 OFFCURVE",
"187 700 CURVE SMOOTH",
"112 700 LINE SMOOTH",
"89 700 OFFCURVE",
"78 688 OFFCURVE",
"78 664 CURVE SMOOTH"
);
}
);
width = 704;
}
);
unicode = 0048;
},
{
glyphname = I;
lastChange = "2016-10-15 04:12:12 +0000";
layers = (
{
anchors = (
{
name = mark0;
position = "{130, 0}";
},
{
name = mark1;
position = "{0, 0}";
},
{
name = mark2;
position = "{0, 0}";
},
{
name = mark3;
position = "{130, 0}";
},
{
name = mark4;
position = "{130, 715}";
},
{
name = mark5;
position = "{0, 0}";
},
{
name = mark6;
position = "{0, 0}";
}
);
layerId = UUID0;
paths = (
{
closed = 1;
nodes = (
"83 27 LINE SMOOTH",
"83 9 OFFCURVE",
"91 0 OFFCURVE",
"107 0 CURVE SMOOTH",
"152 0 LINE SMOOTH",
"169 0 OFFCURVE",
"177 9 OFFCURVE",
"177 27 CURVE SMOOTH",
"177 673 LINE SMOOTH",
"177 691 OFFCURVE",
"169 700 OFFCURVE",
"152 700 CURVE SMOOTH",
"107 700 LINE SMOOTH",
"91 700 OFFCURVE",
"83 691 OFFCURVE",
"83 673 CURVE SMOOTH"
);
}
);
width = 260;
},
{
anchors = (
{
name = mark0;
position = "{149, 0}";
},
{
name = mark1;
position = "{149, 0}";
},
{
name = mark2;
position = "{149, 717}";
},
{
name = mark3;
position = "{0, 0}";
},
{
name = mark4;
position = "{0, 0}";
}
);
layerId = "7D4B8FA6-1CBF-4C70-BCBE-1433105F567F";
paths = (
{
closed = 1;
nodes = (
"78 37 LINE SMOOTH",
"78 12 OFFCURVE",
"89 0 OFFCURVE",
"112 0 CURVE SMOOTH",
"187 0 LINE SMOOTH",
"210 0 OFFCURVE",
"221 12 OFFCURVE",
"221 37 CURVE SMOOTH",
"221 664 LINE SMOOTH",
"221 688 OFFCURVE",
"210 700 OFFCURVE",
"187 700 CURVE SMOOTH",
"112 700 LINE SMOOTH",
"89 700 OFFCURVE",
"78 688 OFFCURVE",
"78 664 CURVE SMOOTH"
);
}
);
width = 299;
}
);
unicode = 0049;
},
{
glyphname = Iotaafrican;
lastChange = "2016-10-15 04:12:42 +0000";
layers = (
{
layerId = UUID0;
paths = (
{
closed = 1;
nodes = (
"83 175 LINE SMOOTH",
"83 41 OFFCURVE",
"130 -15 OFFCURVE",
"248 -15 CURVE SMOOTH",
"288 -15 OFFCURVE",
"373 8 OFFCURVE",
"373 38 CURVE SMOOTH",
"373 42 OFFCURVE",
"372 46 OFFCURVE",
"370 51 CURVE SMOOTH",
"356 79 LINE SMOOTH",
"352 88 OFFCURVE",
"346 92 OFFCURVE",
"338 92 CURVE SMOOTH",
"333 92 OFFCURVE",
"327 90 OFFCURVE",
"320 85 CURVE SMOOTH",
"294 70 OFFCURVE",
"270 62 OFFCURVE",
"248 62 CURVE SMOOTH",
"200 62 OFFCURVE",
"177 92 OFFCURVE",
"177 167 CURVE SMOOTH",
"177 673 LINE SMOOTH",
"177 691 OFFCURVE",
"169 700 OFFCURVE",
"152 700 CURVE SMOOTH",
"107 700 LINE SMOOTH",
"91 700 OFFCURVE",
"83 691 OFFCURVE",
"83 673 CURVE SMOOTH"
);
}
);
width = 398;
},
{
layerId = "7D4B8FA6-1CBF-4C70-BCBE-1433105F567F";
paths = (
{
closed = 1;
nodes = (
"78 244 LINE SMOOTH",
"78 70 OFFCURVE",
"150 -17 OFFCURVE",
"294 -17 CURVE SMOOTH",
"349 -17 OFFCURVE",
"435 -2 OFFCURVE",
"435 34 CURVE SMOOTH",
"435 37 OFFCURVE",
"434 41 OFFCURVE",
"433 46 CURVE SMOOTH",
"414 102 LINE SMOOTH",
"410 114 OFFCURVE",
"403 120 OFFCURVE",
"393 120 CURVE SMOOTH",
"380 120 OFFCURVE",
"338 99 OFFCURVE",
"303 99 CURVE SMOOTH",
"246 99 OFFCURVE",
"221 144 OFFCURVE",
"221 232 CURVE SMOOTH",
"221 664 LINE SMOOTH",
"221 688 OFFCURVE",
"210 700 OFFCURVE",
"187 700 CURVE SMOOTH",
"112 700 LINE SMOOTH",
"89 700 OFFCURVE",
"78 688 OFFCURVE",
"78 664 CURVE SMOOTH"
);
}
);
width = 458;
}
);
unicode = 0196;
},
{
glyphname = Istroke;
lastChange = "2016-10-15 04:12:42 +0000";
layers = (
{
layerId = UUID0;
paths = (
{
closed = 1;
nodes = (
"125 27 LINE SMOOTH",
"125 9 OFFCURVE",
"133 0 OFFCURVE",
"149 0 CURVE SMOOTH",
"194 0 LINE SMOOTH",
"210 0 OFFCURVE",
"218 9 OFFCURVE",
"218 27 CURVE SMOOTH",
"218 314 LINE",
"292 314 LINE SMOOTH",
"309 314 OFFCURVE",
"318 321 OFFCURVE",
"318 336 CURVE SMOOTH",
"318 373 LINE SMOOTH",
"318 388 OFFCURVE",
"309 395 OFFCURVE",
"292 395 CURVE SMOOTH",
"218 395 LINE",
"218 673 LINE SMOOTH",
"218 691 OFFCURVE",
"210 700 OFFCURVE",
"194 700 CURVE SMOOTH",
"149 700 LINE SMOOTH",
"133 700 OFFCURVE",
"125 691 OFFCURVE",
"125 673 CURVE SMOOTH",
"125 395 LINE",
"51 395 LINE SMOOTH",
"33 395 OFFCURVE",
"24 388 OFFCURVE",
"24 373 CURVE SMOOTH",
"24 336 LINE SMOOTH",
"24 321 OFFCURVE",
"33 314 OFFCURVE",
"51 314 CURVE SMOOTH",
"125 314 LINE"
);
}
);
width = 343;
},
{
layerId = "7D4B8FA6-1CBF-4C70-BCBE-1433105F567F";
paths = (
{
closed = 1;
nodes = (
"22 335 LINE SMOOTH",
"22 314 OFFCURVE",
"34 304 OFFCURVE",
"59 304 CURVE SMOOTH",
"124 304 LINE",
"124 37 LINE SMOOTH",
"124 12 OFFCURVE",
"135 0 OFFCURVE",
"158 0 CURVE SMOOTH",
"232 0 LINE SMOOTH",
"255 0 OFFCURVE",
"267 12 OFFCURVE",
"267 37 CURVE SMOOTH",
"267 304 LINE",
"332 304 LINE SMOOTH",
"356 304 OFFCURVE",
"368 314 OFFCURVE",
"368 335 CURVE SMOOTH",
"368 393 LINE SMOOTH",
"368 414 OFFCURVE",
"356 425 OFFCURVE",
"332 425 CURVE SMOOTH",
"267 425 LINE",
"267 664 LINE SMOOTH",
"267 688 OFFCURVE",
"255 700 OFFCURVE",
"232 700 CURVE SMOOTH",
"158 700 LINE SMOOTH",
"135 700 OFFCURVE",
"124 688 OFFCURVE",
"124 664 CURVE SMOOTH",
"124 425 LINE",
"59 425 LINE SMOOTH",
"34 425 OFFCURVE",
"22 414 OFFCURVE",
"22 393 CURVE SMOOTH"
);
}
);
width = 391;
}
);
unicode = 0197;
},
{
glyphname = J;
lastChange = "2016-10-15 04:12:12 +0000";
layers = (
{
anchors = (
{
name = mark0;
position = "{0, 0}";
},
{
name = mark1;
position = "{0, 0}";
},
{
name = mark2;
position = "{0, 0}";
},
{
name = mark3;
position = "{168, 0}";
},
{
name = mark4;
position = "{272, 715}";
},
{
name = mark5;
position = "{0, 0}";
},
{
name = mark6;
position = "{0, 0}";
}
);
layerId = UUID0;
paths = (
{
closed = 1;
nodes = (
"25 6 OFFCURVE",
"113 -15 OFFCURVE",
"156 -15 CURVE SMOOTH",
"308 -15 OFFCURVE",
"328 69 OFFCURVE",
"328 196 CURVE SMOOTH",
"328 673 LINE SMOOTH",
"328 691 OFFCURVE",
"320 700 OFFCURVE",
"304 700 CURVE SMOOTH",
"259 700 LINE SMOOTH",
"242 700 OFFCURVE",
"234 691 OFFCURVE",
"234 673 CURVE SMOOTH",
"234 185 LINE SMOOTH",
"234 113 OFFCURVE",
"226 62 OFFCURVE",
"159 62 CURVE SMOOTH",
"132 62 OFFCURVE",
"105 70 OFFCURVE",
"80 87 CURVE SMOOTH",
"73 92 OFFCURVE",
"67 94 OFFCURVE",
"61 94 CURVE SMOOTH",
"54 94 OFFCURVE",
"48 90 OFFCURVE",
"44 81 CURVE SMOOTH",
"28 46 LINE SMOOTH",
"26 42 OFFCURVE",
"25 38 OFFCURVE",
"25 35 CURVE SMOOTH"
);
}
);
width = 402;
},
{
anchors = (
{
name = mark0;
position = "{0, 0}";
},
{
name = mark1;
position = "{201, 0}";
},
{
name = mark2;
position = "{313, 717}";
},
{
name = mark3;
position = "{0, 0}";
},
{
name = mark4;
position = "{0, 0}";
}
);
layerId = "7D4B8FA6-1CBF-4C70-BCBE-1433105F567F";
paths = (
{
closed = 1;
nodes = (
"24 46 LINE SMOOTH",
"23 43 OFFCURVE",
"23 41 OFFCURVE",
"23 39 CURVE SMOOTH",
"23 3 OFFCURVE",
"97 -17 OFFCURVE",
"163 -17 CURVE SMOOTH",
"234 -17 OFFCURVE",
"289 1 OFFCURVE",
"330 36 CURVE SMOOTH",
"371 72 OFFCURVE",
"391 150 OFFCURVE",
"391 269 CURVE SMOOTH",
"391 664 LINE SMOOTH",
"391 688 OFFCURVE",
"379 700 OFFCURVE",
"356 700 CURVE SMOOTH",
"282 700 LINE SMOOTH",
"259 700 OFFCURVE",
"248 688 OFFCURVE",
"248 664 CURVE SMOOTH",
"248 259 LINE SMOOTH",
"248 139 OFFCURVE",
"231 99 OFFCURVE",
"162 99 CURVE SMOOTH",
"119 99 OFFCURVE",
"82 129 OFFCURVE",
"64 129 CURVE SMOOTH",
"54 129 OFFCURVE",
"48 124 OFFCURVE",
"45 113 CURVE SMOOTH"
);
}
);
width = 462;
}
);
unicode = 004A;
},
{
glyphname = Jstroke;
lastChange = "2016-10-15 04:12:42 +0000";
layers = (
{
layerId = UUID0;
paths = (
{
closed = 1;
nodes = (
"25 6 OFFCURVE",
"113 -15 OFFCURVE",
"156 -15 CURVE SMOOTH",
"308 -15 OFFCURVE",
"328 69 OFFCURVE",
"328 196 CURVE SMOOTH",
"328 314 LINE",
"392 314 LINE SMOOTH",
"410 314 OFFCURVE",
"419 321 OFFCURVE",
"419 336 CURVE SMOOTH",
"419 373 LINE SMOOTH",
"419 388 OFFCURVE",
"410 395 OFFCURVE",
"392 395 CURVE SMOOTH",
"328 395 LINE",
"328 673 LINE SMOOTH",
"328 691 OFFCURVE",
"320 700 OFFCURVE",
"304 700 CURVE SMOOTH",
"259 700 LINE SMOOTH",
"242 700 OFFCURVE",
"234 691 OFFCURVE",
"234 673 CURVE SMOOTH",
"234 395 LINE",
"146 395 LINE SMOOTH",
"129 395 OFFCURVE",
"120 388 OFFCURVE",
"120 373 CURVE SMOOTH",
"120 336 LINE SMOOTH",
"120 321 OFFCURVE",
"129 314 OFFCURVE",
"146 314 CURVE SMOOTH",
"234 314 LINE",
"234 185 LINE SMOOTH",
"234 112 OFFCURVE",
"224 62 OFFCURVE",
"163 62 CURVE SMOOTH",
"133 62 OFFCURVE",
"105 70 OFFCURVE",
"80 87 CURVE SMOOTH",
"73 92 OFFCURVE",
"67 94 OFFCURVE",
"61 94 CURVE SMOOTH",
"54 94 OFFCURVE",
"48 90 OFFCURVE",
"44 81 CURVE SMOOTH",
"28 46 LINE SMOOTH",
"26 42 OFFCURVE",
"25 38 OFFCURVE",
"25 35 CURVE SMOOTH"
);
}
);
width = 435;
},
{
layerId = "7D4B8FA6-1CBF-4C70-BCBE-1433105F567F";
width = 600;
}
);
unicode = 0248;
},
{
glyphname = K;
lastChange = "2016-10-15 04:12:12 +0000";
layers = (
{
anchors = (
{
name = mark0;
position = "{0, 0}";
},
{
name = mark1;
position = "{0, 0}";
},
{
name = mark2;
position = "{0, 0}";
},
{
name = mark3;
position = "{355, 0}";
},
{
name = mark4;
position = "{355, 715}";
},
{
name = mark5;
position = "{0, 0}";
},
{
name = mark6;
position = "{0, 0}";
}
);
layerId = UUID0;
paths = (
{
closed = 1;
nodes = (
"83 27 LINE SMOOTH",
"83 9 OFFCURVE",
"91 0 OFFCURVE",
"107 0 CURVE SMOOTH",
"152 0 LINE SMOOTH",
"169 0 OFFCURVE",
"177 9 OFFCURVE",
"177 27 CURVE SMOOTH",
"177 230 LINE",
"293 349 LINE",
"517 19 LINE SMOOTH",
"525 6 OFFCURVE",
"535 0 OFFCURVE",
"551 0 CURVE SMOOTH",
"610 0 LINE SMOOTH",
"622 0 OFFCURVE",
"628 4 OFFCURVE",
"628 11 CURVE SMOOTH",
"628 16 OFFCURVE",
"625 23 OFFCURVE",
"619 32 CURVE SMOOTH",
"358 415 LINE",
"606 668 LINE SMOOTH",
"615 677 OFFCURVE",
"620 685 OFFCURVE",
"620 690 CURVE SMOOTH",
"620 697 OFFCURVE",
"612 700 OFFCURVE",
"597 700 CURVE SMOOTH",
"538 700 LINE SMOOTH",
"527 700 OFFCURVE",
"516 694 OFFCURVE",
"504 681 CURVE SMOOTH",
"178 347 LINE",
"176 347 LINE",
"177 673 LINE SMOOTH",
"177 691 OFFCURVE",
"169 700 OFFCURVE",
"152 700 CURVE SMOOTH",
"107 700 LINE SMOOTH",
"91 700 OFFCURVE",
"83 691 OFFCURVE",
"83 673 CURVE SMOOTH"
);
}
);
width = 648;
},
{
anchors = (
{
name = mark0;
position = "{0, 0}";
},
{
name = mark1;
position = "{362, 0}";
},
{
name = mark2;
position = "{362, 717}";
},
{
name = mark3;
position = "{0, 0}";
},
{
name = mark4;
position = "{0, 0}";
}
);
layerId = "7D4B8FA6-1CBF-4C70-BCBE-1433105F567F";
paths = (
{
closed = 1;
nodes = (
"78 37 LINE SMOOTH",
"78 12 OFFCURVE",
"89 0 OFFCURVE",
"112 0 CURVE SMOOTH",
"187 0 LINE SMOOTH",
"210 0 OFFCURVE",
"221 12 OFFCURVE",
"221 37 CURVE SMOOTH",
"221 218 LINE",
"303 311 LINE",
"482 29 LINE SMOOTH",
"494 10 OFFCURVE",
"510 0 OFFCURVE",
"526 0 CURVE SMOOTH",
"618 0 LINE SMOOTH",
"637 0 OFFCURVE",
"646 5 OFFCURVE",
"646 16 CURVE SMOOTH",
"646 24 OFFCURVE",
"643 33 OFFCURVE",
"636 42 CURVE",
"398 415 LINE",
"621 658 LINE SMOOTH",
"631 669 OFFCURVE",
"636 678 OFFCURVE",
"636 685 CURVE SMOOTH",
"636 695 OFFCURVE",
"625 700 OFFCURVE",
"602 700 CURVE SMOOTH",
"504 700 LINE SMOOTH",
"492 700 OFFCURVE",
"477 690 OFFCURVE",
"459 671 CURVE SMOOTH",
"222 411 LINE",
"218 411 LINE",
"220 430 OFFCURVE",
"221 450 OFFCURVE",
"221 469 CURVE SMOOTH",
"221 664 LINE SMOOTH",
"221 688 OFFCURVE",
"210 700 OFFCURVE",
"187 700 CURVE SMOOTH",
"112 700 LINE SMOOTH",
"89 700 OFFCURVE",
"78 688 OFFCURVE",
"78 664 CURVE SMOOTH"
);
}
);
width = 665;
}
);
unicode = 004B;
},
{
glyphname = L;
lastChange = "2016-10-15 04:12:12 +0000";
layers = (
{
anchors = (
{
name = mark0;
position = "{0, 0}";
},
{
name = mark1;
position = "{0, 0}";
},
{
name = mark2;
position = "{0, 0}";
},
{
name = mark3;
position = "{305, 0}";
},
{
name = mark4;
position = "{305, 715}";
},
{
name = mark5;
position = "{0, 0}";
},
{
name = mark6;
position = "{0, 0}";
}
);
layerId = UUID0;
paths = (
{
closed = 1;
nodes = (
"83 27 LINE SMOOTH",
"83 9 OFFCURVE",
"91 0 OFFCURVE",
"107 0 CURVE SMOOTH",
"500 0 LINE SMOOTH",
"518 0 OFFCURVE",
"527 7 OFFCURVE",
"527 22 CURVE SMOOTH",
"527 58 LINE SMOOTH",
"527 73 OFFCURVE",
"518 80 OFFCURVE",
"500 80 CURVE SMOOTH",
"177 80 LINE",
"177 673 LINE SMOOTH",
"177 691 OFFCURVE",
"169 700 OFFCURVE",
"152 700 CURVE SMOOTH",
"107 700 LINE SMOOTH",
"91 700 OFFCURVE",
"83 691 OFFCURVE",
"83 673 CURVE SMOOTH"
);
}
);
width = 555;
},
{
anchors = (
{
name = mark0;
position = "{0, 0}";
},
{
name = mark1;
position = "{310, 0}";
},
{
name = mark2;
position = "{310, 717}";
},
{
name = mark3;
position = "{0, 0}";
},
{
name = mark4;
position = "{0, 0}";
}
);
layerId = "7D4B8FA6-1CBF-4C70-BCBE-1433105F567F";
paths = (
{
closed = 1;
nodes = (
"78 37 LINE SMOOTH",
"78 12 OFFCURVE",
"89 0 OFFCURVE",
"112 0 CURVE SMOOTH",
"505 0 LINE SMOOTH",
"530 0 OFFCURVE",
"542 11 OFFCURVE",
"542 32 CURVE SMOOTH",
"542 89 LINE SMOOTH",
"542 110 OFFCURVE",
"530 121 OFFCURVE",
"505 121 CURVE SMOOTH",
"221 121 LINE",
"221 664 LINE SMOOTH",
"221 688 OFFCURVE",
"211 700 OFFCURVE",
"191 700 CURVE SMOOTH",
"112 700 LINE SMOOTH",
"89 700 OFFCURVE",
"78 688 OFFCURVE",
"78 664 CURVE SMOOTH"
);
}
);
width = 567;
}
);
unicode = 004C;
},
{
glyphname = Lslash;
lastChange = "2016-10-15 04:12:12 +0000";
layers = (
{
layerId = UUID0;
paths = (
{
closed = 1;
nodes = (
"41 211 OFFCURVE",
"47 214 OFFCURVE",
"56 219 CURVE",
"135 271 LINE",
"134 27 LINE SMOOTH",
"134 9 OFFCURVE",
"142 0 OFFCURVE",
"159 0 CURVE SMOOTH",
"552 0 LINE SMOOTH",
"570 0 OFFCURVE",
"579 7 OFFCURVE",
"579 22 CURVE SMOOTH",
"579 58 LINE SMOOTH",
"579 73 OFFCURVE",
"570 80 OFFCURVE",
"552 80 CURVE SMOOTH",
"228 80 LINE",
"228 335 LINE",
"370 431 LINE SMOOTH",
"381 438 OFFCURVE",
"387 448 OFFCURVE",
"387 461 CURVE SMOOTH",
"387 517 LINE SMOOTH",
"387 527 OFFCURVE",
"384 532 OFFCURVE",
"378 532 CURVE SMOOTH",
"375 532 OFFCURVE",
"369 529 OFFCURVE",
"360 524 CURVE",
"227 436 LINE",
"228 445 OFFCURVE",
"228 458 OFFCURVE",
"228 475 CURVE SMOOTH",
"228 673 LINE SMOOTH",
"228 691 OFFCURVE",
"220 700 OFFCURVE",
"204 700 CURVE SMOOTH",
"159 700 LINE SMOOTH",
"142 700 OFFCURVE",
"134 691 OFFCURVE",
"134 673 CURVE SMOOTH",
"134 372 LINE",
"46 313 LINE SMOOTH",
"35 305 OFFCURVE",
"29 295 OFFCURVE",
"29 282 CURVE SMOOTH",
"29 226 LINE SMOOTH",
"29 216 OFFCURVE",
"32 211 OFFCURVE",
"38 211 CURVE SMOOTH"
);
}
);
width = 606;
},
{
layerId = "7D4B8FA6-1CBF-4C70-BCBE-1433105F567F";
paths = (
{
closed = 1;
nodes = (
"44 185 OFFCURVE",
"52 188 OFFCURVE",
"61 194 CURVE SMOOTH",
"117 232 LINE",
"121 232 LINE",
"119 213 OFFCURVE",
"118 194 OFFCURVE",
"118 174 CURVE SMOOTH",
"118 37 LINE SMOOTH",
"118 12 OFFCURVE",
"129 0 OFFCURVE",
"152 0 CURVE SMOOTH",
"545 0 LINE SMOOTH",
"570 0 OFFCURVE",
"582 11 OFFCURVE",
"582 32 CURVE SMOOTH",
"582 89 LINE SMOOTH",
"582 110 OFFCURVE",
"570 121 OFFCURVE",
"545 121 CURVE SMOOTH",
"261 121 LINE",
"261 330 LINE",
"384 413 LINE SMOOTH",
"401 424 OFFCURVE",
"409 438 OFFCURVE",
"409 456 CURVE SMOOTH",
"409 526 LINE SMOOTH",
"409 539 OFFCURVE",
"405 545 OFFCURVE",
"397 545 CURVE SMOOTH",
"392 545 OFFCURVE",
"384 542 OFFCURVE",
"375 536 CURVE SMOOTH",
"262 460 LINE",
"258 460 LINE",
"260 479 OFFCURVE",
"261 499 OFFCURVE",
"261 519 CURVE SMOOTH",
"261 664 LINE SMOOTH",
"261 688 OFFCURVE",
"251 700 OFFCURVE",
"231 700 CURVE SMOOTH",
"152 700 LINE SMOOTH",
"129 700 OFFCURVE",
"118 688 OFFCURVE",
"118 664 CURVE SMOOTH",
"118 362 LINE",
"51 317 LINE SMOOTH",
"35 306 OFFCURVE",
"27 292 OFFCURVE",
"27 274 CURVE SMOOTH",
"27 204 LINE SMOOTH",
"27 191 OFFCURVE",
"31 185 OFFCURVE",
"39 185 CURVE SMOOTH"
);
}
);
width = 607;
}
);
unicode = 0141;
},
{
glyphname = M;
lastChange = "2016-10-15 04:12:12 +0000";
layers = (
{
anchors = (
{
name = mark0;
position = "{0, 0}";
},
{
name = mark1;
position = "{0, 0}";
},
{
name = mark2;
position = "{0, 0}";
},
{
name = mark3;
position = "{417, 0}";
},
{
name = mark4;
position = "{417, 715}";
},
{
name = mark5;
position = "{0, 0}";
},
{
name = mark6;
position = "{0, 0}";
}
);
layerId = UUID0;
paths = (
{
closed = 1;
nodes = (
"83 27 LINE SMOOTH",
"83 9 OFFCURVE",
"91 0 OFFCURVE",
"107 0 CURVE SMOOTH",
"152 0 LINE SMOOTH",
"169 0 OFFCURVE",
"177 9 OFFCURVE",
"177 27 CURVE SMOOTH",
"176 578 LINE",
"178 578 LINE",
"358 30 LINE SMOOTH",
"364 10 OFFCURVE",
"374 0 OFFCURVE",
"390 0 CURVE SMOOTH",
"444 0 LINE SMOOTH",
"459 0 OFFCURVE",
"469 10 OFFCURVE",
"476 30 CURVE SMOOTH",
"656 578 LINE",
"658 578 LINE",
"657 27 LINE SMOOTH",
"657 9 OFFCURVE",
"665 0 OFFCURVE",
"682 0 CURVE SMOOTH",
"727 0 LINE SMOOTH",
"743 0 OFFCURVE",
"751 9 OFFCURVE",
"751 27 CURVE SMOOTH",
"751 673 LINE SMOOTH",
"751 691 OFFCURVE",
"743 700 OFFCURVE",
"727 700 CURVE SMOOTH",
"623 700 LINE SMOOTH",
"610 700 OFFCURVE",
"601 690 OFFCURVE",
"595 671 CURVE SMOOTH",
"444 198 LINE",
"422 136 OFFCURVE",
"428 151 OFFCURVE",
"418 101 CURVE",
"416 101 LINE",
"406 151 OFFCURVE",
"412 136 OFFCURVE",
"390 198 CURVE",
"239 671 LINE SMOOTH",
"233 690 OFFCURVE",
"224 700 OFFCURVE",
"211 700 CURVE SMOOTH",
"107 700 LINE SMOOTH",
"91 700 OFFCURVE",
"83 691 OFFCURVE",
"83 673 CURVE SMOOTH"
);
}
);
width = 834;
},
{
anchors = (
{
name = mark0;
position = "{0, 0}";
},
{
name = mark1;
position = "{446, 0}";
},
{
name = mark2;
position = "{446, 717}";
},
{
name = mark3;
position = "{0, 0}";
},
{
name = mark4;
position = "{0, 0}";
}
);
layerId = "7D4B8FA6-1CBF-4C70-BCBE-1433105F567F";
paths = (
{
closed = 1;
nodes = (
"78 37 LINE SMOOTH",
"78 12 OFFCURVE",
"89 0 OFFCURVE",
"112 0 CURVE SMOOTH",
"187 0 LINE SMOOTH",
"210 0 OFFCURVE",
"221 12 OFFCURVE",
"221 37 CURVE SMOOTH",
"221 440 LINE SMOOTH",
"221 459 OFFCURVE",
"220 479 OFFCURVE",
"218 499 CURVE",
"222 499 LINE",
"363 40 LINE SMOOTH",
"371 13 OFFCURVE",
"385 0 OFFCURVE",
"405 0 CURVE SMOOTH",
"488 0 LINE SMOOTH",
"506 0 OFFCURVE",
"522 13 OFFCURVE",
"530 40 CURVE SMOOTH",
"671 499 LINE",
"674 499 LINE",
"673 472 OFFCURVE",
"672 453 OFFCURVE",
"672 440 CURVE SMOOTH",
"672 37 LINE SMOOTH",
"672 12 OFFCURVE",
"683 0 OFFCURVE",
"706 0 CURVE SMOOTH",
"780 0 LINE SMOOTH",
"803 0 OFFCURVE",
"814 12 OFFCURVE",
"814 37 CURVE SMOOTH",
"814 664 LINE SMOOTH",
"814 688 OFFCURVE",
"803 700 OFFCURVE",
"780 700 CURVE SMOOTH",
"639 700 LINE SMOOTH",
"620 700 OFFCURVE",
"606 687 OFFCURVE",
"598 661 CURVE SMOOTH",
"466 233 LINE SMOOTH",
"453 192 OFFCURVE",
"450 178 OFFCURVE",
"448 145 CURVE",
"445 145 LINE",
"439 187 LINE SMOOTH",
"437 198 OFFCURVE",
"433 214 OFFCURVE",
"427 233 CURVE SMOOTH",
"294 661 LINE SMOOTH",
"286 687 OFFCURVE",
"273 700 OFFCURVE",
"254 700 CURVE SMOOTH",
"112 700 LINE SMOOTH",
"89 700 OFFCURVE",
"78 688 OFFCURVE",
"78 664 CURVE SMOOTH"
);
}
);
width = 893;
}
);
unicode = 004D;
},
{
glyphname = Mhook;
lastChange = "2016-10-15 04:12:42 +0000";
layers = (
{
layerId = UUID0;
paths = (
{
closed = 1;
nodes = (
"83 27 LINE SMOOTH",
"83 9 OFFCURVE",
"91 0 OFFCURVE",
"107 0 CURVE SMOOTH",
"152 0 LINE SMOOTH",
"169 0 OFFCURVE",
"177 9 OFFCURVE",
"177 27 CURVE SMOOTH",
"176 578 LINE",
"178 578 LINE",
"358 30 LINE SMOOTH",
"364 10 OFFCURVE",
"374 0 OFFCURVE",
"390 0 CURVE SMOOTH",
"444 0 LINE SMOOTH",
"459 0 OFFCURVE",
"469 10 OFFCURVE",
"476 30 CURVE SMOOTH",
"656 578 LINE",
"658 578 LINE",
"657 19 LINE SMOOTH",
"657 -115 OFFCURVE",
"631 -127 OFFCURVE",
"582 -127 CURVE SMOOTH",
"558 -127 OFFCURVE",
"530 -109 OFFCURVE",
"509 -109 CURVE SMOOTH",
"501 -109 OFFCURVE",
"495 -114 OFFCURVE",
"492 -124 CURVE SMOOTH",
"482 -158 LINE SMOOTH",
"481 -160 OFFCURVE",
"481 -163 OFFCURVE",
"481 -167 CURVE SMOOTH",
"481 -195 OFFCURVE",
"554 -204 OFFCURVE",
"585 -204 CURVE SMOOTH",
"692 -204 OFFCURVE",
"751 -156 OFFCURVE",
"751 -4 CURVE SMOOTH",
"751 673 LINE SMOOTH",
"751 691 OFFCURVE",
"743 700 OFFCURVE",
"727 700 CURVE SMOOTH",
"623 700 LINE SMOOTH",
"610 700 OFFCURVE",
"601 690 OFFCURVE",
"595 671 CURVE SMOOTH",
"444 198 LINE",
"422 136 OFFCURVE",
"428 151 OFFCURVE",
"418 101 CURVE",
"416 101 LINE",
"406 151 OFFCURVE",
"412 136 OFFCURVE",
"390 198 CURVE",
"239 671 LINE SMOOTH",
"233 690 OFFCURVE",
"224 700 OFFCURVE",
"211 700 CURVE SMOOTH",
"107 700 LINE SMOOTH",
"91 700 OFFCURVE",
"83 691 OFFCURVE",
"83 673 CURVE SMOOTH"
);
}
);
width = 834;
},
{
layerId = "7D4B8FA6-1CBF-4C70-BCBE-1433105F567F";
paths = (
{
closed = 1;
nodes = (
"78 37 LINE SMOOTH",
"78 12 OFFCURVE",
"89 0 OFFCURVE",
"112 0 CURVE SMOOTH",
"187 0 LINE SMOOTH",
"210 0 OFFCURVE",
"221 12 OFFCURVE",
"221 37 CURVE SMOOTH",
"221 440 LINE SMOOTH",
"221 459 OFFCURVE",
"220 479 OFFCURVE",
"218 499 CURVE",
"222 499 LINE",
"363 40 LINE SMOOTH",
"371 13 OFFCURVE",
"385 0 OFFCURVE",
"405 0 CURVE SMOOTH",
"488 0 LINE SMOOTH",
"506 0 OFFCURVE",
"522 13 OFFCURVE",
"530 40 CURVE SMOOTH",
"671 499 LINE",
"674 499 LINE",
"673 472 OFFCURVE",
"672 453 OFFCURVE",
"672 440 CURVE SMOOTH",
"672 44 LINE SMOOTH",
"672 -80 OFFCURVE",
"649 -90 OFFCURVE",
"610 -90 CURVE SMOOTH",
"591 -90 OFFCURVE",
"567 -77 OFFCURVE",
"549 -77 CURVE SMOOTH",
"538 -77 OFFCURVE",
"530 -84 OFFCURVE",
"527 -97 CURVE SMOOTH",
"512 -156 LINE SMOOTH",
"511 -161 OFFCURVE",
"510 -165 OFFCURVE",
"510 -166 CURVE SMOOTH",
"510 -197 OFFCURVE",
"581 -205 OFFCURVE",
"629 -205 CURVE SMOOTH",
"753 -205 OFFCURVE",
"814 -135 OFFCURVE",
"814 17 CURVE SMOOTH",
"814 664 LINE SMOOTH",
"814 688 OFFCURVE",
"803 700 OFFCURVE",
"780 700 CURVE SMOOTH",
"639 700 LINE SMOOTH",
"620 700 OFFCURVE",
"606 687 OFFCURVE",
"598 661 CURVE SMOOTH",
"466 233 LINE",
"446 176 OFFCURVE",
"450 170 OFFCURVE",
"448 145 CURVE",
"445 145 LINE",
"439 187 LINE",
"436 197 OFFCURVE",
"433 212 OFFCURVE",
"427 233 CURVE SMOOTH",
"294 661 LINE SMOOTH",
"286 687 OFFCURVE",
"273 700 OFFCURVE",
"254 700 CURVE SMOOTH",
"112 700 LINE SMOOTH",
"89 700 OFFCURVE",
"78 688 OFFCURVE",
"78 664 CURVE SMOOTH"
);
}
);
width = 893;
}
);
unicode = 2C6E;
},
{
glyphname = N;
lastChange = "2016-10-15 04:12:12 +0000";
layers = (
{
anchors = (
{
name = mark0;
position = "{0, 0}";
},
{
name = mark1;
position = "{0, 0}";
},
{
name = mark2;
position = "{0, 0}";
},
{
name = mark3;
position = "{351, 0}";
},
{
name = mark4;
position = "{351, 715}";
},
{
name = mark5;
position = "{0, 0}";
},
{
name = mark6;
position = "{0, 0}";
}
);
layerId = UUID0;
paths = (
{
closed = 1;
nodes = (
"83 27 LINE SMOOTH",
"83 9 OFFCURVE",
"91 0 OFFCURVE",
"107 0 CURVE SMOOTH",
"152 0 LINE SMOOTH",
"169 0 OFFCURVE",
"177 9 OFFCURVE",
"177 27 CURVE SMOOTH",
"176 568 LINE",
"178 568 LINE",
"503 24 LINE SMOOTH",
"513 8 OFFCURVE",
"529 0 OFFCURVE",
"552 0 CURVE SMOOTH",
"595 0 LINE SMOOTH",
"611 0 OFFCURVE",
"619 9 OFFCURVE",
"619 27 CURVE SMOOTH",
"619 673 LINE SMOOTH",
"619 691 OFFCURVE",
"611 700 OFFCURVE",
"595 700 CURVE SMOOTH",
"550 700 LINE SMOOTH",
"533 700 OFFCURVE",
"525 691 OFFCURVE",
"525 673 CURVE SMOOTH",
"526 164 LINE",
"524 164 LINE",
"219 676 LINE SMOOTH",
"209 692 OFFCURVE",
"193 700 OFFCURVE",
"170 700 CURVE SMOOTH",
"107 700 LINE SMOOTH",
"91 700 OFFCURVE",
"83 691 OFFCURVE",
"83 673 CURVE SMOOTH"
);
}
);
width = 702;
},
{
anchors = (
{
name = mark0;
position = "{0, 0}";
},
{
name = mark1;
position = "{359, 0}";
},
{
name = mark2;
position = "{359, 717}";
},
{
name = mark3;
position = "{0, 0}";
},
{
name = mark4;
position = "{0, 0}";
}
);
layerId = "7D4B8FA6-1CBF-4C70-BCBE-1433105F567F";
paths = (
{
closed = 1;
nodes = (
"78 37 LINE SMOOTH",
"78 12 OFFCURVE",
"89 0 OFFCURVE",
"112 0 CURVE SMOOTH",
"187 0 LINE SMOOTH",
"210 0 OFFCURVE",
"221 12 OFFCURVE",
"221 37 CURVE SMOOTH",
"221 383 LINE SMOOTH",
"221 403 OFFCURVE",
"220 422 OFFCURVE",
"218 441 CURVE",
"222 441 LINE",
"476 34 LINE SMOOTH",
"490 11 OFFCURVE",
"511 0 OFFCURVE",
"539 0 CURVE SMOOTH",
"606 0 LINE SMOOTH",
"629 0 OFFCURVE",
"641 12 OFFCURVE",
"641 37 CURVE SMOOTH",
"641 664 LINE SMOOTH",
"641 688 OFFCURVE",
"629 700 OFFCURVE",
"606 700 CURVE SMOOTH",
"532 700 LINE SMOOTH",
"509 700 OFFCURVE",
"498 688 OFFCURVE",
"498 664 CURVE SMOOTH",
"498 325 LINE SMOOTH",
"498 312 OFFCURVE",
"499 293 OFFCURVE",
"500 266 CURVE",
"497 266 LINE",
"248 666 LINE SMOOTH",
"234 689 OFFCURVE",
"213 700 OFFCURVE",
"185 700 CURVE SMOOTH",
"112 700 LINE SMOOTH",
"89 700 OFFCURVE",
"78 688 OFFCURVE",
"78 664 CURVE SMOOTH"
);
}
);
width = 719;
}
);
unicode = 004E;
},
{
glyphname = Eng;
lastChange = "2016-10-15 04:12:12 +0000";
layers = (
{
layerId = UUID0;
paths = (
{
closed = 1;
nodes = (
"83 27 LINE SMOOTH",
"83 9 OFFCURVE",
"91 0 OFFCURVE",
"107 0 CURVE SMOOTH",
"152 0 LINE SMOOTH",
"169 0 OFFCURVE",
"177 9 OFFCURVE",
"177 27 CURVE SMOOTH",
"177 427 LINE SMOOTH",
"177 594 OFFCURVE",
"281 639 OFFCURVE",
"355 639 CURVE SMOOTH",
"485 639 OFFCURVE",
"518 585 OFFCURVE",
"518 461 CURVE SMOOTH",
"518 19 LINE SMOOTH",
"518 -107 OFFCURVE",
"495 -127 OFFCURVE",
"442 -127 CURVE SMOOTH",
"418 -127 OFFCURVE",
"392 -109 OFFCURVE",
"370 -109 CURVE SMOOTH",
"362 -109 OFFCURVE",
"356 -114 OFFCURVE",
"353 -124 CURVE SMOOTH",
"342 -158 LINE SMOOTH",
"341 -160 OFFCURVE",
"341 -163 OFFCURVE",
"341 -167 CURVE SMOOTH",
"341 -195 OFFCURVE",
"414 -204 OFFCURVE",
"445 -204 CURVE SMOOTH",
"554 -204 OFFCURVE",
"611 -154 OFFCURVE",
"611 -4 CURVE SMOOTH",
"611 504 LINE SMOOTH",
"611 640 OFFCURVE",
"536 715 OFFCURVE",
"397 715 CURVE SMOOTH",
"313 715 OFFCURVE",
"227 680 OFFCURVE",
"178 610 CURVE",
"176 610 LINE",
"172 673 LINE SMOOTH",
"171 691 OFFCURVE",
"163 700 OFFCURVE",
"147 700 CURVE SMOOTH",
"107 700 LINE SMOOTH",
"91 700 OFFCURVE",
"83 691 OFFCURVE",
"83 673 CURVE SMOOTH"
);
}
);
width = 694;
},
{
layerId = "7D4B8FA6-1CBF-4C70-BCBE-1433105F567F";
paths = (
{
closed = 1;
nodes = (
"78 37 LINE SMOOTH",
"78 12 OFFCURVE",
"89 0 OFFCURVE",
"112 0 CURVE SMOOTH",
"187 0 LINE SMOOTH",
"210 0 OFFCURVE",
"221 12 OFFCURVE",
"221 37 CURVE SMOOTH",
"221 306 LINE SMOOTH",
"221 493 OFFCURVE",
"288 602 OFFCURVE",
"367 602 CURVE SMOOTH",
"458 602 OFFCURVE",
"483 542 OFFCURVE",
"483 422 CURVE SMOOTH",
"483 44 LINE SMOOTH",
"483 -83 OFFCURVE",
"461 -90 OFFCURVE",
"421 -90 CURVE SMOOTH",
"402 -90 OFFCURVE",
"378 -77 OFFCURVE",
"360 -77 CURVE SMOOTH",
"348 -77 OFFCURVE",
"342 -84 OFFCURVE",
"339 -97 CURVE SMOOTH",
"323 -156 LINE SMOOTH",
"322 -158 OFFCURVE",
"322 -161 OFFCURVE",
"322 -165 CURVE SMOOTH",
"322 -197 OFFCURVE",
"393 -205 OFFCURVE",
"440 -205 CURVE SMOOTH",
"565 -205 OFFCURVE",
"626 -135 OFFCURVE",
"626 17 CURVE SMOOTH",
"626 465 LINE SMOOTH",
"626 637 OFFCURVE",
"560 717 OFFCURVE",
"417 717 CURVE SMOOTH",
"321 717 OFFCURVE",
"264 663 OFFCURVE",
"222 597 CURVE",
"218 597 LINE",
"212 664 LINE SMOOTH",
"210 688 OFFCURVE",
"197 700 OFFCURVE",
"178 700 CURVE SMOOTH",
"112 700 LINE SMOOTH",
"89 700 OFFCURVE",
"78 688 OFFCURVE",
"78 664 CURVE SMOOTH"
);
}
);
width = 704;
}
);
unicode = 014A;
},
{
glyphname = Nhookleft;
lastChange = "2016-10-15 04:12:42 +0000";
layers = (
{
layerId = UUID0;
paths = (
{
closed = 1;
nodes = (
"-76 -195 OFFCURVE",
"-3 -204 OFFCURVE",
"28 -204 CURVE SMOOTH",
"137 -204 OFFCURVE",
"194 -154 OFFCURVE",
"194 -4 CURVE SMOOTH",
"194 529 LINE SMOOTH",
"194 546 OFFCURVE",
"194 559 OFFCURVE",
"193 568 CURVE",
"195 568 LINE",
"521 24 LINE SMOOTH",
"530 8 OFFCURVE",
"546 0 OFFCURVE",
"569 0 CURVE SMOOTH",
"612 0 LINE SMOOTH",
"629 0 OFFCURVE",
"637 9 OFFCURVE",
"637 27 CURVE SMOOTH",
"637 673 LINE SMOOTH",
"637 691 OFFCURVE",
"629 700 OFFCURVE",
"612 700 CURVE SMOOTH",
"567 700 LINE SMOOTH",
"551 700 OFFCURVE",
"543 691 OFFCURVE",
"543 673 CURVE SMOOTH",
"543 203 LINE SMOOTH",
"543 186 OFFCURVE",
"543 173 OFFCURVE",
"544 164 CURVE",
"542 164 LINE",
"236 676 LINE SMOOTH",
"226 692 OFFCURVE",
"211 700 OFFCURVE",
"188 700 CURVE SMOOTH",
"125 700 LINE SMOOTH",
"109 700 OFFCURVE",
"101 691 OFFCURVE",
"101 673 CURVE SMOOTH",
"101 19 LINE SMOOTH",
"101 -107 OFFCURVE",
"78 -127 OFFCURVE",
"25 -127 CURVE SMOOTH",
"1 -127 OFFCURVE",
"-25 -109 OFFCURVE",
"-47 -109 CURVE SMOOTH",
"-56 -109 OFFCURVE",
"-61 -114 OFFCURVE",
"-64 -124 CURVE SMOOTH",
"-75 -158 LINE SMOOTH",
"-76 -160 OFFCURVE",
"-76 -163 OFFCURVE",
"-76 -167 CURVE SMOOTH"
);
}
);
width = 714;
},
{
layerId = "7D4B8FA6-1CBF-4C70-BCBE-1433105F567F";
width = 600;
}
);
unicode = 019D;
},
{
glyphname = Nlongrightleg;
lastChange = "2016-10-15 04:12:42 +0000";
layers = (
{
layerId = UUID0;
paths = (
{
closed = 1;
nodes = (
"83 27 LINE SMOOTH",
"83 9 OFFCURVE",
"91 0 OFFCURVE",
"107 0 CURVE SMOOTH",
"152 0 LINE SMOOTH",
"169 0 OFFCURVE",
"177 9 OFFCURVE",
"177 27 CURVE SMOOTH",
"177 427 LINE SMOOTH",
"177 594 OFFCURVE",
"281 639 OFFCURVE",
"355 639 CURVE SMOOTH",
"485 639 OFFCURVE",
"518 585 OFFCURVE",
"518 461 CURVE SMOOTH",
"518 -168 LINE SMOOTH",
"518 -186 OFFCURVE",
"526 -195 OFFCURVE",
"542 -195 CURVE SMOOTH",
"587 -195 LINE SMOOTH",
"603 -195 OFFCURVE",
"611 -186 OFFCURVE",
"611 -168 CURVE SMOOTH",
"611 504 LINE SMOOTH",
"611 640 OFFCURVE",
"536 715 OFFCURVE",
"397 715 CURVE SMOOTH",
"313 715 OFFCURVE",
"227 680 OFFCURVE",
"178 610 CURVE",
"176 610 LINE",
"172 673 LINE SMOOTH",
"171 691 OFFCURVE",
"163 700 OFFCURVE",
"147 700 CURVE SMOOTH",
"107 700 LINE SMOOTH",
"91 700 OFFCURVE",
"83 691 OFFCURVE",
"83 673 CURVE SMOOTH"
);
}
);
width = 694;
},
{
layerId = "7D4B8FA6-1CBF-4C70-BCBE-1433105F567F";
width = 600;
}
);
unicode = 0220;
},
{
glyphname = O;
lastChange = "2016-10-15 04:12:12 +0000";
layers = (
{
anchors = (
{
name = mark0;
position = "{372, 0}";
},
{
name = mark1;
position = "{0, 0}";
},
{
name = mark2;
position = "{0, 0}";
},
{
name = mark3;
position = "{372, 0}";
},
{
name = mark4;
position = "{372, 715}";
},
{
name = mark5;
position = "{0, 0}";
},
{
name = mark6;
position = "{0, 0}";
}
);
layerId = UUID0;
paths = (
{
closed = 1;
nodes = (
"73 553 OFFCURVE",
"45 464 OFFCURVE",
"45 350 CURVE SMOOTH",
"45 123 OFFCURVE",
"161 -15 OFFCURVE",
"372 -15 CURVE SMOOTH",
"583 -15 OFFCURVE",
"699 123 OFFCURVE",
"699 350 CURVE SMOOTH",
"699 576 OFFCURVE",
"585 715 OFFCURVE",
"372 715 CURVE SMOOTH",
"266 715 OFFCURVE",
"185 683 OFFCURVE",
"129 618 CURVE SMOOTH"
);
},
{
closed = 1;
nodes = (
"164 188 OFFCURVE",
"145 259 OFFCURVE",
"145 350 CURVE SMOOTH",
"145 533 OFFCURVE",
"221 639 OFFCURVE",
"372 639 CURVE SMOOTH",
"521 639 OFFCURVE",
"599 536 OFFCURVE",
"599 350 CURVE SMOOTH",
"599 166 OFFCURVE",
"524 62 OFFCURVE",
"372 62 CURVE SMOOTH",
"296 62 OFFCURVE",
"239 87 OFFCURVE",
"201 137 CURVE"
);
}
);
width = 744;
},
{
anchors = (
{
name = mark0;
position = "{377, 0}";
},
{
name = mark1;
position = "{377, 0}";
},
{
name = mark2;
position = "{377, 717}";
},
{
name = mark3;
position = "{0, 0}";
},
{
name = mark4;
position = "{0, 0}";
}
);
layerId = "7D4B8FA6-1CBF-4C70-BCBE-1433105F567F";
paths = (
{
closed = 1;
nodes = (
"71 552 OFFCURVE",
"42 463 OFFCURVE",
"42 350 CURVE SMOOTH",
"42 123 OFFCURVE",
"166 -17 OFFCURVE",
"377 -17 CURVE SMOOTH",
"587 -17 OFFCURVE",
"712 123 OFFCURVE",
"712 350 CURVE SMOOTH",
"712 574 OFFCURVE",
"592 717 OFFCURVE",
"377 717 CURVE SMOOTH",
"270 717 OFFCURVE",
"187 684 OFFCURVE",
"129 618 CURVE SMOOTH"
);
},
{
closed = 1;
nodes = (
"255 99 OFFCURVE",
"194 183 OFFCURVE",
"194 350 CURVE SMOOTH",
"194 517 OFFCURVE",
"252 602 OFFCURVE",
"377 602 CURVE SMOOTH",
"502 602 OFFCURVE",
"560 517 OFFCURVE",
"560 350 CURVE SMOOTH",
"560 183 OFFCURVE",
"499 99 OFFCURVE",
"377 99 CURVE SMOOTH"
);
}
);
width = 754;
}
);
unicode = 004F;
},
{
glyphname = Oopen;
lastChange = "2016-10-15 04:12:42 +0000";
layers = (
{
anchors = (
{
name = mark0;
position = "{0, 0}";
},
{
name = mark1;
position = "{0, 0}";
},
{
name = mark2;
position = "{0, 0}";
},
{
name = mark3;
position = "{0, 0}";
},
{
name = mark4;
position = "{312, 715}";
},
{
name = mark5;
position = "{0, 0}";
},
{
name = mark6;
position = "{0, 0}";
}
);
layerId = UUID0;
paths = (
{
closed = 1;
nodes = (
"116 650 OFFCURVE",
"62 599 OFFCURVE",
"62 562 CURVE SMOOTH",
"62 555 OFFCURVE",
"65 549 OFFCURVE",
"72 545 CURVE SMOOTH",
"112 522 LINE SMOOTH",
"116 520 OFFCURVE",
"120 519 OFFCURVE",
"123 519 CURVE SMOOTH",
"151 519 OFFCURVE",
"182 639 OFFCURVE",
"321 639 CURVE SMOOTH",
"486 639 OFFCURVE",
"554 531 OFFCURVE",
"554 350 CURVE SMOOTH",
"554 170 OFFCURVE",
"487 62 OFFCURVE",
"321 62 CURVE SMOOTH",
"179 62 OFFCURVE",
"166 168 OFFCURVE",
"139 168 CURVE SMOOTH",
"136 168 OFFCURVE",
"132 167 OFFCURVE",
"129 165 CURVE SMOOTH",
"90 142 LINE SMOOTH",
"83 138 OFFCURVE",
"80 132 OFFCURVE",
"80 125 CURVE SMOOTH",
"80 118 OFFCURVE",
"82 111 OFFCURVE",
"86 103 CURVE SMOOTH",
"122 28 OFFCURVE",
"205 -15 OFFCURVE",
"326 -15 CURVE SMOOTH",
"537 -15 OFFCURVE",
"654 123 OFFCURVE",
"654 350 CURVE SMOOTH",
"654 575 OFFCURVE",
"539 715 OFFCURVE",
"326 715 CURVE SMOOTH",
"261 715 OFFCURVE",
"206 702 OFFCURVE",
"163 677 CURVE SMOOTH"
);
}
);
width = 685;
},
{
anchors = (
{
name = mark0;
position = "{0, 0}";
},
{
name = mark1;
position = "{0, 0}";
},
{
name = mark2;
position = "{318, 717}";
},
{
name = mark3;
position = "{0, 0}";
},
{
name = mark4;
position = "{0, 0}";
}
);
layerId = "7D4B8FA6-1CBF-4C70-BCBE-1433105F567F";
paths = (
{
closed = 1;
nodes = (
"117 655 OFFCURVE",
"64 609 OFFCURVE",
"64 573 CURVE SMOOTH",
"64 564 OFFCURVE",
"69 556 OFFCURVE",
"78 550 CURVE SMOOTH",
"136 511 LINE SMOOTH",
"142 507 OFFCURVE",
"148 505 OFFCURVE",
"154 505 CURVE SMOOTH",
"179 505 OFFCURVE",
"215 602 OFFCURVE",
"333 602 CURVE SMOOTH",
"471 602 OFFCURVE",
"517 510 OFFCURVE",
"517 350 CURVE SMOOTH",
"517 196 OFFCURVE",
"475 99 OFFCURVE",
"333 99 CURVE SMOOTH",
"213 99 OFFCURVE",
"204 181 OFFCURVE",
"172 181 CURVE SMOOTH",
"165 181 OFFCURVE",
"159 179 OFFCURVE",
"154 176 CURVE SMOOTH",
"95 145 LINE SMOOTH",
"86 140 OFFCURVE",
"82 133 OFFCURVE",
"82 122 CURVE SMOOTH",
"82 114 OFFCURVE",
"84 105 OFFCURVE",
"89 96 CURVE SMOOTH",
"125 23 OFFCURVE",
"214 -17 OFFCURVE",
"337 -17 CURVE SMOOTH",
"550 -17 OFFCURVE",
"669 124 OFFCURVE",
"669 350 CURVE SMOOTH",
"669 577 OFFCURVE",
"548 717 OFFCURVE",
"337 717 CURVE SMOOTH",
"272 717 OFFCURVE",
"217 705 OFFCURVE",
"170 682 CURVE SMOOTH"
);
}
);
width = 692;
}
);
unicode = 0186;
},
{
glyphname = Oslash;
lastChange = "2016-10-15 04:12:12 +0000";
layers = (
{
layerId = UUID0;
paths = (
{
closed = 1;
nodes = (
"89 553 OFFCURVE",
"61 464 OFFCURVE",
"61 350 CURVE SMOOTH",
"61 252 OFFCURVE",
"82 172 OFFCURVE",
"124 111 CURVE",
"59 39 LINE SMOOTH",
"52 31 OFFCURVE",
"49 24 OFFCURVE",
"49 19 CURVE SMOOTH",
"49 14 OFFCURVE",
"52 9 OFFCURVE",
"57 4 CURVE SMOOTH",
"79 -15 LINE SMOOTH",
"84 -19 OFFCURVE",
"89 -21 OFFCURVE",
"93 -21 CURVE SMOOTH",
"99 -21 OFFCURVE",
"106 -17 OFFCURVE",
"113 -10 CURVE SMOOTH",
"172 55 LINE",
"228 8 OFFCURVE",
"300 -15 OFFCURVE",
"388 -15 CURVE SMOOTH",
"599 -15 OFFCURVE",
"715 123 OFFCURVE",
"715 350 CURVE SMOOTH",
"715 448 OFFCURVE",
"694 528 OFFCURVE",
"653 589 CURVE",
"718 661 LINE SMOOTH",
"724 668 OFFCURVE",
"727 675 OFFCURVE",
"727 680 CURVE SMOOTH",
"727 685 OFFCURVE",
"724 691 OFFCURVE",
"719 696 CURVE SMOOTH",
"697 715 LINE",
"693 720 OFFCURVE",
"688 722 OFFCURVE",
"683 722 CURVE SMOOTH",
"677 722 OFFCURVE",
"670 718 OFFCURVE",
"663 710 CURVE SMOOTH",
"604 645 LINE",
"549 692 OFFCURVE",
"477 715 OFFCURVE",
"388 715 CURVE SMOOTH",
"282 715 OFFCURVE",
"201 683 OFFCURVE",
"145 618 CURVE SMOOTH"
);
},
{
closed = 1;
nodes = (
"190 185 LINE",
"171 230 OFFCURVE",
"161 285 OFFCURVE",
"161 350 CURVE SMOOTH",
"161 533 OFFCURVE",
"237 639 OFFCURVE",
"388 639 CURVE SMOOTH",
"455 639 OFFCURVE",
"508 619 OFFCURVE",
"545 580 CURVE"
);
},
{
closed = 1;
nodes = (
"321 62 OFFCURVE",
"268 82 OFFCURVE",
"231 121 CURVE",
"586 515 LINE",
"605 470 OFFCURVE",
"615 415 OFFCURVE",
"615 350 CURVE SMOOTH",
"615 166 OFFCURVE",
"540 62 OFFCURVE",
"388 62 CURVE SMOOTH"
);
}
);
width = 744;
},
{
layerId = "7D4B8FA6-1CBF-4C70-BCBE-1433105F567F";
paths = (
{
closed = 1;
nodes = (
"91 553 OFFCURVE",
"62 463 OFFCURVE",
"62 350 CURVE SMOOTH",
"62 259 OFFCURVE",
"81 184 OFFCURVE",
"118 125 CURVE",
"52 51 LINE SMOOTH",
"45 43 OFFCURVE",
"42 36 OFFCURVE",
"42 31 CURVE SMOOTH",
"42 25 OFFCURVE",
"45 19 OFFCURVE",
"52 12 CURVE SMOOTH",
"96 -28 LINE",
"103 -33 OFFCURVE",
"109 -36 OFFCURVE",
"114 -36 CURVE SMOOTH",
"121 -36 OFFCURVE",
"128 -32 OFFCURVE",
"135 -24 CURVE SMOOTH",
"194 41 LINE",
"247 2 OFFCURVE",
"314 -17 OFFCURVE",
"396 -17 CURVE SMOOTH",
"605 -17 OFFCURVE",
"731 118 OFFCURVE",
"731 350 CURVE SMOOTH",
"731 442 OFFCURVE",
"712 517 OFFCURVE",
"675 576 CURVE",
"741 649 LINE SMOOTH",
"748 656 OFFCURVE",
"751 663 OFFCURVE",
"751 670 CURVE SMOOTH",
"751 677 OFFCURVE",
"748 683 OFFCURVE",
"741 688 CURVE",
"697 728 LINE",
"690 733 OFFCURVE",
"684 736 OFFCURVE",
"679 736 CURVE SMOOTH",
"672 736 OFFCURVE",
"665 732 OFFCURVE",
"658 724 CURVE SMOOTH",
"599 659 LINE",
"546 698 OFFCURVE",
"479 717 OFFCURVE",
"396 717 CURVE SMOOTH",
"290 717 OFFCURVE",
"207 684 OFFCURVE",
"148 618 CURVE SMOOTH"
);
},
{
closed = 1;
nodes = (
"225 243 LINE",
"218 272 OFFCURVE",
"214 307 OFFCURVE",
"214 350 CURVE SMOOTH",
"214 518 OFFCURVE",
"275 602 OFFCURVE",
"396 602 CURVE SMOOTH",
"445 602 OFFCURVE",
"484 589 OFFCURVE",
"513 563 CURVE"
);
},
{
closed = 1;
nodes = (
"347 99 OFFCURVE",
"308 112 OFFCURVE",
"280 137 CURVE",
"568 457 LINE",
"575 428 OFFCURVE",
"579 393 OFFCURVE",
"579 350 CURVE SMOOTH",
"579 183 OFFCURVE",
"518 99 OFFCURVE",
"396 99 CURVE SMOOTH"
);
}
);
width = 754;
}
);
unicode = 00D8;
},
{
glyphname = OE;
lastChange = "2016-10-15 04:12:12 +0000";
layers = (
{
anchors = (
{
name = mark0;
position = "{0, 0}";
},
{
name = mark1;
position = "{0, 0}";
},
{
name = mark2;
position = "{0, 0}";
},
{
name = mark3;
position = "{0, 0}";
},
{
name = mark4;
position = "{512, 715}";
},
{
name = mark5;
position = "{0, 0}";
},
{
name = mark6;
position = "{0, 0}";
}
);
layerId = UUID0;
paths = (
{
closed = 1;
nodes = (
"72 554 OFFCURVE",
"45 465 OFFCURVE",
"45 351 CURVE SMOOTH",
"45 119 OFFCURVE",
"164 -15 OFFCURVE",
"352 -15 CURVE SMOOTH",
"399 -15 OFFCURVE",
"455 0 OFFCURVE",
"519 0 CURVE SMOOTH",
"912 0 LINE SMOOTH",
"930 0 OFFCURVE",
"939 7 OFFCURVE",
"939 22 CURVE SMOOTH",
"939 58 LINE SMOOTH",
"939 73 OFFCURVE",
"930 80 OFFCURVE",
"912 80 CURVE SMOOTH",
"559 80 LINE",
"559 323 LINE",
"868 323 LINE SMOOTH",
"886 323 OFFCURVE",
"895 330 OFFCURVE",
"895 345 CURVE SMOOTH",
"895 381 LINE SMOOTH",
"895 396 OFFCURVE",
"886 403 OFFCURVE",
"868 403 CURVE SMOOTH",
"559 403 LINE",
"559 620 LINE",
"897 620 LINE SMOOTH",
"915 620 OFFCURVE",
"924 627 OFFCURVE",
"924 642 CURVE SMOOTH",
"924 678 LINE SMOOTH",
"924 693 OFFCURVE",
"915 700 OFFCURVE",
"897 700 CURVE SMOOTH",
"519 700 LINE SMOOTH",
"468 700 OFFCURVE",
"393 715 OFFCURVE",
"352 715 CURVE SMOOTH",
"256 715 OFFCURVE",
"181 683 OFFCURVE",
"126 618 CURVE SMOOTH"
);
},
{
closed = 1;
nodes = (
"162 188 OFFCURVE",
"145 259 OFFCURVE",
"145 350 CURVE SMOOTH",
"145 532 OFFCURVE",
"213 639 OFFCURVE",
"352 639 CURVE SMOOTH",
"389 639 OFFCURVE",
"427 633 OFFCURVE",
"465 620 CURVE",
"465 80 LINE",
"429 68 OFFCURVE",
"391 62 OFFCURVE",
"352 62 CURVE SMOOTH",
"283 62 OFFCURVE",
"231 87 OFFCURVE",
"196 137 CURVE"
);
}
);
width = 983;
},
{
layerId = "7D4B8FA6-1CBF-4C70-BCBE-1433105F567F";
width = 600;
}
);
unicode = 0152;
},
{
glyphname = P;
lastChange = "2016-10-15 04:12:12 +0000";
layers = (
{
anchors = (
{
name = mark0;
position = "{0, 0}";
},
{
name = mark1;
position = "{0, 0}";
},
{
name = mark2;
position = "{0, 0}";
},
{
name = mark3;
position = "{317, 0}";
},
{
name = mark4;
position = "{317, 715}";
},
{
name = mark5;
position = "{0, 0}";
},
{
name = mark6;
position = "{0, 0}";
}
);
layerId = UUID0;
paths = (
{
closed = 1;
nodes = (
"83 27 LINE SMOOTH",
"83 9 OFFCURVE",
"91 0 OFFCURVE",
"107 0 CURVE SMOOTH",
"152 0 LINE SMOOTH",
"169 0 OFFCURVE",
"177 9 OFFCURVE",
"177 27 CURVE SMOOTH",
"177 281 LINE",
"313 281 LINE SMOOTH",
"540 281 OFFCURVE",
"595 367 OFFCURVE",
"595 491 CURVE SMOOTH",
"595 617 OFFCURVE",
"540 700 OFFCURVE",
"313 700 CURVE SMOOTH",
"107 700 LINE SMOOTH",
"91 700 OFFCURVE",
"83 691 OFFCURVE",
"83 673 CURVE SMOOTH"
);
},
{
closed = 1;
nodes = (
"177 361 LINE",
"177 620 LINE",
"314 620 LINE SMOOTH",
"464 620 OFFCURVE",
"500 576 OFFCURVE",
"500 491 CURVE SMOOTH",
"500 402 OFFCURVE",
"459 361 OFFCURVE",
"314 361 CURVE SMOOTH"
);
}
);
width = 639;
},
{
anchors = (
{
name = mark0;
position = "{0, 0}";
},
{
name = mark1;
position = "{320, 0}";
},
{
name = mark2;
position = "{320, 717}";
},
{
name = mark3;
position = "{0, 0}";
},
{
name = mark4;
position = "{0, 0}";
}
);
layerId = "7D4B8FA6-1CBF-4C70-BCBE-1433105F567F";
paths = (
{
closed = 1;
nodes = (
"78 37 LINE SMOOTH",
"78 12 OFFCURVE",
"89 0 OFFCURVE",
"112 0 CURVE SMOOTH",
"187 0 LINE SMOOTH",
"210 0 OFFCURVE",
"221 12 OFFCURVE",
"221 37 CURVE SMOOTH",
"221 262 LINE",
"295 262 LINE SMOOTH",
"531 262 OFFCURVE",
"607 342 OFFCURVE",
"607 481 CURVE SMOOTH",
"607 620 OFFCURVE",
"531 700 OFFCURVE",
"295 700 CURVE SMOOTH",
"112 700 LINE SMOOTH",
"89 700 OFFCURVE",
"78 688 OFFCURVE",
"78 664 CURVE SMOOTH"
);
},
{
closed = 1;
nodes = (
"221 381 LINE",
"221 581 LINE",
"294 581 LINE SMOOTH",
"426 581 OFFCURVE",
"462 553 OFFCURVE",
"462 481 CURVE SMOOTH",
"462 408 OFFCURVE",
"425 381 OFFCURVE",
"294 381 CURVE SMOOTH"
);
}
);
width = 648;
}
);
unicode = 0050;
},
{
glyphname = Thorn;
lastChange = "2016-10-15 04:12:12 +0000";
layers = (
{
layerId = UUID0;
paths = (
{
closed = 1;
nodes = (
"83 23 LINE SMOOTH",
"83 5 OFFCURVE",
"91 -4 OFFCURVE",
"107 -4 CURVE SMOOTH",
"152 -4 LINE SMOOTH",
"169 -4 OFFCURVE",
"177 5 OFFCURVE",
"177 23 CURVE SMOOTH",
"177 164 LINE",
"273 164 LINE SMOOTH",
"470 164 OFFCURVE",
"562 228 OFFCURVE",
"562 369 CURVE SMOOTH",
"562 510 OFFCURVE",
"470 574 OFFCURVE",
"273 574 CURVE SMOOTH",
"177 574 LINE",
"177 674 LINE SMOOTH",
"177 692 OFFCURVE",
"169 701 OFFCURVE",
"152 701 CURVE SMOOTH",
"107 701 LINE SMOOTH",
"91 701 OFFCURVE",
"83 692 OFFCURVE",
"83 674 CURVE SMOOTH"
);
},
{
closed = 1;
nodes = (
"177 244 LINE",
"177 494 LINE",
"282 494 LINE SMOOTH",
"395 494 OFFCURVE",
"461 470 OFFCURVE",
"461 369 CURVE SMOOTH",
"461 268 OFFCURVE",
"395 244 OFFCURVE",
"282 244 CURVE SMOOTH"
);
}
);
width = 607;
},
{
layerId = "7D4B8FA6-1CBF-4C70-BCBE-1433105F567F";
paths = (
{
closed = 1;
nodes = (
"78 31 LINE SMOOTH",
"78 7 OFFCURVE",
"89 -5 OFFCURVE",
"112 -5 CURVE SMOOTH",
"187 -5 LINE SMOOTH",
"210 -5 OFFCURVE",
"221 7 OFFCURVE",
"221 31 CURVE SMOOTH",
"221 147 LINE",
"297 147 LINE SMOOTH",
"502 147 OFFCURVE",
"597 222 OFFCURVE",
"597 366 CURVE SMOOTH",
"597 511 OFFCURVE",
"502 585 OFFCURVE",
"297 585 CURVE SMOOTH",
"221 585 LINE",
"221 666 LINE SMOOTH",
"221 690 OFFCURVE",
"210 702 OFFCURVE",
"187 702 CURVE SMOOTH",
"112 702 LINE SMOOTH",
"89 702 OFFCURVE",
"78 690 OFFCURVE",
"78 666 CURVE SMOOTH"
);
},
{
closed = 1;
nodes = (
"221 267 LINE",
"221 466 LINE",
"300 466 LINE SMOOTH",
"405 466 OFFCURVE",
"449 438 OFFCURVE",
"449 366 CURVE SMOOTH",
"449 294 OFFCURVE",
"405 267 OFFCURVE",
"300 267 CURVE SMOOTH"
);
}
);
width = 641;
}
);
unicode = 00DE;
},
{
glyphname = Q;
lastChange = "2016-10-15 04:12:12 +0000";
layers = (
{
anchors = (
{
name = mark0;
position = "{0, 0}";
},
{
name = mark1;
position = "{0, 0}";
},
{
name = mark2;
position = "{0, 0}";
},
{
name = mark3;
position = "{372, -195}";
},
{
name = mark4;
position = "{372, 715}";
},
{
name = mark5;
position = "{0, 0}";
},
{
name = mark6;
position = "{0, 0}";
}
);
layerId = UUID0;
paths = (
{
closed = 1;
nodes = (
"73 554 OFFCURVE",
"45 465 OFFCURVE",
"45 351 CURVE SMOOTH",
"45 143 OFFCURVE",
"143 4 OFFCURVE",
"330 -13 CURVE",
"336 -102 OFFCURVE",
"388 -184 OFFCURVE",
"529 -184 CURVE SMOOTH",
"559 -184 OFFCURVE",
"622 -180 OFFCURVE",
"626 -163 CURVE",
"616 -116 LINE SMOOTH",
"615 -111 OFFCURVE",
"612 -109 OFFCURVE",
"605 -109 CURVE SMOOTH",
"595 -109 OFFCURVE",
"570 -116 OFFCURVE",
"545 -116 CURVE SMOOTH",
"472 -116 OFFCURVE",
"430 -77 OFFCURVE",
"423 -12 CURVE",
"604 8 OFFCURVE",
"699 146 OFFCURVE",
"699 350 CURVE SMOOTH",
"699 576 OFFCURVE",
"585 715 OFFCURVE",
"372 715 CURVE SMOOTH",
"266 715 OFFCURVE",
"185 683 OFFCURVE",
"129 618 CURVE SMOOTH"
);
},
{
closed = 1;
nodes = (
"164 188 OFFCURVE",
"145 259 OFFCURVE",
"145 350 CURVE SMOOTH",
"145 533 OFFCURVE",
"221 639 OFFCURVE",
"372 639 CURVE SMOOTH",
"521 639 OFFCURVE",
"599 536 OFFCURVE",
"599 350 CURVE SMOOTH",
"599 166 OFFCURVE",
"524 62 OFFCURVE",
"372 62 CURVE SMOOTH",
"296 62 OFFCURVE",
"239 87 OFFCURVE",
"201 137 CURVE"
);
}
);
width = 744;
},
{
anchors = (
{
name = mark0;
position = "{0, 0}";
},
{
name = mark1;
position = "{377, -195}";
},
{
name = mark2;
position = "{377, 717}";
},
{
name = mark3;
position = "{0, 0}";
},
{
name = mark4;
position = "{0, 0}";
}
);
layerId = "7D4B8FA6-1CBF-4C70-BCBE-1433105F567F";
paths = (
{
closed = 1;
nodes = (
"71 552 OFFCURVE",
"42 463 OFFCURVE",
"42 350 CURVE SMOOTH",
"42 151 OFFCURVE",
"140 14 OFFCURVE",
"306 -11 CURVE",
"312 -109 OFFCURVE",
"351 -199 OFFCURVE",
"529 -199 CURVE SMOOTH",
"546 -199 OFFCURVE",
"640 -192 OFFCURVE",
"640 -165 CURVE SMOOTH",
"640 -162 OFFCURVE",
"640 -160 OFFCURVE",
"639 -159 CURVE",
"625 -103 LINE",
"624 -94 OFFCURVE",
"619 -90 OFFCURVE",
"609 -90 CURVE",
"597 -92 LINE SMOOTH",
"576 -97 OFFCURVE",
"559 -99 OFFCURVE",
"545 -99 CURVE SMOOTH",
"476 -99 OFFCURVE",
"455 -76 OFFCURVE",
"449 -11 CURVE",
"619 16 OFFCURVE",
"712 154 OFFCURVE",
"712 350 CURVE SMOOTH",
"712 574 OFFCURVE",
"592 717 OFFCURVE",
"377 717 CURVE SMOOTH",
"270 717 OFFCURVE",
"187 684 OFFCURVE",
"129 618 CURVE SMOOTH"
);
},
{
closed = 1;
nodes = (
"255 99 OFFCURVE",
"194 183 OFFCURVE",
"194 350 CURVE SMOOTH",
"194 517 OFFCURVE",
"252 602 OFFCURVE",
"377 602 CURVE SMOOTH",
"502 602 OFFCURVE",
"560 517 OFFCURVE",
"560 350 CURVE SMOOTH",
"560 183 OFFCURVE",
"499 99 OFFCURVE",
"377 99 CURVE SMOOTH"
);
}
);
width = 754;
}
);
unicode = 0051;
},
{
glyphname = R;
lastChange = "2016-10-15 04:12:12 +0000";
layers = (
{
anchors = (
{
name = mark0;
position = "{0, 0}";
},
{
name = mark1;
position = "{0, 0}";
},
{
name = mark2;
position = "{0, 0}";
},
{
name = mark3;
position = "{317, 0}";
},
{
name = mark4;
position = "{317, 715}";
},
{
name = mark5;
position = "{0, 0}";
},
{
name = mark6;
position = "{0, 0}";
}
);
layerId = UUID0;
paths = (
{
closed = 1;
nodes = (
"83 27 LINE SMOOTH",
"83 9 OFFCURVE",
"91 0 OFFCURVE",
"107 0 CURVE SMOOTH",
"152 0 LINE SMOOTH",
"169 0 OFFCURVE",
"177 9 OFFCURVE",
"177 27 CURVE SMOOTH",
"177 303 LINE",
"262 303 LINE SMOOTH",
"341 303 OFFCURVE",
"397 245 OFFCURVE",
"427 193 CURVE SMOOTH",
"528 19 LINE SMOOTH",
"536 6 OFFCURVE",
"548 0 OFFCURVE",
"563 0 CURVE SMOOTH",
"618 0 LINE SMOOTH",
"629 0 OFFCURVE",
"635 4 OFFCURVE",
"635 11 CURVE SMOOTH",
"635 16 OFFCURVE",
"632 23 OFFCURVE",
"627 32 CURVE SMOOTH",
"517 211 LINE SMOOTH",
"488 258 OFFCURVE",
"487 266 OFFCURVE",
"415 320 CURVE",
"415 321 LINE",
"539 331 OFFCURVE",
"611 407 OFFCURVE",
"611 508 CURVE SMOOTH",
"611 619 OFFCURVE",
"536 700 OFFCURVE",
"343 700 CURVE SMOOTH",
"107 700 LINE SMOOTH",
"91 700 OFFCURVE",
"83 691 OFFCURVE",
"83 673 CURVE SMOOTH"
);
},
{
closed = 1;
nodes = (
"177 383 LINE",
"177 620 LINE",
"341 620 LINE SMOOTH",
"451 620 OFFCURVE",
"516 596 OFFCURVE",
"516 514 CURVE SMOOTH",
"516 403 OFFCURVE",
"439 383 OFFCURVE",
"318 383 CURVE SMOOTH"
);
}
);
width = 681;
},
{
anchors = (
{
name = mark0;
position = "{0, 0}";
},
{
name = mark1;
position = "{320, 0}";
},
{
name = mark2;
position = "{320, 717}";
},
{
name = mark3;
position = "{0, 0}";
},
{
name = mark4;
position = "{0, 0}";
}
);
layerId = "7D4B8FA6-1CBF-4C70-BCBE-1433105F567F";
paths = (
{
closed = 1;
nodes = (
"78 37 LINE SMOOTH",
"78 12 OFFCURVE",
"89 0 OFFCURVE",
"112 0 CURVE SMOOTH",
"187 0 LINE SMOOTH",
"210 0 OFFCURVE",
"221 12 OFFCURVE",
"221 37 CURVE SMOOTH",
"221 283 LINE",
"257 283 LINE SMOOTH",
"310 283 OFFCURVE",
"383 224 OFFCURVE",
"400 193 CURVE",
"499 29 LINE SMOOTH",
"510 10 OFFCURVE",
"525 0 OFFCURVE",
"543 0 CURVE SMOOTH",
"628 0 LINE SMOOTH",
"647 0 OFFCURVE",
"657 5 OFFCURVE",
"657 16 CURVE SMOOTH",
"657 23 OFFCURVE",
"653 31 OFFCURVE",
"646 42 CURVE SMOOTH",
"539 211 LINE SMOOTH",
"523 236 OFFCURVE",
"495 290 OFFCURVE",
"429 315 CURVE",
"429 316 LINE",
"537 335 OFFCURVE",
"628 393 OFFCURVE",
"628 502 CURVE SMOOTH",
"628 644 OFFCURVE",
"538 700 OFFCURVE",
"338 700 CURVE SMOOTH",
"112 700 LINE SMOOTH",
"89 700 OFFCURVE",
"78 688 OFFCURVE",
"78 664 CURVE SMOOTH"
);
},
{
closed = 1;
nodes = (
"221 404 LINE",
"221 581 LINE",
"332 581 LINE SMOOTH",
"438 581 OFFCURVE",
"488 566 OFFCURVE",
"488 497 CURVE SMOOTH",
"488 432 OFFCURVE",
"439 404 OFFCURVE",
"308 404 CURVE SMOOTH"
);
}
);
width = 697;
}
);
unicode = 0052;
},
{
glyphname = S;
lastChange = "2016-10-15 04:12:12 +0000";
layers = (
{
anchors = (
{
name = mark0;
position = "{0, 0}";
},
{
name = mark1;
position = "{0, 0}";
},
{
name = mark2;
position = "{0, 0}";
},
{
name = mark3;
position = "{302, 0}";
},
{
name = mark4;
position = "{305, 715}";
},
{
name = mark5;
position = "{0, 0}";
},
{
name = mark6;
position = "{0, 0}";
}
);
layerId = UUID0;
paths = (
{
closed = 1;
nodes = (
"63 47 OFFCURVE",
"164 -15 OFFCURVE",
"314 -15 CURVE SMOOTH",
"457 -15 OFFCURVE",
"557 47 OFFCURVE",
"557 184 CURVE SMOOTH",
"557 281 OFFCURVE",
"503 359 OFFCURVE",
"337 402 CURVE",
"203 443 OFFCURVE",
"179 455 OFFCURVE",
"179 535 CURVE SMOOTH",
"179 605 OFFCURVE",
"232 638 OFFCURVE",
"318 638 CURVE SMOOTH",
"401 638 OFFCURVE",
"464 576 OFFCURVE",
"481 576 CURVE SMOOTH",
"486 576 OFFCURVE",
"491 578 OFFCURVE",
"494 583 CURVE SMOOTH",
"519 619 LINE SMOOTH",
"522 624 OFFCURVE",
"524 629 OFFCURVE",
"524 632 CURVE SMOOTH",
"524 641 OFFCURVE",
"518 649 OFFCURVE",
"507 657 CURVE SMOOTH",
"451 696 OFFCURVE",
"388 715 OFFCURVE",
"317 715 CURVE SMOOTH",
"220 715 OFFCURVE",
"85 675 OFFCURVE",
"85 534 CURVE SMOOTH",
"85 420 OFFCURVE",
"129 363 OFFCURVE",
"302 311 CURVE",
"415 273 OFFCURVE",
"433 266 OFFCURVE",
"450 219 CURVE SMOOTH",
"455 206 OFFCURVE",
"458 191 OFFCURVE",
"458 172 CURVE SMOOTH",
"457 104 OFFCURVE",
"402 62 OFFCURVE",
"317 62 CURVE SMOOTH",
"237 62 OFFCURVE",
"191 87 OFFCURVE",
"135 127 CURVE SMOOTH",
"124 134 OFFCURVE",
"116 139 OFFCURVE",
"109 139 CURVE SMOOTH",
"102 139 OFFCURVE",
"97 136 OFFCURVE",
"93 130 CURVE SMOOTH",
"67 94 LINE SMOOTH",
"64 89 OFFCURVE",
"63 85 OFFCURVE",
"63 82 CURVE SMOOTH"
);
}
);
width = 598;
},
{
anchors = (
{
name = mark0;
position = "{0, 0}";
},
{
name = mark1;
position = "{310, 0}";
},
{
name = mark2;
position = "{324, 717}";
},
{
name = mark3;
position = "{0, 0}";
},
{
name = mark4;
position = "{0, 0}";
}
);
layerId = "7D4B8FA6-1CBF-4C70-BCBE-1433105F567F";
paths = (
{
closed = 1;
nodes = (
"67 51 OFFCURVE",
"143 13 OFFCURVE",
"188 0 CURVE SMOOTH",
"224 -11 OFFCURVE",
"270 -17 OFFCURVE",
"326 -17 CURVE SMOOTH",
"418 -17 OFFCURVE",
"604 16 OFFCURVE",
"604 193 CURVE SMOOTH",
"604 345 OFFCURVE",
"516 379 OFFCURVE",
"344 432 CURVE",
"299 447 LINE",
"257 459 OFFCURVE",
"222 479 OFFCURVE",
"222 527 CURVE SMOOTH",
"222 589 OFFCURVE",
"286 602 OFFCURVE",
"336 602 CURVE SMOOTH",
"391 602 OFFCURVE",
"458 561 OFFCURVE",
"473 551 CURVE SMOOTH",
"482 544 OFFCURVE",
"492 541 OFFCURVE",
"501 541 CURVE SMOOTH",
"511 541 OFFCURVE",
"519 546 OFFCURVE",
"526 555 CURVE SMOOTH",
"566 608 LINE SMOOTH",
"569 613 OFFCURVE",
"571 618 OFFCURVE",
"571 623 CURVE SMOOTH",
"571 670 OFFCURVE",
"436 717 OFFCURVE",
"339 717 CURVE SMOOTH",
"241 717 OFFCURVE",
"79 682 OFFCURVE",
"79 525 CURVE SMOOTH",
"79 361 OFFCURVE",
"228 321 OFFCURVE",
"316 299 CURVE",
"397 276 OFFCURVE",
"459 255 OFFCURVE",
"459 190 CURVE SMOOTH",
"459 127 OFFCURVE",
"414 99 OFFCURVE",
"328 99 CURVE SMOOTH",
"267 99 OFFCURVE",
"211 126 OFFCURVE",
"164 158 CURVE SMOOTH",
"153 166 OFFCURVE",
"143 170 OFFCURVE",
"134 170 CURVE SMOOTH",
"125 170 OFFCURVE",
"116 165 OFFCURVE",
"109 155 CURVE SMOOTH",
"72 99 LINE",
"69 92 OFFCURVE",
"67 87 OFFCURVE",
"67 82 CURVE SMOOTH"
);
}
);
width = 639;
}
);
unicode = 0053;
},
{
glyphname = Germandbls;
lastChange = "2016-10-15 04:12:42 +0000";
layers = (
{
layerId = UUID0;
paths = (
{
closed = 1;
nodes = (
"83 27 LINE SMOOTH",
"83 9 OFFCURVE",
"91 0 OFFCURVE",
"107 0 CURVE SMOOTH",
"152 0 LINE SMOOTH",
"169 0 OFFCURVE",
"177 9 OFFCURVE",
"177 27 CURVE SMOOTH",
"177 465 LINE SMOOTH",
"177 592 OFFCURVE",
"255 639 OFFCURVE",
"342 639 CURVE SMOOTH",
"386 639 OFFCURVE",
"415 635 OFFCURVE",
"450 600 CURVE",
"450 598 LINE",
"296 398 LINE SMOOTH",
"290 391 OFFCURVE",
"287 384 OFFCURVE",
"287 376 CURVE SMOOTH",
"287 372 OFFCURVE",
"288 368 OFFCURVE",
"290 364 CURVE SMOOTH",
"301 340 LINE",
"305 329 OFFCURVE",
"313 324 OFFCURVE",
"326 324 CURVE",
"413 320 OFFCURVE",
"484 288 OFFCURVE",
"484 191 CURVE SMOOTH",
"484 106 OFFCURVE",
"446 62 OFFCURVE",
"378 62 CURVE SMOOTH",
"322 62 OFFCURVE",
"297 89 OFFCURVE",
"281 89 CURVE SMOOTH",
"274 89 OFFCURVE",
"268 85 OFFCURVE",
"264 78 CURVE SMOOTH",
"243 43 LINE SMOOTH",
"240 38 OFFCURVE",
"239 34 OFFCURVE",
"239 31 CURVE SMOOTH",
"239 -4 OFFCURVE",
"332 -15 OFFCURVE",
"383 -15 CURVE SMOOTH",
"513 -15 OFFCURVE",
"584 69 OFFCURVE",
"584 184 CURVE SMOOTH",
"584 288 OFFCURVE",
"528 368 OFFCURVE",
"403 390 CURVE",
"403 392 LINE",
"542 574 LINE SMOOTH",
"547 581 OFFCURVE",
"550 592 OFFCURVE",
"550 606 CURVE SMOOTH",
"550 631 OFFCURVE",
"484 715 OFFCURVE",
"352 715 CURVE SMOOTH",
"195 715 OFFCURVE",
"83 644 OFFCURVE",
"83 434 CURVE SMOOTH"
);
}
);
width = 638;
},
{
layerId = "7D4B8FA6-1CBF-4C70-BCBE-1433105F567F";
paths = (
{
closed = 1;
nodes = (
"78 37 LINE SMOOTH",
"78 12 OFFCURVE",
"89 0 OFFCURVE",
"112 0 CURVE SMOOTH",
"187 0 LINE SMOOTH",
"210 0 OFFCURVE",
"221 12 OFFCURVE",
"221 37 CURVE SMOOTH",
"221 426 LINE SMOOTH",
"221 573 OFFCURVE",
"309 602 OFFCURVE",
"381 602 CURVE SMOOTH",
"404 602 OFFCURVE",
"425 588 OFFCURVE",
"436 568 CURVE",
"326 401 LINE SMOOTH",
"320 392 OFFCURVE",
"317 384 OFFCURVE",
"317 375 CURVE SMOOTH",
"317 370 OFFCURVE",
"319 364 OFFCURVE",
"322 357 CURVE SMOOTH",
"333 336 LINE SMOOTH",
"340 322 OFFCURVE",
"349 315 OFFCURVE",
"366 314 CURVE SMOOTH",
"458 307 OFFCURVE",
"489 256 OFFCURVE",
"489 191 CURVE SMOOTH",
"489 123 OFFCURVE",
"452 99 OFFCURVE",
"408 99 CURVE SMOOTH",
"358 99 OFFCURVE",
"330 127 OFFCURVE",
"313 127 CURVE SMOOTH",
"306 127 OFFCURVE",
"301 123 OFFCURVE",
"298 115 CURVE SMOOTH",
"271 43 LINE",
"270 38 OFFCURVE",
"269 34 OFFCURVE",
"269 32 CURVE SMOOTH",
"269 -3 OFFCURVE",
"364 -17 OFFCURVE",
"417 -17 CURVE SMOOTH",
"543 -17 OFFCURVE",
"637 61 OFFCURVE",
"637 193 CURVE SMOOTH",
"637 283 OFFCURVE",
"598 366 OFFCURVE",
"479 396 CURVE",
"590 561 LINE SMOOTH",
"598 573 OFFCURVE",
"602 585 OFFCURVE",
"602 598 CURVE SMOOTH",
"602 646 OFFCURVE",
"511 717 OFFCURVE",
"386 717 CURVE SMOOTH",
"216 717 OFFCURVE",
"78 637 OFFCURVE",
"78 395 CURVE SMOOTH"
);
}
);
width = 688;
}
);
unicode = 1E9E;
},
{
glyphname = T;
lastChange = "2016-10-15 04:12:12 +0000";
layers = (
{
anchors = (
{
name = mark0;
position = "{0, 0}";
},
{
name = mark1;
position = "{0, 0}";
},
{
name = mark2;
position = "{0, 0}";
},
{
name = mark3;
position = "{303, 0}";
},
{
name = mark4;
position = "{303, 715}";
},
{
name = mark5;
position = "{0, 0}";
},
{
name = mark6;
position = "{0, 0}";
}
);
layerId = UUID0;
paths = (
{
closed = 1;
nodes = (
"18 638 LINE SMOOTH",
"18 623 OFFCURVE",
"27 616 OFFCURVE",
"44 616 CURVE SMOOTH",
"256 616 LINE",
"256 27 LINE SMOOTH",
"256 9 OFFCURVE",
"264 0 OFFCURVE",
"280 0 CURVE SMOOTH",
"325 0 LINE SMOOTH",
"342 0 OFFCURVE",
"350 9 OFFCURVE",
"350 27 CURVE SMOOTH",
"350 616 LINE",
"561 616 LINE SMOOTH",
"579 616 OFFCURVE",
"588 623 OFFCURVE",
"588 638 CURVE SMOOTH",
"588 678 LINE SMOOTH",
"588 693 OFFCURVE",
"579 700 OFFCURVE",
"561 700 CURVE SMOOTH",
"44 700 LINE SMOOTH",
"27 700 OFFCURVE",
"18 693 OFFCURVE",
"18 678 CURVE SMOOTH"
);
}
);
width = 605;
},
{
anchors = (
{
name = mark0;
position = "{0, 0}";
},
{
name = mark1;
position = "{304, 0}";
},
{
name = mark2;
position = "{304, 717}";
},
{
name = mark3;
position = "{0, 0}";
},
{
name = mark4;
position = "{0, 0}";
}
);
layerId = "7D4B8FA6-1CBF-4C70-BCBE-1433105F567F";
paths = (
{
closed = 1;
nodes = (
"17 607 LINE SMOOTH",
"17 586 OFFCURVE",
"29 575 OFFCURVE",
"53 575 CURVE SMOOTH",
"233 575 LINE",
"233 27 LINE SMOOTH",
"233 9 OFFCURVE",
"241 0 OFFCURVE",
"257 0 CURVE SMOOTH",
"351 0 LINE SMOOTH",
"367 0 OFFCURVE",
"375 9 OFFCURVE",
"375 27 CURVE SMOOTH",
"375 575 LINE",
"555 575 LINE SMOOTH",
"580 575 OFFCURVE",
"592 586 OFFCURVE",
"592 607 CURVE SMOOTH",
"592 668 LINE SMOOTH",
"592 689 OFFCURVE",
"580 700 OFFCURVE",
"555 700 CURVE SMOOTH",
"53 700 LINE SMOOTH",
"29 700 OFFCURVE",
"17 689 OFFCURVE",
"17 668 CURVE SMOOTH"
);
}
);
width = 608;
}
);
unicode = 0054;
},
{
glyphname = Tonetwo;
lastChange = "2016-10-15 04:12:42 +0000";
layers = (
{
layerId = UUID0;
paths = (
{
closed = 1;
nodes = (
"56 233 OFFCURVE",
"53 210 OFFCURVE",
"53 184 CURVE SMOOTH",
"53 35 OFFCURVE",
"168 -15 OFFCURVE",
"295 -15 CURVE SMOOTH",
"458 -15 OFFCURVE",
"546 51 OFFCURVE",
"546 82 CURVE SMOOTH",
"546 87 OFFCURVE",
"545 91 OFFCURVE",
"542 94 CURVE SMOOTH",
"517 130 LINE SMOOTH",
"513 136 OFFCURVE",
"508 139 OFFCURVE",
"501 139 CURVE SMOOTH",
"485 139 OFFCURVE",
"426 93 OFFCURVE",
"394 80 CURVE SMOOTH",
"365 68 OFFCURVE",
"332 62 OFFCURVE",
"293 62 CURVE SMOOTH",
"209 62 OFFCURVE",
"152 104 OFFCURVE",
"152 172 CURVE SMOOTH",
"152 255 OFFCURVE",
"188 272 OFFCURVE",
"307 311 CURVE",
"471 360 OFFCURVE",
"524 411 OFFCURVE",
"524 534 CURVE SMOOTH",
"524 670 OFFCURVE",
"402 715 OFFCURVE",
"293 715 CURVE SMOOTH",
"221 715 OFFCURVE",
"158 696 OFFCURVE",
"103 657 CURVE SMOOTH",
"92 649 OFFCURVE",
"86 641 OFFCURVE",
"86 632 CURVE SMOOTH",
"86 629 OFFCURVE",
"88 624 OFFCURVE",
"91 619 CURVE SMOOTH",
"116 583 LINE SMOOTH",
"119 578 OFFCURVE",
"124 576 OFFCURVE",
"129 576 CURVE SMOOTH",
"145 576 OFFCURVE",
"164 597 OFFCURVE",
"221 623 CURVE SMOOTH",
"244 633 OFFCURVE",
"270 638 OFFCURVE",
"292 638 CURVE SMOOTH",
"380 638 OFFCURVE",
"431 602 OFFCURVE",
"431 535 CURVE SMOOTH",
"431 460 OFFCURVE",
"410 445 OFFCURVE",
"272 402 CURVE",
"151 370 OFFCURVE",
"92 325 OFFCURVE",
"63 252 CURVE SMOOTH"
);
}
);
width = 598;
},
{
layerId = "7D4B8FA6-1CBF-4C70-BCBE-1433105F567F";
paths = (
{
closed = 1;
nodes = (
"55 260 OFFCURVE",
"50 230 OFFCURVE",
"50 193 CURVE SMOOTH",
"50 15 OFFCURVE",
"235 -17 OFFCURVE",
"329 -17 CURVE SMOOTH",
"440 -17 OFFCURVE",
"505 5 OFFCURVE",
"568 52 CURVE SMOOTH",
"581 62 OFFCURVE",
"588 72 OFFCURVE",
"588 83 CURVE SMOOTH",
"588 88 OFFCURVE",
"586 94 OFFCURVE",
"583 99 CURVE SMOOTH",
"545 155 LINE SMOOTH",
"539 165 OFFCURVE",
"531 170 OFFCURVE",
"521 170 CURVE SMOOTH",
"502 170 OFFCURVE",
"455 135 OFFCURVE",
"419 119 CURVE SMOOTH",
"391 106 OFFCURVE",
"362 99 OFFCURVE",
"326 99 CURVE SMOOTH",
"249 99 OFFCURVE",
"195 123 OFFCURVE",
"195 190 CURVE SMOOTH",
"195 288 OFFCURVE",
"350 297 OFFCURVE",
"430 329 CURVE SMOOTH",
"518 364 OFFCURVE",
"575 423 OFFCURVE",
"575 525 CURVE SMOOTH",
"575 681 OFFCURVE",
"416 717 OFFCURVE",
"315 717 CURVE SMOOTH",
"226 717 OFFCURVE",
"83 673 OFFCURVE",
"83 623 CURVE SMOOTH",
"83 618 OFFCURVE",
"85 613 OFFCURVE",
"88 608 CURVE SMOOTH",
"128 555 LINE SMOOTH",
"135 546 OFFCURVE",
"143 541 OFFCURVE",
"153 541 CURVE SMOOTH",
"172 541 OFFCURVE",
"189 558 OFFCURVE",
"240 583 CURVE SMOOTH",
"265 596 OFFCURVE",
"290 602 OFFCURVE",
"318 602 CURVE SMOOTH",
"381 602 OFFCURVE",
"433 581 OFFCURVE",
"433 527 CURVE SMOOTH",
"433 476 OFFCURVE",
"377 451 OFFCURVE",
"355 447 CURVE",
"131 378 OFFCURVE",
"98 356 OFFCURVE",
"66 284 CURVE SMOOTH"
);
}
);
width = 639;
}
);
unicode = 01A7;
},
{
glyphname = U;
lastChange = "2016-10-15 04:12:12 +0000";
layers = (
{
anchors = (
{
name = mark0;
position = "{342, 0}";
},
{
name = mark1;
position = "{0, 0}";
},
{
name = mark2;
position = "{0, 0}";
},
{
name = mark3;
position = "{342, 0}";
},
{
name = mark4;
position = "{342, 715}";
},
{
name = mark5;
position = "{0, 0}";
},
{
name = mark6;
position = "{0, 0}";
}
);
layerId = UUID0;
paths = (
{
closed = 1;
nodes = (
"83 267 LINE SMOOTH",
"83 55 OFFCURVE",
"190 -15 OFFCURVE",
"342 -15 CURVE SMOOTH",
"496 -15 OFFCURVE",
"602 59 OFFCURVE",
"602 267 CURVE SMOOTH",
"602 673 LINE SMOOTH",
"602 691 OFFCURVE",
"594 700 OFFCURVE",
"577 700 CURVE SMOOTH",
"532 700 LINE SMOOTH",
"516 700 OFFCURVE",
"508 691 OFFCURVE",
"508 673 CURVE SMOOTH",
"508 282 LINE SMOOTH",
"508 99 OFFCURVE",
"461 62 OFFCURVE",
"342 62 CURVE SMOOTH",
"225 62 OFFCURVE",
"177 94 OFFCURVE",
"177 282 CURVE SMOOTH",
"177 673 LINE SMOOTH",
"177 691 OFFCURVE",
"169 700 OFFCURVE",
"152 700 CURVE SMOOTH",
"107 700 LINE SMOOTH",
"91 700 OFFCURVE",
"83 691 OFFCURVE",
"83 673 CURVE SMOOTH"
);
}
);
width = 685;
},
{
anchors = (
{
name = mark0;
position = "{347, 0}";
},
{
name = mark1;
position = "{347, 0}";
},
{
name = mark2;
position = "{347, 717}";
},
{
name = mark3;
position = "{0, 0}";
},
{
name = mark4;
position = "{0, 0}";
}
);
layerId = "7D4B8FA6-1CBF-4C70-BCBE-1433105F567F";
paths = (
{
closed = 1;
nodes = (
"78 292 LINE SMOOTH",
"78 59 OFFCURVE",
"186 -17 OFFCURVE",
"347 -17 CURVE SMOOTH",
"511 -17 OFFCURVE",
"616 61 OFFCURVE",
"616 292 CURVE SMOOTH",
"616 673 LINE SMOOTH",
"616 691 OFFCURVE",
"605 700 OFFCURVE",
"582 700 CURVE SMOOTH",
"508 700 LINE SMOOTH",
"485 700 OFFCURVE",
"474 691 OFFCURVE",
"474 673 CURVE SMOOTH",
"474 296 LINE SMOOTH",
"474 120 OFFCURVE",
"413 99 OFFCURVE",
"347 99 CURVE SMOOTH",
"314 99 OFFCURVE",
"284 110 OFFCURVE",
"259 131 CURVE SMOOTH",
"234 152 OFFCURVE",
"221 207 OFFCURVE",
"221 296 CURVE SMOOTH",
"221 673 LINE SMOOTH",
"221 691 OFFCURVE",
"210 700 OFFCURVE",
"187 700 CURVE SMOOTH",
"112 700 LINE SMOOTH",
"89 700 OFFCURVE",
"78 691 OFFCURVE",
"78 673 CURVE SMOOTH"
);
}
);
width = 694;
}
);
unicode = 0055;
},
{
glyphname = Ubar;
lastChange = "2016-10-15 04:12:42 +0000";
layers = (
{
layerId = UUID0;
paths = (
{
closed = 1;
nodes = (
"24 336 LINE SMOOTH",
"24 321 OFFCURVE",
"33 314 OFFCURVE",
"51 314 CURVE SMOOTH",
"125 314 LINE",
"125 267 LINE SMOOTH",
"125 57 OFFCURVE",
"229 -15 OFFCURVE",
"384 -15 CURVE SMOOTH",
"536 -15 OFFCURVE",
"643 57 OFFCURVE",
"643 267 CURVE SMOOTH",
"643 314 LINE",
"716 314 LINE SMOOTH",
"734 314 OFFCURVE",
"743 321 OFFCURVE",
"743 336 CURVE SMOOTH",
"743 373 LINE SMOOTH",
"743 388 OFFCURVE",
"734 395 OFFCURVE",
"716 395 CURVE SMOOTH",
"643 395 LINE",
"643 673 LINE SMOOTH",
"643 691 OFFCURVE",
"635 700 OFFCURVE",
"619 700 CURVE SMOOTH",
"574 700 LINE SMOOTH",
"557 700 OFFCURVE",
"549 691 OFFCURVE",
"549 673 CURVE SMOOTH",
"549 395 LINE",
"218 395 LINE",
"218 673 LINE SMOOTH",
"218 691 OFFCURVE",
"210 700 OFFCURVE",
"194 700 CURVE SMOOTH",
"149 700 LINE SMOOTH",
"133 700 OFFCURVE",
"125 691 OFFCURVE",
"125 673 CURVE SMOOTH",
"125 395 LINE",
"51 395 LINE SMOOTH",
"33 395 OFFCURVE",
"24 388 OFFCURVE",
"24 373 CURVE SMOOTH"
);
},
{
closed = 1;
nodes = (
"231 131 OFFCURVE",
"218 191 OFFCURVE",
"218 282 CURVE SMOOTH",
"218 314 LINE",
"549 314 LINE",
"549 282 LINE SMOOTH",
"549 99 OFFCURVE",
"503 62 OFFCURVE",
"384 62 CURVE SMOOTH",
"325 62 OFFCURVE",
"282 76 OFFCURVE",
"257 103 CURVE SMOOTH"
);
}
);
width = 768;
},
{
layerId = "7D4B8FA6-1CBF-4C70-BCBE-1433105F567F";
paths = (
{
closed = 1;
nodes = (
"22 335 LINE SMOOTH",
"22 314 OFFCURVE",
"34 304 OFFCURVE",
"59 304 CURVE SMOOTH",
"124 304 LINE",
"124 292 LINE SMOOTH",
"124 59 OFFCURVE",
"232 -17 OFFCURVE",
"393 -17 CURVE SMOOTH",
"557 -17 OFFCURVE",
"662 61 OFFCURVE",
"662 292 CURVE SMOOTH",
"662 304 LINE",
"727 304 LINE SMOOTH",
"752 304 OFFCURVE",
"764 314 OFFCURVE",
"764 335 CURVE SMOOTH",
"764 393 LINE SMOOTH",
"764 414 OFFCURVE",
"752 425 OFFCURVE",
"727 425 CURVE SMOOTH",
"662 425 LINE",
"662 673 LINE SMOOTH",
"662 691 OFFCURVE",
"651 700 OFFCURVE",
"628 700 CURVE SMOOTH",
"554 700 LINE SMOOTH",
"531 700 OFFCURVE",
"520 691 OFFCURVE",
"520 673 CURVE SMOOTH",
"520 425 LINE",
"267 425 LINE",
"267 673 LINE SMOOTH",
"267 691 OFFCURVE",
"255 700 OFFCURVE",
"232 700 CURVE SMOOTH",
"158 700 LINE SMOOTH",
"135 700 OFFCURVE",
"124 691 OFFCURVE",
"124 673 CURVE SMOOTH",
"124 425 LINE",
"59 425 LINE SMOOTH",
"34 425 OFFCURVE",
"22 414 OFFCURVE",
"22 393 CURVE SMOOTH"
);
},
{
closed = 1;
nodes = (
"280 152 OFFCURVE",
"267 207 OFFCURVE",
"267 296 CURVE SMOOTH",
"267 304 LINE",
"520 304 LINE",
"520 296 LINE SMOOTH",
"520 124 OFFCURVE",
"462 99 OFFCURVE",
"393 99 CURVE SMOOTH",
"360 99 OFFCURVE",
"330 110 OFFCURVE",
"305 131 CURVE SMOOTH"
);
}
);
width = 786;
}
);
unicode = 0244;
},
{
glyphname = V;
lastChange = "2016-10-15 04:12:12 +0000";
layers = (
{
anchors = (
{
name = mark0;
position = "{0, 0}";
},
{
name = mark1;
position = "{0, 0}";
},
{
name = mark2;
position = "{0, 0}";
},
{
name = mark3;
position = "{327, 0}";
},
{
name = mark4;
position = "{326, 715}";
},
{
name = mark5;
position = "{0, 0}";
},
{
name = mark6;
position = "{0, 0}";
}
);
layerId = UUID0;
paths = (
{
closed = 1;
nodes = (
"31 680 OFFCURVE",
"32 674 OFFCURVE",
"35 668 CURVE",
"272 30 LINE SMOOTH",
"279 10 OFFCURVE",
"291 0 OFFCURVE",
"305 0 CURVE SMOOTH",
"373 0 LINE SMOOTH",
"388 0 OFFCURVE",
"397 10 OFFCURVE",
"405 30 CURVE SMOOTH",
"643 668 LINE",
"646 674 OFFCURVE",
"647 680 OFFCURVE",
"647 685 CURVE SMOOTH",
"647 695 OFFCURVE",
"641 700 OFFCURVE",
"630 700 CURVE SMOOTH",
"580 700 LINE SMOOTH",
"563 700 OFFCURVE",
"551 692 OFFCURVE",
"545 676 CURVE SMOOTH",
"373 201 LINE",
"360 162 LINE SMOOTH",
"348 126 OFFCURVE",
"344 100 OFFCURVE",
"340 84 CURVE",
"338 84 LINE",
"335 101 OFFCURVE",
"328 127 OFFCURVE",
"317 162 CURVE SMOOTH",
"292 239 LINE",
"133 676 LINE SMOOTH",
"127 692 OFFCURVE",
"115 700 OFFCURVE",
"98 700 CURVE SMOOTH",
"48 700 LINE SMOOTH",
"37 700 OFFCURVE",
"31 695 OFFCURVE",
"31 685 CURVE SMOOTH"
);
}
);
width = 653;
},
{
anchors = (
{
name = mark0;
position = "{0, 0}";
},
{
name = mark1;
position = "{334, 0}";
},
{
name = mark2;
position = "{334, 717}";
},
{
name = mark3;
position = "{0, 0}";
},
{
name = mark4;
position = "{0, 0}";
}
);
layerId = "7D4B8FA6-1CBF-4C70-BCBE-1433105F567F";
paths = (
{
closed = 1;
nodes = (
"30 678 OFFCURVE",
"31 673 OFFCURVE",
"33 668 CURVE SMOOTH",
"267 40 LINE SMOOTH",
"277 13 OFFCURVE",
"290 0 OFFCURVE",
"313 0 CURVE SMOOTH",
"381 0 LINE SMOOTH",
"402 0 OFFCURVE",
"417 13 OFFCURVE",
"427 40 CURVE SMOOTH",
"660 668 LINE SMOOTH",
"662 674 OFFCURVE",
"663 679 OFFCURVE",
"663 682 CURVE SMOOTH",
"663 694 OFFCURVE",
"654 700 OFFCURVE",
"637 700 CURVE SMOOTH",
"560 700 LINE SMOOTH",
"538 700 OFFCURVE",
"523 689 OFFCURVE",
"515 667 CURVE SMOOTH",
"365 259 LINE",
"352 217 LINE",
"348 182 LINE",
"346 182 LINE",
"343 203 OFFCURVE",
"342 214 OFFCURVE",
"341 217 CURVE SMOOTH",
"328 259 LINE",
"179 667 LINE SMOOTH",
"171 689 OFFCURVE",
"154 700 OFFCURVE",
"134 700 CURVE SMOOTH",
"56 700 LINE SMOOTH",
"39 700 OFFCURVE",
"30 694 OFFCURVE",
"30 682 CURVE SMOOTH"
);
}
);
width = 669;
}
);
unicode = 0056;
},
{
glyphname = Vhook;
lastChange = "2016-10-15 04:12:42 +0000";
layers = (
{
layerId = UUID0;
paths = (
{
closed = 1;
nodes = (
"83 267 LINE SMOOTH",
"83 57 OFFCURVE",
"184 -15 OFFCURVE",
"335 -15 CURVE SMOOTH",
"542 -15 OFFCURVE",
"610 137 OFFCURVE",
"610 366 CURVE SMOOTH",
"610 481 OFFCURVE",
"565 603 OFFCURVE",
"479 699 CURVE SMOOTH",
"471 708 OFFCURVE",
"463 713 OFFCURVE",
"455 713 CURVE SMOOTH",
"448 713 OFFCURVE",
"443 711 OFFCURVE",
"438 706 CURVE SMOOTH",
"399 672 LINE SMOOTH",
"393 667 OFFCURVE",
"390 662 OFFCURVE",
"390 655 CURVE SMOOTH",
"390 641 OFFCURVE",
"446 584 OFFCURVE",
"476 523 CURVE SMOOTH",
"499 477 OFFCURVE",
"510 418 OFFCURVE",
"510 345 CURVE SMOOTH",
"510 156 OFFCURVE",
"453 62 OFFCURVE",
"338 62 CURVE SMOOTH",
"237 62 OFFCURVE",
"177 96 OFFCURVE",
"177 282 CURVE SMOOTH",
"177 673 LINE SMOOTH",
"177 691 OFFCURVE",
"169 700 OFFCURVE",
"152 700 CURVE SMOOTH",
"107 700 LINE SMOOTH",
"91 700 OFFCURVE",
"83 691 OFFCURVE",
"83 673 CURVE SMOOTH"
);
}
);
width = 655;
},
{
layerId = "7D4B8FA6-1CBF-4C70-BCBE-1433105F567F";
paths = (
{
closed = 1;
nodes = (
"78 292 LINE SMOOTH",
"78 61 OFFCURVE",
"173 -17 OFFCURVE",
"350 -17 CURVE SMOOTH",
"571 -17 OFFCURVE",
"630 143 OFFCURVE",
"630 363 CURVE SMOOTH",
"630 482 OFFCURVE",
"594 589 OFFCURVE",
"509 687 CURVE SMOOTH",
"495 702 OFFCURVE",
"481 709 OFFCURVE",
"471 710 CURVE SMOOTH",
"463 710 OFFCURVE",
"456 708 OFFCURVE",
"451 703 CURVE",
"386 651 LINE SMOOTH",
"375 642 OFFCURVE",
"370 634 OFFCURVE",
"370 625 CURVE SMOOTH",
"370 617 OFFCURVE",
"375 607 OFFCURVE",
"384 597 CURVE SMOOTH",
"447 524 OFFCURVE",
"478 440 OFFCURVE",
"478 341 CURVE SMOOTH",
"478 165 OFFCURVE",
"445 99 OFFCURVE",
"351 99 CURVE SMOOTH",
"319 99 OFFCURVE",
"289 110 OFFCURVE",
"262 131 CURVE SMOOTH",
"235 152 OFFCURVE",
"221 207 OFFCURVE",
"221 296 CURVE SMOOTH",
"221 673 LINE SMOOTH",
"221 691 OFFCURVE",
"210 700 OFFCURVE",
"187 700 CURVE SMOOTH",
"112 700 LINE SMOOTH",
"89 700 OFFCURVE",
"78 691 OFFCURVE",
"78 673 CURVE SMOOTH"
);
}
);
width = 672;
}
);
unicode = 01B2;
},
{
glyphname = Vturned;
lastChange = "2016-10-15 04:12:42 +0000";
layers = (
{
layerId = UUID0;
paths = (
{
closed = 1;
nodes = (
"31 5 OFFCURVE",
"37 0 OFFCURVE",
"48 0 CURVE SMOOTH",
"98 0 LINE SMOOTH",
"115 0 OFFCURVE",
"127 8 OFFCURVE",
"133 24 CURVE SMOOTH",
"292 461 LINE",
"317 538 LINE SMOOTH",
"328 571 OFFCURVE",
"333 597 OFFCURVE",
"338 616 CURVE",
"340 616 LINE",
"343 599 OFFCURVE",
"348 573 OFFCURVE",
"360 538 CURVE SMOOTH",
"386 461 LINE",
"545 24 LINE SMOOTH",
"551 8 OFFCURVE",
"563 0 OFFCURVE",
"580 0 CURVE SMOOTH",
"630 0 LINE SMOOTH",
"641 0 OFFCURVE",
"647 5 OFFCURVE",
"647 15 CURVE SMOOTH",
"647 20 OFFCURVE",
"646 26 OFFCURVE",
"643 32 CURVE",
"405 670 LINE SMOOTH",
"397 690 OFFCURVE",
"388 700 OFFCURVE",
"373 700 CURVE SMOOTH",
"305 700 LINE SMOOTH",
"291 700 OFFCURVE",
"279 690 OFFCURVE",
"272 670 CURVE SMOOTH",
"35 32 LINE",
"32 26 OFFCURVE",
"31 20 OFFCURVE",
"31 15 CURVE SMOOTH"
);
}
);
width = 653;
},
{
layerId = "7D4B8FA6-1CBF-4C70-BCBE-1433105F567F";
paths = (
{
closed = 1;
nodes = (
"30 6 OFFCURVE",
"39 0 OFFCURVE",
"56 0 CURVE SMOOTH",
"134 0 LINE SMOOTH",
"154 0 OFFCURVE",
"170 11 OFFCURVE",
"179 34 CURVE SMOOTH",
"328 441 LINE",
"341 483 LINE SMOOTH",
"342 486 OFFCURVE",
"343 497 OFFCURVE",
"346 518 CURVE",
"348 518 LINE",
"352 483 LINE",
"365 441 LINE",
"515 34 LINE SMOOTH",
"523 11 OFFCURVE",
"538 0 OFFCURVE",
"560 0 CURVE SMOOTH",
"637 0 LINE SMOOTH",
"654 0 OFFCURVE",
"663 6 OFFCURVE",
"663 18 CURVE SMOOTH",
"663 21 OFFCURVE",
"662 26 OFFCURVE",
"660 32 CURVE SMOOTH",
"427 661 LINE SMOOTH",
"417 687 OFFCURVE",
"402 700 OFFCURVE",
"381 700 CURVE SMOOTH",
"313 700 LINE SMOOTH",
"291 700 OFFCURVE",
"276 687 OFFCURVE",
"267 661 CURVE SMOOTH",
"33 32 LINE SMOOTH",
"31 27 OFFCURVE",
"30 23 OFFCURVE",
"30 18 CURVE SMOOTH"
);
}
);
width = 669;
}
);
unicode = 0245;
},
{
glyphname = W;
lastChange = "2016-10-15 04:12:12 +0000";
layers = (
{
anchors = (
{
name = mark0;
position = "{0, 0}";
},
{
name = mark1;
position = "{0, 0}";
},
{
name = mark2;
position = "{0, 0}";
},
{
name = mark3;
position = "{461, 0}";
},
{
name = mark4;
position = "{461, 715}";
},
{
name = mark5;
position = "{0, 0}";
},
{
name = mark6;
position = "{0, 0}";
}
);
layerId = UUID0;
paths = (
{
closed = 1;
nodes = (
"29 682 OFFCURVE",
"30 678 OFFCURVE",
"31 671 CURVE",
"199 38 LINE SMOOTH",
"206 13 OFFCURVE",
"218 0 OFFCURVE",
"235 0 CURVE SMOOTH",
"296 0 LINE SMOOTH",
"312 0 OFFCURVE",
"324 14 OFFCURVE",
"331 41 CURVE SMOOTH",
"449 509 LINE SMOOTH",
"455 534 OFFCURVE",
"459 553 OFFCURVE",
"461 567 CURVE SMOOTH",
"469 615 LINE",
"476 567 LINE SMOOTH",
"479 547 OFFCURVE",
"484 528 OFFCURVE",
"489 509 CURVE SMOOTH",
"606 41 LINE SMOOTH",
"613 14 OFFCURVE",
"625 0 OFFCURVE",
"641 0 CURVE SMOOTH",
"702 0 LINE SMOOTH",
"720 0 OFFCURVE",
"731 13 OFFCURVE",
"738 38 CURVE SMOOTH",
"906 671 LINE",
"908 676 OFFCURVE",
"909 681 OFFCURVE",
"909 685 CURVE SMOOTH",
"909 695 OFFCURVE",
"904 700 OFFCURVE",
"894 700 CURVE SMOOTH",
"834 700 LINE SMOOTH",
"823 700 OFFCURVE",
"816 693 OFFCURVE",
"813 678 CURVE SMOOTH",
"695 171 LINE",
"688 146 OFFCURVE",
"681 117 OFFCURVE",
"674 84 CURVE",
"671 84 LINE",
"660 152 OFFCURVE",
"645 214 OFFCURVE",
"645 208 CURVE",
"534 674 LINE SMOOTH",
"530 691 OFFCURVE",
"517 700 OFFCURVE",
"502 700 CURVE SMOOTH",
"435 700 LINE SMOOTH",
"418 700 OFFCURVE",
"408 691 OFFCURVE",
"404 674 CURVE SMOOTH",
"292 208 LINE",
"292 209 OFFCURVE",
"289 195 OFFCURVE",
"282 165 CURVE SMOOTH",
"278 146 OFFCURVE",
"270 108 OFFCURVE",
"266 84 CURVE",
"264 84 LINE",
"256 121 OFFCURVE",
"246 163 OFFCURVE",
"233 208 CURVE",
"125 678 LINE SMOOTH",
"121 693 OFFCURVE",
"113 700 OFFCURVE",
"104 700 CURVE SMOOTH",
"44 700 LINE SMOOTH",
"34 700 OFFCURVE",
"29 695 OFFCURVE",
"29 685 CURVE SMOOTH"
);
}
);
width = 922;
},
{
anchors = (
{
name = mark0;
position = "{0, 0}";
},
{
name = mark1;
position = "{493, 0}";
},
{
name = mark2;
position = "{493, 717}";
},
{
name = mark3;
position = "{0, 0}";
},
{
name = mark4;
position = "{0, 0}";
}
);
layerId = "7D4B8FA6-1CBF-4C70-BCBE-1433105F567F";
paths = (
{
closed = 1;
nodes = (
"30 674 OFFCURVE",
"31 668 OFFCURVE",
"33 661 CURVE SMOOTH",
"199 47 LINE SMOOTH",
"207 16 OFFCURVE",
"222 0 OFFCURVE",
"245 0 CURVE SMOOTH",
"330 0 LINE SMOOTH",
"349 0 OFFCURVE",
"363 16 OFFCURVE",
"372 47 CURVE SMOOTH",
"489 456 LINE SMOOTH",
"496 480 OFFCURVE",
"499 494 OFFCURVE",
"500 499 CURVE SMOOTH",
"505 537 LINE",
"509 499 LINE SMOOTH",
"510 494 OFFCURVE",
"513 480 OFFCURVE",
"520 456 CURVE SMOOTH",
"637 47 LINE SMOOTH",
"646 16 OFFCURVE",
"660 0 OFFCURVE",
"679 0 CURVE SMOOTH",
"764 0 LINE SMOOTH",
"787 0 OFFCURVE",
"802 16 OFFCURVE",
"810 47 CURVE SMOOTH",
"976 661 LINE SMOOTH",
"978 667 OFFCURVE",
"979 673 OFFCURVE",
"979 678 CURVE SMOOTH",
"979 693 OFFCURVE",
"971 700 OFFCURVE",
"954 700 CURVE SMOOTH",
"863 700 LINE SMOOTH",
"848 700 OFFCURVE",
"838 689 OFFCURVE",
"833 668 CURVE SMOOTH",
"726 227 LINE SMOOTH",
"723 214 OFFCURVE",
"722 197 OFFCURVE",
"721 177 CURVE",
"718 177 LINE",
"716 217 OFFCURVE",
"721 217 OFFCURVE",
"699 287 CURVE",
"590 664 LINE SMOOTH",
"583 688 OFFCURVE",
"570 700 OFFCURVE",
"549 700 CURVE SMOOTH",
"459 700 LINE SMOOTH",
"439 700 OFFCURVE",
"425 688 OFFCURVE",
"418 664 CURVE SMOOTH",
"310 287 LINE SMOOTH",
"288 209 OFFCURVE",
"290 189 OFFCURVE",
"291 177 CURVE",
"288 177 LINE",
"285 231 OFFCURVE",
"278 245 OFFCURVE",
"269 284 CURVE SMOOTH",
"176 668 LINE SMOOTH",
"171 689 OFFCURVE",
"161 700 OFFCURVE",
"146 700 CURVE SMOOTH",
"55 700 LINE SMOOTH",
"38 700 OFFCURVE",
"30 693 OFFCURVE",
"30 678 CURVE SMOOTH"
);
}
);
width = 987;
}
);
unicode = 0057;
},
{
glyphname = X;
lastChange = "2016-10-15 04:12:12 +0000";
layers = (
{
anchors = (
{
name = mark0;
position = "{0, 0}";
},
{
name = mark1;
position = "{0, 0}";
},
{
name = mark2;
position = "{0, 0}";
},
{
name = mark3;
position = "{320, 0}";
},
{
name = mark4;
position = "{320, 715}";
},
{
name = mark5;
position = "{0, 0}";
},
{
name = mark6;
position = "{0, 0}";
}
);
layerId = UUID0;
paths = (
{
closed = 1;
nodes = (
"43 4 OFFCURVE",
"49 0 OFFCURVE",
"61 0 CURVE SMOOTH",
"121 0 LINE SMOOTH",
"136 0 OFFCURVE",
"146 6 OFFCURVE",
"155 19 CURVE SMOOTH",
"343 296 LINE",
"530 19 LINE SMOOTH",
"539 6 OFFCURVE",
"550 0 OFFCURVE",
"564 0 CURVE SMOOTH",
"625 0 LINE SMOOTH",
"637 0 OFFCURVE",
"643 4 OFFCURVE",
"643 11 CURVE SMOOTH",
"643 16 OFFCURVE",
"640 23 OFFCURVE",
"634 32 CURVE SMOOTH",
"399 361 LINE",
"617 668 LINE SMOOTH",
"623 677 OFFCURVE",
"626 684 OFFCURVE",
"626 689 CURVE SMOOTH",
"626 696 OFFCURVE",
"620 700 OFFCURVE",
"608 700 CURVE SMOOTH",
"548 700 LINE SMOOTH",
"532 700 OFFCURVE",
"522 694 OFFCURVE",
"514 681 CURVE SMOOTH",
"343 426 LINE",
"171 681 LINE SMOOTH",
"162 694 OFFCURVE",
"152 700 OFFCURVE",
"137 700 CURVE SMOOTH",
"77 700 LINE SMOOTH",
"65 700 OFFCURVE",
"59 696 OFFCURVE",
"59 689 CURVE SMOOTH",
"59 684 OFFCURVE",
"62 677 OFFCURVE",
"68 668 CURVE SMOOTH",
"286 361 LINE",
"52 32 LINE SMOOTH",
"46 23 OFFCURVE",
"43 16 OFFCURVE",
"43 11 CURVE SMOOTH"
);
}
);
width = 640;
},
{
anchors = (
{
name = mark0;
position = "{0, 0}";
},
{
name = mark1;
position = "{346, 0}";
},
{
name = mark2;
position = "{346, 717}";
},
{
name = mark3;
position = "{0, 0}";
},
{
name = mark4;
position = "{0, 0}";
}
);
layerId = "7D4B8FA6-1CBF-4C70-BCBE-1433105F567F";
paths = (
{
closed = 1;
nodes = (
"52 5 OFFCURVE",
"62 0 OFFCURVE",
"81 0 CURVE SMOOTH",
"181 0 LINE SMOOTH",
"198 0 OFFCURVE",
"213 10 OFFCURVE",
"225 29 CURVE SMOOTH",
"375 262 LINE",
"524 29 LINE SMOOTH",
"536 10 OFFCURVE",
"551 0 OFFCURVE",
"568 0 CURVE SMOOTH",
"668 0 LINE SMOOTH",
"688 0 OFFCURVE",
"698 6 OFFCURVE",
"698 17 CURVE SMOOTH",
"698 23 OFFCURVE",
"694 31 OFFCURVE",
"687 42 CURVE SMOOTH",
"470 361 LINE",
"669 658 LINE SMOOTH",
"676 669 OFFCURVE",
"680 678 OFFCURVE",
"680 684 CURVE SMOOTH",
"680 695 OFFCURVE",
"670 700 OFFCURVE",
"650 700 CURVE SMOOTH",
"552 700 LINE SMOOTH",
"535 700 OFFCURVE",
"520 690 OFFCURVE",
"508 671 CURVE SMOOTH",
"375 460 LINE",
"241 671 LINE SMOOTH",
"229 690 OFFCURVE",
"214 700 OFFCURVE",
"197 700 CURVE SMOOTH",
"99 700 LINE SMOOTH",
"79 700 OFFCURVE",
"69 695 OFFCURVE",
"69 684 CURVE SMOOTH",
"69 678 OFFCURVE",
"73 669 OFFCURVE",
"80 658 CURVE SMOOTH",
"279 361 LINE",
"63 42 LINE SMOOTH",
"56 32 OFFCURVE",
"52 23 OFFCURVE",
"52 16 CURVE SMOOTH"
);
}
);
width = 692;
}
);
unicode = 0058;
},
{
glyphname = Y;
lastChange = "2016-10-15 04:12:12 +0000";
layers = (
{
anchors = (
{
name = mark0;
position = "{0, 0}";
},
{
name = mark1;
position = "{0, 0}";
},
{
name = mark2;
position = "{0, 0}";
},
{
name = mark3;
position = "{317, 0}";
},
{
name = mark4;
position = "{317, 715}";
},
{
name = mark5;
position = "{0, 0}";
},
{
name = mark6;
position = "{0, 0}";
}
);
layerId = UUID0;
paths = (
{
closed = 1;
nodes = (
"39 683 OFFCURVE",
"42 677 OFFCURVE",
"47 668 CURVE SMOOTH",
"292 288 LINE",
"292 27 LINE SMOOTH",
"292 9 OFFCURVE",
"300 0 OFFCURVE",
"316 0 CURVE SMOOTH",
"361 0 LINE SMOOTH",
"378 0 OFFCURVE",
"386 9 OFFCURVE",
"386 27 CURVE SMOOTH",
"386 288 LINE",
"630 668 LINE",
"636 676 OFFCURVE",
"639 683 OFFCURVE",
"639 688 CURVE SMOOTH",
"639 696 OFFCURVE",
"632 700 OFFCURVE",
"617 700 CURVE SMOOTH",
"563 700 LINE SMOOTH",
"549 700 OFFCURVE",
"536 692 OFFCURVE",
"527 676 CURVE SMOOTH",
"368 401 LINE SMOOTH",
"359 385 OFFCURVE",
"349 367 OFFCURVE",
"340 346 CURVE",
"338 346 LINE",
"333 355 OFFCURVE",
"325 374 OFFCURVE",
"310 401 CURVE SMOOTH",
"150 676 LINE SMOOTH",
"141 692 OFFCURVE",
"130 700 OFFCURVE",
"115 700 CURVE SMOOTH",
"61 700 LINE SMOOTH",
"46 700 OFFCURVE",
"39 696 OFFCURVE",
"39 687 CURVE SMOOTH"
);
}
);
width = 636;
},
{
anchors = (
{
name = mark0;
position = "{0, 0}";
},
{
name = mark1;
position = "{334, 0}";
},
{
name = mark2;
position = "{334, 717}";
},
{
name = mark3;
position = "{0, 0}";
},
{
name = mark4;
position = "{0, 0}";
}
);
layerId = "7D4B8FA6-1CBF-4C70-BCBE-1433105F567F";
paths = (
{
closed = 1;
nodes = (
"41 676 OFFCURVE",
"44 668 OFFCURVE",
"50 658 CURVE SMOOTH",
"288 256 LINE",
"288 27 LINE SMOOTH",
"288 9 OFFCURVE",
"299 0 OFFCURVE",
"322 0 CURVE SMOOTH",
"396 0 LINE SMOOTH",
"419 0 OFFCURVE",
"430 9 OFFCURVE",
"430 27 CURVE SMOOTH",
"430 256 LINE",
"668 658 LINE SMOOTH",
"674 668 OFFCURVE",
"677 676 OFFCURVE",
"677 682 CURVE SMOOTH",
"677 694 OFFCURVE",
"666 700 OFFCURVE",
"645 700 CURVE SMOOTH",
"560 700 LINE SMOOTH",
"543 700 OFFCURVE",
"528 689 OFFCURVE",
"515 667 CURVE SMOOTH",
"411 485 LINE",
"389 449 OFFCURVE",
"363 400 OFFCURVE",
"360 365 CURVE",
"358 365 LINE",
"353 407 OFFCURVE",
"327 452 OFFCURVE",
"307 485 CURVE",
"203 667 LINE SMOOTH",
"190 689 OFFCURVE",
"175 700 OFFCURVE",
"158 700 CURVE SMOOTH",
"73 700 LINE SMOOTH",
"52 700 OFFCURVE",
"41 694 OFFCURVE",
"41 682 CURVE SMOOTH"
);
}
);
width = 668;
}
);
unicode = 0059;
},
{
glyphname = Z;
lastChange = "2016-10-15 04:12:12 +0000";
layers = (
{
anchors = (
{
name = mark0;
position = "{0, 0}";
},
{
name = mark1;
position = "{0, 0}";
},
{
name = mark2;
position = "{0, 0}";
},
{
name = mark3;
position = "{297, 0}";
},
{
name = mark4;
position = "{297, 715}";
},
{
name = mark5;
position = "{0, 0}";
},
{
name = mark6;
position = "{0, 0}";
}
);
layerId = UUID0;
paths = (
{
closed = 1;
nodes = (
"32 22 LINE SMOOTH",
"32 7 OFFCURVE",
"41 0 OFFCURVE",
"59 0 CURVE SMOOTH",
"535 0 LINE SMOOTH",
"553 0 OFFCURVE",
"562 7 OFFCURVE",
"562 22 CURVE SMOOTH",
"562 58 LINE SMOOTH",
"562 73 OFFCURVE",
"553 80 OFFCURVE",
"535 80 CURVE SMOOTH",
"192 80 LINE SMOOTH",
"172 80 OFFCURVE",
"159 80 OFFCURVE",
"153 79 CURVE",
"153 81 LINE",
"542 633 LINE",
"548 643 OFFCURVE",
"551 653 OFFCURVE",
"551 663 CURVE SMOOTH",
"551 678 LINE SMOOTH",
"551 693 OFFCURVE",
"542 700 OFFCURVE",
"524 700 CURVE SMOOTH",
"74 700 LINE SMOOTH",
"56 700 OFFCURVE",
"47 693 OFFCURVE",
"47 678 CURVE SMOOTH",
"47 642 LINE SMOOTH",
"47 627 OFFCURVE",
"56 620 OFFCURVE",
"74 620 CURVE SMOOTH",
"430 621 LINE",
"430 619 LINE",
"46 89 LINE SMOOTH",
"37 76 OFFCURVE",
"32 61 OFFCURVE",
"32 45 CURVE SMOOTH"
);
}
);
width = 594;
},
{
anchors = (
{
name = mark0;
position = "{0, 0}";
},
{
name = mark1;
position = "{306, 0}";
},
{
name = mark2;
position = "{306, 717}";
},
{
name = mark3;
position = "{0, 0}";
},
{
name = mark4;
position = "{0, 0}";
}
);
layerId = "7D4B8FA6-1CBF-4C70-BCBE-1433105F567F";
paths = (
{
closed = 1;
nodes = (
"30 32 LINE SMOOTH",
"30 11 OFFCURVE",
"42 0 OFFCURVE",
"66 0 CURVE SMOOTH",
"545 0 LINE SMOOTH",
"570 0 OFFCURVE",
"582 11 OFFCURVE",
"582 32 CURVE SMOOTH",
"582 89 LINE SMOOTH",
"582 110 OFFCURVE",
"570 121 OFFCURVE",
"545 121 CURVE SMOOTH",
"272 121 LINE SMOOTH",
"259 121 OFFCURVE",
"239 120 OFFCURVE",
"214 119 CURVE",
"214 122 LINE",
"551 586 LINE",
"562 603 OFFCURVE",
"568 619 OFFCURVE",
"568 636 CURVE SMOOTH",
"568 668 LINE SMOOTH",
"568 689 OFFCURVE",
"556 700 OFFCURVE",
"531 700 CURVE SMOOTH",
"86 700 LINE SMOOTH",
"61 700 OFFCURVE",
"49 689 OFFCURVE",
"49 668 CURVE SMOOTH",
"49 611 LINE SMOOTH",
"49 590 OFFCURVE",
"61 579 OFFCURVE",
"86 579 CURVE SMOOTH",
"313 579 LINE SMOOTH",
"333 579 OFFCURVE",
"353 580 OFFCURVE",
"372 582 CURVE",
"372 578 LINE",
"55 140 LINE SMOOTH",
"38 117 OFFCURVE",
"30 95 OFFCURVE",
"30 72 CURVE SMOOTH"
);
}
);
width = 611;
}
);
unicode = 005A;
},
{
glyphname = Gsmall;
lastChange = "2016-10-15 04:12:42 +0000";
layers = (
{
anchors = (
{
name = mark0;
position = "{0, 0}";
},
{
name = mark1;
position = "{542, -195}";
},
{
name = mark2;
position = "{542, 721}";
},
{
name = mark3;
position = "{277, 0}";
},
{
name = mark4;
position = "{277, 521}";
},
{
name = mark5;
position = "{0, 0}";
},
{
name = mark6;
position = "{0, 0}";
}
);
layerId = UUID0;
paths = (
{
closed = 1;
nodes = (
"61 395 OFFCURVE",
"42 332 OFFCURVE",
"42 256 CURVE SMOOTH",
"42 108 OFFCURVE",
"110 -8 OFFCURVE",
"277 -8 CURVE SMOOTH",
"388 -8 OFFCURVE",
"426 17 OFFCURVE",
"489 70 CURVE",
"489 229 LINE SMOOTH",
"489 240 OFFCURVE",
"482 246 OFFCURVE",
"467 246 CURVE SMOOTH",
"299 246 LINE SMOOTH",
"284 246 OFFCURVE",
"277 240 OFFCURVE",
"277 229 CURVE SMOOTH",
"277 199 LINE SMOOTH",
"277 188 OFFCURVE",
"284 182 OFFCURVE",
"299 182 CURVE SMOOTH",
"403 182 LINE",
"403 98 LINE",
"375 70 OFFCURVE",
"341 55 OFFCURVE",
"277 55 CURVE SMOOTH",
"180 55 OFFCURVE",
"132 120 OFFCURVE",
"132 256 CURVE SMOOTH",
"132 392 OFFCURVE",
"180 458 OFFCURVE",
"277 458 CURVE SMOOTH",
"340 458 OFFCURVE",
"372 439 OFFCURVE",
"400 405 CURVE SMOOTH",
"407 396 OFFCURVE",
"413 391 OFFCURVE",
"420 391 CURVE SMOOTH",
"424 391 OFFCURVE",
"427 392 OFFCURVE",
"430 395 CURVE SMOOTH",
"459 417 LINE SMOOTH",
"464 421 OFFCURVE",
"466 425 OFFCURVE",
"466 430 CURVE SMOOTH",
"466 449 OFFCURVE",
"427 477 OFFCURVE",
"398 496 CURVE SMOOTH",
"371 513 OFFCURVE",
"331 521 OFFCURVE",
"277 521 CURVE SMOOTH",
"196 521 OFFCURVE",
"136 496 OFFCURVE",
"98 446 CURVE"
);
}
);
width = 542;
},
{
layerId = "7D4B8FA6-1CBF-4C70-BCBE-1433105F567F";
width = 600;
}
);
unicode = 0262;
},
{
glyphname = Gsmallhook;
lastChange = "2016-10-15 04:12:42 +0000";
layers = (
{
anchors = (
{
name = mark0;
position = "{0, 0}";
},
{
name = mark1;
position = "{599, -195}";
},
{
name = mark2;
position = "{599, 721}";
},
{
name = mark3;
position = "{277, 0}";
},
{
name = mark4;
position = "{337, 721}";
},
{
name = mark5;
position = "{0, 0}";
},
{
name = mark6;
position = "{0, 0}";
}
);
layerId = UUID0;
paths = (
{
closed = 1;
nodes = (
"61 395 OFFCURVE",
"42 332 OFFCURVE",
"42 256 CURVE SMOOTH",
"42 108 OFFCURVE",
"110 -8 OFFCURVE",
"277 -8 CURVE SMOOTH",
"388 -8 OFFCURVE",
"426 17 OFFCURVE",
"489 70 CURVE",
"489 229 LINE SMOOTH",
"489 240 OFFCURVE",
"482 246 OFFCURVE",
"467 246 CURVE SMOOTH",
"299 246 LINE SMOOTH",
"284 246 OFFCURVE",
"277 240 OFFCURVE",
"277 229 CURVE SMOOTH",
"277 199 LINE SMOOTH",
"277 188 OFFCURVE",
"284 182 OFFCURVE",
"299 182 CURVE SMOOTH",
"403 182 LINE",
"403 98 LINE",
"375 70 OFFCURVE",
"341 55 OFFCURVE",
"277 55 CURVE SMOOTH",
"180 55 OFFCURVE",
"132 120 OFFCURVE",
"132 256 CURVE SMOOTH",
"132 392 OFFCURVE",
"180 458 OFFCURVE",
"277 458 CURVE SMOOTH",
"340 458 OFFCURVE",
"372 439 OFFCURVE",
"400 405 CURVE SMOOTH",
"407 396 OFFCURVE",
"414 392 OFFCURVE",
"420 392 CURVE SMOOTH",
"425 392 OFFCURVE",
"429 394 OFFCURVE",
"434 398 CURVE SMOOTH",
"465 422 LINE",
"472 429 OFFCURVE",
"475 438 OFFCURVE",
"475 449 CURVE SMOOTH",
"475 571 LINE SMOOTH",
"475 648 OFFCURVE",
"512 666 OFFCURVE",
"546 666 CURVE SMOOTH",
"566 666 OFFCURVE",
"583 661 OFFCURVE",
"597 650 CURVE SMOOTH",
"599 649 OFFCURVE",
"601 648 OFFCURVE",
"603 648 CURVE SMOOTH",
"607 648 OFFCURVE",
"610 651 OFFCURVE",
"614 657 CURVE",
"631 693 LINE SMOOTH",
"632 695 OFFCURVE",
"632 697 OFFCURVE",
"632 699 CURVE SMOOTH",
"632 722 OFFCURVE",
"561 729 OFFCURVE",
"538 729 CURVE SMOOTH",
"464 729 OFFCURVE",
"389 698 OFFCURVE",
"389 585 CURVE SMOOTH",
"389 526 LINE SMOOTH",
"389 513 OFFCURVE",
"389 504 OFFCURVE",
"390 497 CURVE",
"389 497 LINE",
"362 513 OFFCURVE",
"324 521 OFFCURVE",
"277 521 CURVE SMOOTH",
"196 521 OFFCURVE",
"136 496 OFFCURVE",
"98 446 CURVE"
);
}
);
width = 599;
},
{
layerId = "7D4B8FA6-1CBF-4C70-BCBE-1433105F567F";
width = 600;
}
);
unicode = 029B;
},
{
glyphname = Ismall;
lastChange = "2016-10-15 04:12:42 +0000";
layers = (
{
anchors = (
{
name = mark0;
position = "{0, 0}";
},
{
name = mark1;
position = "{285, -195}";
},
{
name = mark2;
position = "{285, 721}";
},
{
name = mark3;
position = "{143, 0}";
},
{
name = mark4;
position = "{143, 521}";
},
{
name = mark5;
position = "{0, 0}";
},
{
name = mark6;
position = "{0, 0}";
}
);
layerId = UUID0;
paths = (
{
closed = 1;
nodes = (
"49 17 LINE SMOOTH",
"49 6 OFFCURVE",
"56 0 OFFCURVE",
"71 0 CURVE SMOOTH",
"214 0 LINE SMOOTH",
"229 0 OFFCURVE",
"236 6 OFFCURVE",
"236 17 CURVE SMOOTH",
"236 46 LINE SMOOTH",
"236 57 OFFCURVE",
"229 63 OFFCURVE",
"214 63 CURVE SMOOTH",
"186 63 LINE",
"186 449 LINE",
"214 449 LINE SMOOTH",
"229 449 OFFCURVE",
"236 455 OFFCURVE",
"236 466 CURVE SMOOTH",
"236 496 LINE SMOOTH",
"236 507 OFFCURVE",
"229 513 OFFCURVE",
"214 513 CURVE SMOOTH",
"71 513 LINE SMOOTH",
"56 513 OFFCURVE",
"49 507 OFFCURVE",
"49 496 CURVE SMOOTH",
"49 466 LINE SMOOTH",
"49 455 OFFCURVE",
"56 449 OFFCURVE",
"71 449 CURVE SMOOTH",
"100 449 LINE",
"100 63 LINE",
"71 63 LINE SMOOTH",
"56 63 OFFCURVE",
"49 57 OFFCURVE",
"49 46 CURVE SMOOTH"
);
}
);
width = 285;
},
{
anchors = (
{
name = mark0;
position = "{0, 0}";
},
{
name = mark1;
position = "{183, 0}";
},
{
name = mark2;
position = "{183, 522}";
},
{
name = mark3;
position = "{0, 0}";
},
{
name = mark4;
position = "{0, 0}";
}
);
layerId = "7D4B8FA6-1CBF-4C70-BCBE-1433105F567F";
paths = (
{
closed = 1;
nodes = (
"45 24 LINE SMOOTH",
"45 8 OFFCURVE",
"55 0 OFFCURVE",
"74 0 CURVE SMOOTH",
"291 0 LINE SMOOTH",
"310 0 OFFCURVE",
"320 8 OFFCURVE",
"320 24 CURVE SMOOTH",
"320 73 LINE SMOOTH",
"320 90 OFFCURVE",
"310 98 OFFCURVE",
"291 98 CURVE SMOOTH",
"251 98 LINE",
"251 415 LINE",
"291 415 LINE SMOOTH",
"310 415 OFFCURVE",
"320 423 OFFCURVE",
"320 439 CURVE SMOOTH",
"320 488 LINE SMOOTH",
"320 505 OFFCURVE",
"310 513 OFFCURVE",
"291 513 CURVE SMOOTH",
"74 513 LINE SMOOTH",
"55 513 OFFCURVE",
"45 505 OFFCURVE",
"45 488 CURVE SMOOTH",
"45 439 LINE SMOOTH",
"45 423 OFFCURVE",
"55 415 OFFCURVE",
"74 415 CURVE SMOOTH",
"114 415 LINE",
"114 98 LINE",
"74 98 LINE SMOOTH",
"55 98 OFFCURVE",
"45 90 OFFCURVE",
"45 73 CURVE SMOOTH"
);
}
);
width = 365;
}
);
unicode = 026A;
},
{
glyphname = Lsmall;
lastChange = "2016-10-15 04:12:42 +0000";
layers = (
{
anchors = (
{
name = mark0;
position = "{0, 0}";
},
{
name = mark1;
position = "{424, -195}";
},
{
name = mark2;
position = "{424, 721}";
},
{
name = mark3;
position = "{236, 0}";
},
{
name = mark4;
position = "{236, 521}";
},
{
name = mark5;
position = "{0, 0}";
},
{
name = mark6;
position = "{0, 0}";
}
);
layerId = UUID0;
paths = (
{
closed = 1;
nodes = (
"69 22 LINE SMOOTH",
"69 7 OFFCURVE",
"76 0 OFFCURVE",
"91 0 CURVE SMOOTH",
"381 0 LINE SMOOTH",
"396 0 OFFCURVE",
"403 6 OFFCURVE",
"403 17 CURVE SMOOTH",
"403 47 LINE SMOOTH",
"403 58 OFFCURVE",
"396 64 OFFCURVE",
"381 64 CURVE SMOOTH",
"155 64 LINE",
"155 491 LINE SMOOTH",
"155 506 OFFCURVE",
"148 513 OFFCURVE",
"133 513 CURVE SMOOTH",
"91 513 LINE SMOOTH",
"76 513 OFFCURVE",
"69 506 OFFCURVE",
"69 491 CURVE SMOOTH"
);
}
);
width = 424;
},
{
layerId = "7D4B8FA6-1CBF-4C70-BCBE-1433105F567F";
width = 600;
}
);
unicode = 029F;
},
{
glyphname = Nsmall;
lastChange = "2016-10-15 04:12:42 +0000";
layers = (
{
anchors = (
{
name = mark0;
position = "{0, 0}";
},
{
name = mark1;
position = "{581, -195}";
},
{
name = mark2;
position = "{581, 721}";
},
{
name = mark3;
position = "{291, 0}";
},
{
name = mark4;
position = "{291, 521}";
},
{
name = mark5;
position = "{0, 0}";
},
{
name = mark6;
position = "{0, 0}";
}
);
layerId = UUID0;
paths = (
{
closed = 1;
nodes = (
"69 22 LINE SMOOTH",
"69 7 OFFCURVE",
"76 0 OFFCURVE",
"91 0 CURVE SMOOTH",
"133 0 LINE SMOOTH",
"148 0 OFFCURVE",
"155 7 OFFCURVE",
"155 22 CURVE SMOOTH",
"155 367 LINE SMOOTH",
"155 380 OFFCURVE",
"155 390 OFFCURVE",
"154 396 CURVE",
"403 24 LINE SMOOTH",
"414 8 OFFCURVE",
"428 0 OFFCURVE",
"445 0 CURVE SMOOTH",
"490 0 LINE SMOOTH",
"505 0 OFFCURVE",
"512 7 OFFCURVE",
"512 22 CURVE SMOOTH",
"512 491 LINE SMOOTH",
"512 506 OFFCURVE",
"505 513 OFFCURVE",
"490 513 CURVE SMOOTH",
"448 513 LINE SMOOTH",
"433 513 OFFCURVE",
"426 506 OFFCURVE",
"426 491 CURVE SMOOTH",
"426 169 LINE SMOOTH",
"426 156 OFFCURVE",
"426 146 OFFCURVE",
"427 140 CURVE",
"194 489 LINE SMOOTH",
"183 505 OFFCURVE",
"170 513 OFFCURVE",
"152 513 CURVE SMOOTH",
"91 513 LINE SMOOTH",
"76 513 OFFCURVE",
"69 506 OFFCURVE",
"69 491 CURVE SMOOTH"
);
}
);
width = 581;
},
{
layerId = "7D4B8FA6-1CBF-4C70-BCBE-1433105F567F";
width = 600;
}
);
unicode = 0274;
},
{
glyphname = OEsmall;
lastChange = "2016-10-15 04:12:42 +0000";
layers = (
{
anchors = (
{
name = mark0;
position = "{0, 0}";
},
{
name = mark1;
position = "{786, -195}";
},
{
name = mark2;
position = "{786, 721}";
},
{
name = mark3;
position = "{387, 0}";
},
{
name = mark4;
position = "{387, 521}";
},
{
name = mark5;
position = "{0, 0}";
},
{
name = mark6;
position = "{0, 0}";
}
);
layerId = UUID0;
paths = (
{
closed = 1;
nodes = (
"63 403 OFFCURVE",
"42 338 OFFCURVE",
"42 256 CURVE SMOOTH",
"42 91 OFFCURVE",
"127 -8 OFFCURVE",
"288 -8 CURVE SMOOTH",
"313 -8 OFFCURVE",
"399 0 OFFCURVE",
"422 0 CURVE SMOOTH",
"710 0 LINE SMOOTH",
"725 0 OFFCURVE",
"732 6 OFFCURVE",
"732 17 CURVE SMOOTH",
"732 47 LINE SMOOTH",
"732 58 OFFCURVE",
"725 64 OFFCURVE",
"710 64 CURVE SMOOTH",
"454 64 LINE",
"454 232 LINE",
"678 232 LINE SMOOTH",
"693 232 OFFCURVE",
"700 238 OFFCURVE",
"700 249 CURVE SMOOTH",
"700 280 LINE SMOOTH",
"700 291 OFFCURVE",
"693 297 OFFCURVE",
"678 297 CURVE SMOOTH",
"454 297 LINE",
"454 448 LINE",
"699 448 LINE SMOOTH",
"714 448 OFFCURVE",
"721 454 OFFCURVE",
"721 465 CURVE SMOOTH",
"721 496 LINE SMOOTH",
"721 507 OFFCURVE",
"714 513 OFFCURVE",
"699 513 CURVE SMOOTH",
"422 513 LINE SMOOTH",
"399 513 OFFCURVE",
"313 521 OFFCURVE",
"288 521 CURVE SMOOTH",
"207 521 OFFCURVE",
"145 497 OFFCURVE",
"104 450 CURVE SMOOTH"
);
},
{
closed = 1;
nodes = (
"185 55 OFFCURVE",
"133 128 OFFCURVE",
"133 256 CURVE SMOOTH",
"133 385 OFFCURVE",
"185 458 OFFCURVE",
"285 458 CURVE SMOOTH",
"321 458 OFFCURVE",
"349 455 OFFCURVE",
"368 448 CURVE",
"368 64 LINE",
"348 58 OFFCURVE",
"320 55 OFFCURVE",
"285 55 CURVE SMOOTH"
);
}
);
width = 786;
},
{
layerId = "7D4B8FA6-1CBF-4C70-BCBE-1433105F567F";
width = 600;
}
);
unicode = 0276;
},
{
glyphname = Rsmall;
lastChange = "2016-10-15 04:12:42 +0000";
layers = (
{
anchors = (
{
name = mark0;
position = "{0, 0}";
},
{
name = mark1;
position = "{544, -195}";
},
{
name = mark2;
position = "{544, 721}";
},
{
name = mark3;
position = "{288, 0}";
},
{
name = mark4;
position = "{288, 521}";
},
{
name = mark5;
position = "{0, 0}";
},
{
name = mark6;
position = "{0, 0}";
}
);
layerId = UUID0;
paths = (
{
closed = 1;
nodes = (
"69 22 LINE SMOOTH",
"69 7 OFFCURVE",
"76 0 OFFCURVE",
"91 0 CURVE SMOOTH",
"133 0 LINE SMOOTH",
"148 0 OFFCURVE",
"155 7 OFFCURVE",
"155 22 CURVE SMOOTH",
"155 211 LINE",
"216 211 LINE SMOOTH",
"262 211 OFFCURVE",
"283 190 OFFCURVE",
"317 141 CURVE SMOOTH",
"403 18 LINE SMOOTH",
"411 6 OFFCURVE",
"421 0 OFFCURVE",
"431 0 CURVE SMOOTH",
"485 0 LINE SMOOTH",
"499 0 OFFCURVE",
"506 4 OFFCURVE",
"506 11 CURVE SMOOTH",
"506 16 OFFCURVE",
"503 22 OFFCURVE",
"498 29 CURVE SMOOTH",
"405 153 LINE SMOOTH",
"390 172 OFFCURVE",
"380 191 OFFCURVE",
"324 225 CURVE",
"324 226 LINE",
"435 239 OFFCURVE",
"481 287 OFFCURVE",
"481 372 CURVE SMOOTH",
"481 471 OFFCURVE",
"422 513 OFFCURVE",
"275 513 CURVE SMOOTH",
"91 513 LINE SMOOTH",
"76 513 OFFCURVE",
"69 506 OFFCURVE",
"69 491 CURVE SMOOTH"
);
},
{
closed = 1;
nodes = (
"155 274 LINE",
"155 449 LINE",
"263 449 LINE SMOOTH",
"350 449 OFFCURVE",
"391 430 OFFCURVE",
"391 372 CURVE SMOOTH",
"391 288 OFFCURVE",
"325 274 OFFCURVE",
"263 274 CURVE SMOOTH"
);
}
);
width = 544;
},
{
layerId = "7D4B8FA6-1CBF-4C70-BCBE-1433105F567F";
width = 600;
}
);
unicode = 0280;
},
{
glyphname = Rsmallinverted;
lastChange = "2016-10-15 04:12:42 +0000";
layers = (
{
anchors = (
{
name = mark0;
position = "{0, 0}";
},
{
name = mark1;
position = "{544, -195}";
},
{
name = mark2;
position = "{544, 721}";
},
{
name = mark3;
position = "{288, 0}";
},
{
name = mark4;
position = "{288, 521}";
},
{
name = mark5;
position = "{0, 0}";
},
{
name = mark6;
position = "{0, 0}";
}
);
layerId = UUID0;
paths = (
{
closed = 1;
nodes = (
"91 513 LINE SMOOTH",
"76 513 OFFCURVE",
"69 506 OFFCURVE",
"69 491 CURVE SMOOTH",
"69 22 LINE SMOOTH",
"69 7 OFFCURVE",
"76 0 OFFCURVE",
"91 0 CURVE SMOOTH",
"275 0 LINE SMOOTH",
"426 0 OFFCURVE",
"481 44 OFFCURVE",
"481 141 CURVE SMOOTH",
"481 226 OFFCURVE",
"435 274 OFFCURVE",
"324 287 CURVE",
"324 288 LINE",
"369 312 OFFCURVE",
"385 332 OFFCURVE",
"405 359 CURVE SMOOTH",
"498 484 LINE SMOOTH",
"503 491 OFFCURVE",
"506 497 OFFCURVE",
"506 502 CURVE SMOOTH",
"506 509 OFFCURVE",
"499 513 OFFCURVE",
"485 513 CURVE SMOOTH",
"431 513 LINE SMOOTH",
"421 513 OFFCURVE",
"411 507 OFFCURVE",
"403 495 CURVE SMOOTH",
"317 372 LINE SMOOTH",
"284 324 OFFCURVE",
"265 302 OFFCURVE",
"216 302 CURVE SMOOTH",
"155 302 LINE",
"155 491 LINE SMOOTH",
"155 506 OFFCURVE",
"148 513 OFFCURVE",
"133 513 CURVE SMOOTH"
);
},
{
closed = 1;
nodes = (
"155 64 LINE",
"155 238 LINE",
"263 238 LINE SMOOTH",
"329 238 OFFCURVE",
"391 222 OFFCURVE",
"391 141 CURVE SMOOTH",
"391 84 OFFCURVE",
"357 64 OFFCURVE",
"263 64 CURVE SMOOTH"
);
}
);
width = 544;
},
{
layerId = "7D4B8FA6-1CBF-4C70-BCBE-1433105F567F";
width = 600;
}
);
unicode = 0281;
},
{
glyphname = Ysmall;
lastChange = "2016-10-15 04:12:42 +0000";
layers = (
{
anchors = (
{
name = mark0;
position = "{0, 0}";
},
{
name = mark1;
position = "{501, -195}";
},
{
name = mark2;
position = "{501, 721}";
},
{
name = mark3;
position = "{250, 0}";
},
{
name = mark4;
position = "{250, 521}";
},
{
name = mark5;
position = "{0, 0}";
},
{
name = mark6;
position = "{0, 0}";
}
);
layerId = UUID0;
paths = (
{
closed = 1;
nodes = (
"34 496 OFFCURVE",
"37 489 OFFCURVE",
"42 482 CURVE SMOOTH",
"227 198 LINE",
"227 22 LINE SMOOTH",
"227 7 OFFCURVE",
"234 0 OFFCURVE",
"249 0 CURVE SMOOTH",
"291 0 LINE SMOOTH",
"306 0 OFFCURVE",
"313 7 OFFCURVE",
"313 22 CURVE SMOOTH",
"313 198 LINE",
"499 482 LINE SMOOTH",
"504 489 OFFCURVE",
"506 496 OFFCURVE",
"506 501 CURVE SMOOTH",
"506 509 OFFCURVE",
"500 513 OFFCURVE",
"487 513 CURVE SMOOTH",
"441 513 LINE SMOOTH",
"431 513 OFFCURVE",
"422 507 OFFCURVE",
"415 496 CURVE SMOOTH",
"311 333 LINE",
"305 326 OFFCURVE",
"278 283 OFFCURVE",
"271 255 CURVE",
"270 255 LINE",
"266 270 OFFCURVE",
"259 286 OFFCURVE",
"248 303 CURVE SMOOTH",
"125 496 LINE SMOOTH",
"118 507 OFFCURVE",
"109 513 OFFCURVE",
"99 513 CURVE SMOOTH",
"53 513 LINE SMOOTH",
"40 513 OFFCURVE",
"34 509 OFFCURVE",
"34 501 CURVE SMOOTH"
);
}
);
width = 501;
},
{
layerId = "7D4B8FA6-1CBF-4C70-BCBE-1433105F567F";
width = 600;
}
);
unicode = 028F;
},
{
glyphname = a;
lastChange = "2016-10-15 04:12:12 +0000";
layers = (
{
anchors = (
{
name = mark0;
position = "{409, 0}";
},
{
name = mark1;
position = "{521, -195}";
},
{
name = mark2;
position = "{521, 721}";
},
{
name = mark3;
position = "{263, 0}";
},
{
name = mark4;
position = "{263, 521}";
},
{
name = mark5;
position = "{0, 0}";
},
{
name = mark6;
position = "{0, 0}";
}
);
layerId = UUID0;
paths = (
{
closed = 1;
nodes = (
"69 237 OFFCURVE",
"42 195 OFFCURVE",
"42 137 CURVE SMOOTH",
"42 45 OFFCURVE",
"101 -8 OFFCURVE",
"208 -8 CURVE SMOOTH",
"271 -8 OFFCURVE",
"315 6 OFFCURVE",
"366 46 CURVE",
"367 22 LINE SMOOTH",
"367 7 OFFCURVE",
"372 0 OFFCURVE",
"386 0 CURVE SMOOTH",
"430 0 LINE SMOOTH",
"445 0 OFFCURVE",
"452 7 OFFCURVE",
"452 22 CURVE SMOOTH",
"452 325 LINE SMOOTH",
"452 445 OFFCURVE",
"398 521 OFFCURVE",
"263 521 CURVE SMOOTH",
"184 521 OFFCURVE",
"119 496 OFFCURVE",
"78 455 CURVE SMOOTH",
"70 448 OFFCURVE",
"66 442 OFFCURVE",
"66 436 CURVE SMOOTH",
"66 432 OFFCURVE",
"67 429 OFFCURVE",
"70 426 CURVE SMOOTH",
"96 396 LINE SMOOTH",
"100 392 OFFCURVE",
"104 390 OFFCURVE",
"107 390 CURVE SMOOTH",
"111 390 OFFCURVE",
"116 393 OFFCURVE",
"121 398 CURVE SMOOTH",
"156 437 OFFCURVE",
"197 458 OFFCURVE",
"263 458 CURVE SMOOTH",
"342 458 OFFCURVE",
"366 407 OFFCURVE",
"366 345 CURVE SMOOTH",
"366 312 LINE",
"258 307 OFFCURVE",
"177 291 OFFCURVE",
"123 264 CURVE SMOOTH"
);
},
{
closed = 1;
nodes = (
"134 99 OFFCURVE",
"130 116 OFFCURVE",
"130 135 CURVE SMOOTH",
"130 179 OFFCURVE",
"173 217 OFFCURVE",
"225 229 CURVE SMOOTH",
"252 235 OFFCURVE",
"299 243 OFFCURVE",
"366 248 CURVE",
"366 104 LINE",
"319 63 OFFCURVE",
"282 58 OFFCURVE",
"225 58 CURVE SMOOTH",
"186 58 OFFCURVE",
"159 65 OFFCURVE",
"143 86 CURVE SMOOTH"
);
}
);
width = 521;
},
{
anchors = (
{
name = mark0;
position = "{414, 0}";
},
{
name = mark1;
position = "{271, 0}";
},
{
name = mark2;
position = "{271, 522}";
},
{
name = mark3;
position = "{0, 0}";
},
{
name = mark4;
position = "{0, 0}";
}
);
layerId = "7D4B8FA6-1CBF-4C70-BCBE-1433105F567F";
paths = (
{
closed = 1;
nodes = (
"70 249 OFFCURVE",
"39 202 OFFCURVE",
"39 137 CURVE SMOOTH",
"39 45 OFFCURVE",
"97 -10 OFFCURVE",
"202 -10 CURVE SMOOTH",
"241 -10 OFFCURVE",
"308 7 OFFCURVE",
"345 44 CURVE",
"346 29 LINE SMOOTH",
"347 10 OFFCURVE",
"354 0 OFFCURVE",
"373 0 CURVE SMOOTH",
"453 0 LINE SMOOTH",
"472 0 OFFCURVE",
"482 10 OFFCURVE",
"482 29 CURVE SMOOTH",
"482 337 LINE SMOOTH",
"482 458 OFFCURVE",
"408 522 OFFCURVE",
"271 522 CURVE SMOOTH",
"188 522 OFFCURVE",
"117 505 OFFCURVE",
"74 465 CURVE SMOOTH",
"65 457 OFFCURVE",
"60 449 OFFCURVE",
"60 441 CURVE SMOOTH",
"60 437 OFFCURVE",
"62 432 OFFCURVE",
"66 427 CURVE SMOOTH",
"107 377 LINE SMOOTH",
"112 372 OFFCURVE",
"117 369 OFFCURVE",
"123 369 CURVE SMOOTH",
"130 369 OFFCURVE",
"137 372 OFFCURVE",
"144 379 CURVE SMOOTH",
"177 407 OFFCURVE",
"211 427 OFFCURVE",
"260 427 CURVE SMOOTH",
"316 427 OFFCURVE",
"345 402 OFFCURVE",
"345 345 CURVE SMOOTH",
"345 325 LINE",
"264 323 OFFCURVE",
"193 307 OFFCURVE",
"132 278 CURVE SMOOTH"
);
},
{
closed = 1;
nodes = (
"205 86 OFFCURVE",
"184 104 OFFCURVE",
"184 140 CURVE SMOOTH",
"184 181 OFFCURVE",
"209 216 OFFCURVE",
"345 231 CURVE",
"345 125 LINE",
"306 90 OFFCURVE",
"279 86 OFFCURVE",
"245 86 CURVE SMOOTH"
);
}
);
width = 548;
}
);
unicode = 0061;
},
{
glyphname = "alpha-latin";
lastChange = "2016-10-15 04:12:42 +0000";
layers = (
{
anchors = (
{
name = mark0;
position = "{0, 0}";
},
{
name = mark1;
position = "{539, -195}";
},
{
name = mark2;
position = "{539, 721}";
},
{
name = mark3;
position = "{255, 0}";
},
{
name = mark4;
position = "{255, 521}";
},
{
name = mark5;
position = "{0, 0}";
},
{
name = mark6;
position = "{0, 0}";
}
);
layerId = UUID0;
paths = (
{
closed = 1;
nodes = (
"59 388 OFFCURVE",
"42 326 OFFCURVE",
"42 256 CURVE SMOOTH",
"42 124 OFFCURVE",
"106 -8 OFFCURVE",
"237 -8 CURVE SMOOTH",
"304 -8 OFFCURVE",
"343 12 OFFCURVE",
"383 61 CURVE",
"387 22 LINE SMOOTH",
"388 7 OFFCURVE",
"393 0 OFFCURVE",
"406 0 CURVE SMOOTH",
"447 0 LINE SMOOTH",
"462 0 OFFCURVE",
"469 7 OFFCURVE",
"469 22 CURVE SMOOTH",
"469 491 LINE SMOOTH",
"469 506 OFFCURVE",
"462 513 OFFCURVE",
"447 513 CURVE SMOOTH",
"406 513 LINE SMOOTH",
"394 513 OFFCURVE",
"388 506 OFFCURVE",
"387 491 CURVE SMOOTH",
"383 452 LINE",
"342 497 OFFCURVE",
"305 521 OFFCURVE",
"237 521 CURVE SMOOTH",
"174 521 OFFCURVE",
"126 494 OFFCURVE",
"92 441 CURVE SMOOTH"
);
},
{
closed = 1;
nodes = (
"142 149 OFFCURVE",
"132 197 OFFCURVE",
"132 256 CURVE SMOOTH",
"132 370 OFFCURVE",
"168 458 OFFCURVE",
"265 458 CURVE SMOOTH",
"325 458 OFFCURVE",
"383 413 OFFCURVE",
"383 313 CURVE SMOOTH",
"383 200 LINE SMOOTH",
"383 101 OFFCURVE",
"328 55 OFFCURVE",
"265 55 CURVE SMOOTH",
"218 55 OFFCURVE",
"184 74 OFFCURVE",
"163 111 CURVE SMOOTH"
);
}
);
width = 539;
},
{
layerId = "7D4B8FA6-1CBF-4C70-BCBE-1433105F567F";
width = 600;
}
);
unicode = 0251;
},
{
glyphname = "alphaturned-latin";
lastChange = "2016-10-15 04:12:42 +0000";
layers = (
{
anchors = (
{
name = mark0;
position = "{0, 0}";
},
{
name = mark1;
position = "{539, -195}";
},
{
name = mark2;
position = "{539, 721}";
},
{
name = mark3;
position = "{284, 0}";
},
{
name = mark4;
position = "{284, 521}";
},
{
name = mark5;
position = "{0, 0}";
},
{
name = mark6;
position = "{0, 0}";
}
);
layerId = UUID0;
paths = (
{
closed = 1;
nodes = (
"92 513 LINE SMOOTH",
"77 513 OFFCURVE",
"70 506 OFFCURVE",
"70 491 CURVE SMOOTH",
"70 22 LINE SMOOTH",
"70 7 OFFCURVE",
"77 0 OFFCURVE",
"92 0 CURVE SMOOTH",
"133 0 LINE SMOOTH",
"145 0 OFFCURVE",
"150 7 OFFCURVE",
"152 22 CURVE SMOOTH",
"156 61 LINE",
"196 12 OFFCURVE",
"236 -8 OFFCURVE",
"302 -8 CURVE SMOOTH",
"433 -8 OFFCURVE",
"498 127 OFFCURVE",
"498 256 CURVE SMOOTH",
"498 386 OFFCURVE",
"432 521 OFFCURVE",
"302 521 CURVE SMOOTH",
"234 521 OFFCURVE",
"197 497 OFFCURVE",
"156 452 CURVE",
"152 491 LINE SMOOTH",
"150 506 OFFCURVE",
"144 513 OFFCURVE",
"133 513 CURVE SMOOTH"
);
},
{
closed = 1;
nodes = (
"167 114 OFFCURVE",
"156 151 OFFCURVE",
"156 200 CURVE SMOOTH",
"156 313 LINE SMOOTH",
"156 417 OFFCURVE",
"217 458 OFFCURVE",
"274 458 CURVE SMOOTH",
"371 458 OFFCURVE",
"407 370 OFFCURVE",
"407 256 CURVE SMOOTH",
"407 142 OFFCURVE",
"371 55 OFFCURVE",
"274 55 CURVE SMOOTH",
"242 55 OFFCURVE",
"214 67 OFFCURVE",
"190 91 CURVE SMOOTH"
);
}
);
width = 539;
},
{
layerId = "7D4B8FA6-1CBF-4C70-BCBE-1433105F567F";
width = 600;
}
);
unicode = 0252;
},
{
glyphname = aogonek;
lastChange = "2016-10-15 04:12:12 +0000";
layers = (
{
anchors = (
{
name = mark0;
position = "{0, 0}";
},
{
name = mark1;
position = "{0, 0}";
},
{
name = mark2;
position = "{0, 0}";
},
{
name = mark3;
position = "{0, 0}";
},
{
name = mark4;
position = "{263, 521}";
},
{
name = mark5;
position = "{0, 0}";
},
{
name = mark6;
position = "{0, 0}";
}
);
layerId = UUID0;
paths = (
{
closed = 1;
nodes = (
"69 237 OFFCURVE",
"42 195 OFFCURVE",
"42 137 CURVE SMOOTH",
"42 45 OFFCURVE",
"101 -8 OFFCURVE",
"208 -8 CURVE SMOOTH",
"271 -8 OFFCURVE",
"315 6 OFFCURVE",
"366 46 CURVE",
"367 22 LINE SMOOTH",
"367 9 OFFCURVE",
"363 1 OFFCURVE",
"359 -3 CURVE",
"300 -46 OFFCURVE",
"275 -74 OFFCURVE",
"275 -125 CURVE SMOOTH",
"275 -164 OFFCURVE",
"308 -204 OFFCURVE",
"382 -204 CURVE SMOOTH",
"400 -204 OFFCURVE",
"451 -203 OFFCURVE",
"451 -188 CURVE",
"444 -146 LINE SMOOTH",
"443 -139 OFFCURVE",
"440 -136 OFFCURVE",
"436 -136 CURVE SMOOTH",
"432 -137 LINE SMOOTH",
"422 -139 OFFCURVE",
"409 -140 OFFCURVE",
"393 -140 CURVE SMOOTH",
"369 -140 OFFCURVE",
"354 -128 OFFCURVE",
"354 -103 CURVE SMOOTH",
"354 -69 OFFCURVE",
"383 -44 OFFCURVE",
"443 0 CURVE SMOOTH",
"449 5 OFFCURVE",
"452 13 OFFCURVE",
"452 22 CURVE SMOOTH",
"452 325 LINE SMOOTH",
"452 445 OFFCURVE",
"398 521 OFFCURVE",
"263 521 CURVE SMOOTH",
"184 521 OFFCURVE",
"119 496 OFFCURVE",
"78 455 CURVE SMOOTH",
"70 448 OFFCURVE",
"66 442 OFFCURVE",
"66 436 CURVE SMOOTH",
"66 432 OFFCURVE",
"67 429 OFFCURVE",
"70 426 CURVE SMOOTH",
"96 396 LINE SMOOTH",
"100 392 OFFCURVE",
"104 390 OFFCURVE",
"107 390 CURVE SMOOTH",
"111 390 OFFCURVE",
"116 393 OFFCURVE",
"121 398 CURVE SMOOTH",
"156 437 OFFCURVE",
"197 458 OFFCURVE",
"263 458 CURVE SMOOTH",
"342 458 OFFCURVE",
"366 407 OFFCURVE",
"366 345 CURVE SMOOTH",
"366 312 LINE",
"258 307 OFFCURVE",
"177 291 OFFCURVE",
"123 264 CURVE SMOOTH"
);
},
{
closed = 1;
nodes = (
"134 99 OFFCURVE",
"130 116 OFFCURVE",
"130 135 CURVE SMOOTH",
"130 179 OFFCURVE",
"173 217 OFFCURVE",
"225 229 CURVE SMOOTH",
"252 235 OFFCURVE",
"299 243 OFFCURVE",
"366 248 CURVE",
"366 104 LINE",
"319 63 OFFCURVE",
"282 58 OFFCURVE",
"225 58 CURVE SMOOTH",
"186 58 OFFCURVE",
"159 65 OFFCURVE",
"143 86 CURVE SMOOTH"
);
}
);
width = 521;
},
{
anchors = (
{
name = mark0;
position = "{0, 0}";
},
{
name = mark1;
position = "{0, 0}";
},
{
name = mark2;
position = "{271, 522}";
},
{
name = mark3;
position = "{0, 0}";
},
{
name = mark4;
position = "{0, 0}";
}
);
layerId = "7D4B8FA6-1CBF-4C70-BCBE-1433105F567F";
paths = (
{
closed = 1;
nodes = (
"70 249 OFFCURVE",
"39 202 OFFCURVE",
"39 137 CURVE SMOOTH",
"39 45 OFFCURVE",
"97 -10 OFFCURVE",
"202 -10 CURVE SMOOTH",
"241 -10 OFFCURVE",
"308 7 OFFCURVE",
"345 44 CURVE",
"346 29 LINE SMOOTH",
"348 -5 OFFCURVE",
"306 -27 OFFCURVE",
"292 -46 CURVE",
"266 -75 OFFCURVE",
"262 -91 OFFCURVE",
"262 -121 CURVE SMOOTH",
"262 -176 OFFCURVE",
"308 -205 OFFCURVE",
"399 -205 CURVE SMOOTH",
"456 -205 OFFCURVE",
"481 -203 OFFCURVE",
"481 -184 CURVE",
"475 -122 LINE",
"473 -112 OFFCURVE",
"468 -107 OFFCURVE",
"460 -107 CURVE SMOOTH",
"455 -107 LINE SMOOTH",
"442 -108 OFFCURVE",
"429 -109 OFFCURVE",
"416 -109 CURVE SMOOTH",
"391 -109 OFFCURVE",
"377 -105 OFFCURVE",
"377 -86 CURVE SMOOTH",
"377 -66 OFFCURVE",
"441 -23 OFFCURVE",
"464 -5 CURVE SMOOTH",
"476 4 OFFCURVE",
"482 13 OFFCURVE",
"482 29 CURVE SMOOTH",
"482 337 LINE SMOOTH",
"482 458 OFFCURVE",
"408 522 OFFCURVE",
"271 522 CURVE SMOOTH",
"188 522 OFFCURVE",
"117 505 OFFCURVE",
"74 465 CURVE SMOOTH",
"65 457 OFFCURVE",
"60 449 OFFCURVE",
"60 441 CURVE SMOOTH",
"60 437 OFFCURVE",
"62 432 OFFCURVE",
"66 427 CURVE SMOOTH",
"107 377 LINE SMOOTH",
"112 372 OFFCURVE",
"117 369 OFFCURVE",
"123 369 CURVE SMOOTH",
"130 369 OFFCURVE",
"137 372 OFFCURVE",
"144 379 CURVE SMOOTH",
"177 407 OFFCURVE",
"211 427 OFFCURVE",
"260 427 CURVE SMOOTH",
"316 427 OFFCURVE",
"345 402 OFFCURVE",
"345 345 CURVE SMOOTH",
"345 325 LINE",
"264 323 OFFCURVE",
"193 307 OFFCURVE",
"132 278 CURVE SMOOTH"
);
},
{
closed = 1;
nodes = (
"205 86 OFFCURVE",
"184 104 OFFCURVE",
"184 140 CURVE SMOOTH",
"184 181 OFFCURVE",
"209 216 OFFCURVE",
"345 231 CURVE",
"345 125 LINE",
"306 90 OFFCURVE",
"279 86 OFFCURVE",
"245 86 CURVE SMOOTH"
);
}
);
width = 548;
}
);
unicode = 0105;
},
{
glyphname = aturned;
lastChange = "2016-10-15 04:12:42 +0000";
layers = (
{
anchors = (
{
name = mark0;
position = "{0, 0}";
},
{
name = mark1;
position = "{521, -195}";
},
{
name = mark2;
position = "{521, 721}";
},
{
name = mark3;
position = "{275, 0}";
},
{
name = mark4;
position = "{275, 521}";
},
{
name = mark5;
position = "{0, 0}";
},
{
name = mark6;
position = "{0, 0}";
}
);
layerId = UUID0;
paths = (
{
closed = 1;
nodes = (
"92 513 LINE SMOOTH",
"77 513 OFFCURVE",
"70 506 OFFCURVE",
"70 491 CURVE SMOOTH",
"70 188 LINE SMOOTH",
"70 67 OFFCURVE",
"120 -8 OFFCURVE",
"259 -8 CURVE SMOOTH",
"336 -8 OFFCURVE",
"395 12 OFFCURVE",
"444 58 CURVE SMOOTH",
"451 65 OFFCURVE",
"455 72 OFFCURVE",
"455 77 CURVE SMOOTH",
"455 81 OFFCURVE",
"454 84 OFFCURVE",
"451 87 CURVE SMOOTH",
"426 116 LINE SMOOTH",
"421 121 OFFCURVE",
"417 123 OFFCURVE",
"414 123 CURVE SMOOTH",
"411 123 OFFCURVE",
"406 120 OFFCURVE",
"401 115 CURVE SMOOTH",
"364 74 OFFCURVE",
"324 55 OFFCURVE",
"259 55 CURVE SMOOTH",
"173 55 OFFCURVE",
"156 110 OFFCURVE",
"156 168 CURVE SMOOTH",
"156 201 LINE",
"369 211 OFFCURVE",
"480 259 OFFCURVE",
"480 376 CURVE SMOOTH",
"480 468 OFFCURVE",
"420 521 OFFCURVE",
"313 521 CURVE SMOOTH",
"252 521 OFFCURVE",
"205 506 OFFCURVE",
"156 467 CURVE",
"155 491 LINE SMOOTH",
"154 506 OFFCURVE",
"149 513 OFFCURVE",
"136 513 CURVE SMOOTH"
);
},
{
closed = 1;
nodes = (
"269 276 OFFCURVE",
"223 270 OFFCURVE",
"156 265 CURVE",
"156 409 LINE",
"204 451 OFFCURVE",
"241 455 OFFCURVE",
"296 455 CURVE SMOOTH",
"353 455 OFFCURVE",
"391 439 OFFCURVE",
"391 378 CURVE SMOOTH",
"391 332 OFFCURVE",
"350 296 OFFCURVE",
"296 283 CURVE SMOOTH"
);
}
);
width = 521;
},
{
anchors = (
{
name = mark0;
position = "{0, 0}";
},
{
name = mark1;
position = "{288, 0}";
},
{
name = mark2;
position = "{288, 522}";
},
{
name = mark3;
position = "{0, 0}";
},
{
name = mark4;
position = "{0, 0}";
}
);
layerId = "7D4B8FA6-1CBF-4C70-BCBE-1433105F567F";
paths = (
{
closed = 1;
nodes = (
"96 513 LINE SMOOTH",
"77 513 OFFCURVE",
"67 503 OFFCURVE",
"67 483 CURVE SMOOTH",
"67 175 LINE SMOOTH",
"67 55 OFFCURVE",
"141 -10 OFFCURVE",
"277 -10 CURVE SMOOTH",
"369 -10 OFFCURVE",
"489 25 OFFCURVE",
"489 71 CURVE SMOOTH",
"489 75 OFFCURVE",
"487 80 OFFCURVE",
"482 86 CURVE SMOOTH",
"442 136 LINE",
"437 141 OFFCURVE",
"431 144 OFFCURVE",
"426 144 CURVE SMOOTH",
"419 144 OFFCURVE",
"412 141 OFFCURVE",
"405 134 CURVE SMOOTH",
"373 106 OFFCURVE",
"338 86 OFFCURVE",
"289 86 CURVE SMOOTH",
"233 86 OFFCURVE",
"204 109 OFFCURVE",
"204 168 CURVE SMOOTH",
"204 188 LINE",
"347 190 OFFCURVE",
"510 239 OFFCURVE",
"510 376 CURVE SMOOTH",
"510 468 OFFCURVE",
"452 522 OFFCURVE",
"347 522 CURVE SMOOTH",
"301 522 OFFCURVE",
"244 507 OFFCURVE",
"204 469 CURVE",
"203 483 LINE SMOOTH",
"201 503 OFFCURVE",
"195 513 OFFCURVE",
"176 513 CURVE SMOOTH"
);
},
{
closed = 1;
nodes = (
"295 296 OFFCURVE",
"259 288 OFFCURVE",
"204 282 CURVE",
"204 388 LINE",
"244 424 OFFCURVE",
"275 427 OFFCURVE",
"304 427 CURVE SMOOTH",
"343 427 OFFCURVE",
"365 408 OFFCURVE",
"365 373 CURVE SMOOTH",
"365 344 OFFCURVE",
"350 325 OFFCURVE",
"313 306 CURVE SMOOTH"
);
}
);
width = 548;
}
);
unicode = 0250;
},
{
glyphname = ae;
lastChange = "2016-10-15 04:12:12 +0000";
layers = (
{
anchors = (
{
name = mark0;
position = "{0, 0}";
},
{
name = mark1;
position = "{0, 0}";
},
{
name = mark2;
position = "{0, 0}";
},
{
name = mark3;
position = "{421, 0}";
},
{
name = mark4;
position = "{420, 521}";
},
{
name = mark5;
position = "{0, 0}";
},
{
name = mark6;
position = "{0, 0}";
}
);
layerId = UUID0;
paths = (
{
closed = 1;
nodes = (
"69 237 OFFCURVE",
"42 195 OFFCURVE",
"42 137 CURVE SMOOTH",
"42 45 OFFCURVE",
"102 -8 OFFCURVE",
"206 -8 CURVE SMOOTH",
"273 -8 OFFCURVE",
"334 16 OFFCURVE",
"406 76 CURVE",
"407 76 LINE",
"453 14 OFFCURVE",
"507 -8 OFFCURVE",
"591 -8 CURVE SMOOTH",
"759 -8 OFFCURVE",
"783 87 OFFCURVE",
"783 84 CURVE SMOOTH",
"783 89 OFFCURVE",
"781 92 OFFCURVE",
"778 95 CURVE SMOOTH",
"749 120 LINE",
"744 123 OFFCURVE",
"740 125 OFFCURVE",
"737 125 CURVE SMOOTH",
"727 125 OFFCURVE",
"700 92 OFFCURVE",
"675 75 CURVE SMOOTH",
"655 62 OFFCURVE",
"628 56 OFFCURVE",
"591 56 CURVE SMOOTH",
"521 56 OFFCURVE",
"459 97 OFFCURVE",
"449 224 CURVE",
"781 224 LINE SMOOTH",
"794 224 OFFCURVE",
"801 231 OFFCURVE",
"801 246 CURVE SMOOTH",
"801 439 OFFCURVE",
"706 521 OFFCURVE",
"587 521 CURVE SMOOTH",
"530 521 OFFCURVE",
"470 508 OFFCURVE",
"418 446 CURVE",
"417 446 LINE",
"382 509 OFFCURVE",
"323 521 OFFCURVE",
"260 521 CURVE SMOOTH",
"150 521 OFFCURVE",
"66 459 OFFCURVE",
"66 436 CURVE SMOOTH",
"66 432 OFFCURVE",
"67 429 OFFCURVE",
"70 426 CURVE SMOOTH",
"96 396 LINE SMOOTH",
"100 392 OFFCURVE",
"104 390 OFFCURVE",
"107 390 CURVE SMOOTH",
"111 390 OFFCURVE",
"116 393 OFFCURVE",
"121 398 CURVE SMOOTH",
"156 435 OFFCURVE",
"188 458 OFFCURVE",
"260 458 CURVE SMOOTH",
"337 458 OFFCURVE",
"361 407 OFFCURVE",
"361 345 CURVE SMOOTH",
"361 312 LINE",
"254 307 OFFCURVE",
"175 291 OFFCURVE",
"122 264 CURVE SMOOTH"
);
},
{
closed = 1;
nodes = (
"701 374 OFFCURVE",
"713 334 OFFCURVE",
"714 287 CURVE",
"447 287 LINE",
"457 419 OFFCURVE",
"515 458 OFFCURVE",
"585 458 CURVE SMOOTH",
"628 458 OFFCURVE",
"659 441 OFFCURVE",
"680 407 CURVE SMOOTH"
);
},
{
closed = 1;
nodes = (
"133 105 OFFCURVE",
"130 119 OFFCURVE",
"130 135 CURVE SMOOTH",
"130 207 OFFCURVE",
"201 235 OFFCURVE",
"361 248 CURVE",
"361 199 OFFCURVE",
"364 155 OFFCURVE",
"371 114 CURVE",
"321 68 OFFCURVE",
"282 58 OFFCURVE",
"223 58 CURVE SMOOTH",
"169 58 OFFCURVE",
"154 68 OFFCURVE",
"138 93 CURVE"
);
}
);
width = 844;
},
{
anchors = (
{
name = mark0;
position = "{0, 0}";
},
{
name = mark1;
position = "{431, 0}";
},
{
name = mark2;
position = "{415, 522}";
},
{
name = mark3;
position = "{0, 0}";
},
{
name = mark4;
position = "{0, 0}";
}
);
layerId = "7D4B8FA6-1CBF-4C70-BCBE-1433105F567F";
paths = (
{
closed = 1;
nodes = (
"70 249 OFFCURVE",
"39 202 OFFCURVE",
"39 137 CURVE SMOOTH",
"39 44 OFFCURVE",
"94 -10 OFFCURVE",
"207 -10 CURVE SMOOTH",
"266 -10 OFFCURVE",
"340 26 OFFCURVE",
"379 71 CURVE",
"380 71 LINE",
"422 12 OFFCURVE",
"489 -10 OFFCURVE",
"589 -10 CURVE SMOOTH",
"707 -10 OFFCURVE",
"745 15 OFFCURVE",
"783 61 CURVE SMOOTH",
"788 68 OFFCURVE",
"791 75 OFFCURVE",
"791 80 CURVE SMOOTH",
"791 89 OFFCURVE",
"786 96 OFFCURVE",
"775 103 CURVE SMOOTH",
"729 133 LINE SMOOTH",
"723 137 OFFCURVE",
"717 139 OFFCURVE",
"711 139 CURVE SMOOTH",
"702 139 OFFCURVE",
"695 135 OFFCURVE",
"688 126 CURVE SMOOTH",
"667 101 OFFCURVE",
"631 86 OFFCURVE",
"587 86 CURVE SMOOTH",
"534 86 OFFCURVE",
"483 113 OFFCURVE",
"477 209 CURVE",
"794 209 LINE SMOOTH",
"813 209 OFFCURVE",
"822 219 OFFCURVE",
"822 238 CURVE SMOOTH",
"822 436 OFFCURVE",
"742 522 OFFCURVE",
"566 522 CURVE SMOOTH",
"510 522 OFFCURVE",
"454 508 OFFCURVE",
"421 477 CURVE",
"419 477 LINE",
"385 507 OFFCURVE",
"335 522 OFFCURVE",
"270 522 CURVE SMOOTH",
"182 522 OFFCURVE",
"60 488 OFFCURVE",
"60 441 CURVE SMOOTH",
"60 437 OFFCURVE",
"62 432 OFFCURVE",
"66 427 CURVE SMOOTH",
"107 377 LINE SMOOTH",
"112 372 OFFCURVE",
"117 369 OFFCURVE",
"123 369 CURVE SMOOTH",
"136 369 OFFCURVE",
"178 405 OFFCURVE",
"207 417 CURVE SMOOTH",
"222 423 OFFCURVE",
"237 427 OFFCURVE",
"257 427 CURVE SMOOTH",
"312 427 OFFCURVE",
"340 400 OFFCURVE",
"340 345 CURVE SMOOTH",
"340 325 LINE",
"260 323 OFFCURVE",
"190 307 OFFCURVE",
"131 278 CURVE SMOOTH"
);
},
{
closed = 1;
nodes = (
"677 372 OFFCURVE",
"685 343 OFFCURVE",
"685 307 CURVE",
"477 307 LINE",
"480 382 OFFCURVE",
"517 426 OFFCURVE",
"577 426 CURVE SMOOTH",
"615 426 OFFCURVE",
"643 415 OFFCURVE",
"660 393 CURVE SMOOTH"
);
},
{
closed = 1;
nodes = (
"186 122 OFFCURVE",
"184 132 OFFCURVE",
"184 140 CURVE SMOOTH",
"184 183 OFFCURVE",
"214 216 OFFCURVE",
"340 231 CURVE",
"341 192 OFFCURVE",
"344 162 OFFCURVE",
"347 139 CURVE",
"310 104 OFFCURVE",
"275 86 OFFCURVE",
"242 86 CURVE SMOOTH",
"218 86 OFFCURVE",
"197 95 OFFCURVE",
"189 111 CURVE"
);
}
);
width = 862;
}
);
unicode = 00E6;
},
{
glyphname = b;
lastChange = "2016-10-15 04:12:12 +0000";
layers = (
{
anchors = (
{
name = mark0;
position = "{0, 0}";
},
{
name = mark1;
position = "{546, -195}";
},
{
name = mark2;
position = "{546, 721}";
},
{
name = mark3;
position = "{287, 0}";
},
{
name = mark4;
position = "{287, 721}";
},
{
name = mark5;
position = "{0, 0}";
},
{
name = mark6;
position = "{0, 0}";
}
);
layerId = UUID0;
paths = (
{
closed = 1;
nodes = (
"69 22 LINE SMOOTH",
"69 7 OFFCURVE",
"76 0 OFFCURVE",
"91 0 CURVE SMOOTH",
"132 0 LINE SMOOTH",
"144 0 OFFCURVE",
"149 7 OFFCURVE",
"151 22 CURVE SMOOTH",
"155 61 LINE",
"197 13 OFFCURVE",
"231 -8 OFFCURVE",
"306 -8 CURVE SMOOTH",
"440 -8 OFFCURVE",
"505 123 OFFCURVE",
"505 256 CURVE SMOOTH",
"505 393 OFFCURVE",
"437 521 OFFCURVE",
"306 521 CURVE SMOOTH",
"228 521 OFFCURVE",
"193 496 OFFCURVE",
"155 452 CURVE",
"154 452 LINE",
"155 458 OFFCURVE",
"155 468 OFFCURVE",
"155 481 CURVE SMOOTH",
"155 699 LINE SMOOTH",
"155 714 OFFCURVE",
"148 721 OFFCURVE",
"133 721 CURVE SMOOTH",
"91 721 LINE SMOOTH",
"76 721 OFFCURVE",
"69 714 OFFCURVE",
"69 699 CURVE SMOOTH"
);
},
{
closed = 1;
nodes = (
"167 116 OFFCURVE",
"155 152 OFFCURVE",
"155 200 CURVE SMOOTH",
"155 313 LINE SMOOTH",
"155 407 OFFCURVE",
"208 458 OFFCURVE",
"278 458 CURVE SMOOTH",
"377 458 OFFCURVE",
"414 375 OFFCURVE",
"414 256 CURVE SMOOTH",
"414 138 OFFCURVE",
"377 55 OFFCURVE",
"278 55 CURVE SMOOTH",
"243 55 OFFCURVE",
"213 67 OFFCURVE",
"190 91 CURVE SMOOTH"
);
}
);
width = 546;
},
{
anchors = (
{
name = mark0;
position = "{0, 0}";
},
{
name = mark1;
position = "{305, 0}";
},
{
name = mark2;
position = "{305, 721}";
},
{
name = mark3;
position = "{0, 0}";
},
{
name = mark4;
position = "{0, 0}";
}
);
layerId = "7D4B8FA6-1CBF-4C70-BCBE-1433105F567F";
paths = (
{
closed = 1;
nodes = (
"66 29 LINE SMOOTH",
"66 10 OFFCURVE",
"76 0 OFFCURVE",
"96 0 CURVE SMOOTH",
"173 0 LINE SMOOTH",
"189 0 OFFCURVE",
"198 10 OFFCURVE",
"199 29 CURVE SMOOTH",
"201 58 LINE",
"203 58 LINE",
"238 -2 OFFCURVE",
"284 -10 OFFCURVE",
"335 -10 CURVE SMOOTH",
"493 -10 OFFCURVE",
"543 123 OFFCURVE",
"543 256 CURVE SMOOTH",
"543 393 OFFCURVE",
"491 522 OFFCURVE",
"335 522 CURVE SMOOTH",
"274 522 OFFCURVE",
"238 510 OFFCURVE",
"203 455 CURVE",
"201 455 LINE",
"202 464 OFFCURVE",
"203 477 OFFCURVE",
"203 494 CURVE SMOOTH",
"203 691 LINE SMOOTH",
"203 711 OFFCURVE",
"193 721 OFFCURVE",
"174 721 CURVE SMOOTH",
"96 721 LINE SMOOTH",
"76 721 OFFCURVE",
"66 711 OFFCURVE",
"66 691 CURVE SMOOTH"
);
},
{
closed = 1;
nodes = (
"212 156 OFFCURVE",
"203 191 OFFCURVE",
"203 234 CURVE SMOOTH",
"203 278 LINE SMOOTH",
"203 367 OFFCURVE",
"245 427 OFFCURVE",
"292 427 CURVE SMOOTH",
"378 427 OFFCURVE",
"398 365 OFFCURVE",
"398 256 CURVE SMOOTH",
"398 150 OFFCURVE",
"380 86 OFFCURVE",
"292 86 CURVE SMOOTH",
"268 86 OFFCURVE",
"247 100 OFFCURVE",
"229 127 CURVE"
);
}
);
width = 582;
}
);
unicode = 0062;
},
{
glyphname = bhook;
lastChange = "2016-10-15 04:12:42 +0000";
layers = (
{
anchors = (
{
name = mark0;
position = "{0, 0}";
},
{
name = mark1;
position = "{546, -195}";
},
{
name = mark2;
position = "{546, 721}";
},
{
name = mark3;
position = "{287, 0}";
},
{
name = mark4;
position = "{287, 721}";
},
{
name = mark5;
position = "{0, 0}";
},
{
name = mark6;
position = "{0, 0}";
}
);
layerId = UUID0;
paths = (
{
closed = 1;
nodes = (
"69 22 LINE SMOOTH",
"69 7 OFFCURVE",
"76 0 OFFCURVE",
"91 0 CURVE SMOOTH",
"132 0 LINE SMOOTH",
"144 0 OFFCURVE",
"149 7 OFFCURVE",
"151 22 CURVE SMOOTH",
"155 61 LINE",
"197 13 OFFCURVE",
"231 -8 OFFCURVE",
"306 -8 CURVE SMOOTH",
"440 -8 OFFCURVE",
"505 123 OFFCURVE",
"505 256 CURVE SMOOTH",
"505 393 OFFCURVE",
"437 521 OFFCURVE",
"306 521 CURVE SMOOTH",
"228 521 OFFCURVE",
"193 496 OFFCURVE",
"155 452 CURVE",
"154 452 LINE",
"155 458 OFFCURVE",
"155 468 OFFCURVE",
"155 481 CURVE SMOOTH",
"155 500 LINE SMOOTH",
"155 637 OFFCURVE",
"200 666 OFFCURVE",
"273 666 CURVE SMOOTH",
"334 666 OFFCURVE",
"357 655 OFFCURVE",
"402 617 CURVE SMOOTH",
"408 612 OFFCURVE",
"413 610 OFFCURVE",
"417 610 CURVE SMOOTH",
"420 610 OFFCURVE",
"424 612 OFFCURVE",
"427 615 CURVE SMOOTH",
"454 642 LINE SMOOTH",
"457 645 OFFCURVE",
"459 649 OFFCURVE",
"459 653 CURVE SMOOTH",
"459 686 OFFCURVE",
"381 729 OFFCURVE",
"273 729 CURVE SMOOTH",
"131 729 OFFCURVE",
"69 644 OFFCURVE",
"69 513 CURVE SMOOTH"
);
},
{
closed = 1;
nodes = (
"167 116 OFFCURVE",
"155 152 OFFCURVE",
"155 200 CURVE SMOOTH",
"155 313 LINE SMOOTH",
"155 407 OFFCURVE",
"208 458 OFFCURVE",
"278 458 CURVE SMOOTH",
"377 458 OFFCURVE",
"414 375 OFFCURVE",
"414 256 CURVE SMOOTH",
"414 138 OFFCURVE",
"377 55 OFFCURVE",
"278 55 CURVE SMOOTH",
"243 55 OFFCURVE",
"213 67 OFFCURVE",
"190 91 CURVE SMOOTH"
);
}
);
width = 546;
},
{
layerId = "7D4B8FA6-1CBF-4C70-BCBE-1433105F567F";
width = 600;
}
);
unicode = 0253;
},
{
glyphname = bidentalpercussive;
lastChange = "2016-10-15 04:12:42 +0000";
layers = (
{
layerId = UUID0;
paths = (
{
closed = 1;
nodes = (
"57 478 LINE SMOOTH",
"57 463 OFFCURVE",
"64 456 OFFCURVE",
"79 456 CURVE SMOOTH",
"116 456 LINE SMOOTH",
"131 456 OFFCURVE",
"138 463 OFFCURVE",
"138 478 CURVE SMOOTH",
"138 627 LINE",
"366 627 LINE",
"366 478 LINE SMOOTH",
"366 463 OFFCURVE",
"373 456 OFFCURVE",
"388 456 CURVE SMOOTH",
"425 456 LINE SMOOTH",
"440 456 OFFCURVE",
"447 463 OFFCURVE",
"447 478 CURVE SMOOTH",
"447 678 LINE SMOOTH",
"447 693 OFFCURVE",
"440 700 OFFCURVE",
"425 700 CURVE SMOOTH",
"79 700 LINE SMOOTH",
"64 700 OFFCURVE",
"57 693 OFFCURVE",
"57 678 CURVE SMOOTH"
);
},
{
closed = 1;
nodes = (
"57 22 LINE SMOOTH",
"57 7 OFFCURVE",
"64 0 OFFCURVE",
"79 0 CURVE SMOOTH",
"116 0 LINE SMOOTH",
"131 0 OFFCURVE",
"138 7 OFFCURVE",
"138 22 CURVE SMOOTH",
"138 171 LINE",
"366 171 LINE",
"366 22 LINE SMOOTH",
"366 7 OFFCURVE",
"373 0 OFFCURVE",
"388 0 CURVE SMOOTH",
"425 0 LINE SMOOTH",
"440 0 OFFCURVE",
"447 7 OFFCURVE",
"447 22 CURVE SMOOTH",
"447 222 LINE SMOOTH",
"447 237 OFFCURVE",
"440 244 OFFCURVE",
"425 244 CURVE SMOOTH",
"79 244 LINE SMOOTH",
"64 244 OFFCURVE",
"57 237 OFFCURVE",
"57 222 CURVE SMOOTH"
);
}
);
width = 504;
},
{
layerId = "7D4B8FA6-1CBF-4C70-BCBE-1433105F567F";
width = 600;
}
);
unicode = 02AD;
},
{
glyphname = bilabialpercussive;
lastChange = "2016-10-15 04:12:42 +0000";
layers = (
{
layerId = UUID0;
paths = (
{
closed = 1;
nodes = (
"23 689 OFFCURVE",
"23 687 OFFCURVE",
"24 686 CURVE",
"98 411 LINE SMOOTH",
"101 399 OFFCURVE",
"106 393 OFFCURVE",
"113 393 CURVE SMOOTH",
"150 393 LINE SMOOTH",
"158 393 OFFCURVE",
"163 399 OFFCURVE",
"166 411 CURVE SMOOTH",
"223 625 LINE",
"226 644 LINE",
"229 625 LINE SMOOTH",
"229 621 OFFCURVE",
"231 612 OFFCURVE",
"235 599 CURVE SMOOTH",
"286 411 LINE SMOOTH",
"289 399 OFFCURVE",
"294 393 OFFCURVE",
"301 393 CURVE SMOOTH",
"338 393 LINE SMOOTH",
"346 393 OFFCURVE",
"351 399 OFFCURVE",
"354 411 CURVE SMOOTH",
"427 686 LINE SMOOTH",
"428 688 OFFCURVE",
"428 691 OFFCURVE",
"428 693 CURVE SMOOTH",
"428 697 OFFCURVE",
"425 700 OFFCURVE",
"419 700 CURVE SMOOTH",
"387 700 LINE SMOOTH",
"380 700 OFFCURVE",
"375 696 OFFCURVE",
"374 689 CURVE",
"329 498 LINE SMOOTH",
"326 486 OFFCURVE",
"318 460 OFFCURVE",
"317 444 CURVE",
"315 444 LINE",
"313 455 OFFCURVE",
"310 473 OFFCURVE",
"304 498 CURVE SMOOTH",
"254 689 LINE SMOOTH",
"252 696 OFFCURVE",
"248 700 OFFCURVE",
"241 700 CURVE SMOOTH",
"210 700 LINE SMOOTH",
"203 700 OFFCURVE",
"199 696 OFFCURVE",
"197 689 CURVE SMOOTH",
"148 498 LINE SMOOTH",
"145 486 OFFCURVE",
"137 460 OFFCURVE",
"136 444 CURVE",
"135 444 LINE",
"134 448 OFFCURVE",
"133 456 OFFCURVE",
"130 467 CURVE SMOOTH",
"78 689 LINE SMOOTH",
"76 696 OFFCURVE",
"71 700 OFFCURVE",
"64 700 CURVE SMOOTH",
"32 700 LINE SMOOTH",
"26 700 OFFCURVE",
"23 697 OFFCURVE",
"23 692 CURVE SMOOTH"
);
},
{
closed = 1;
nodes = (
"23 297 OFFCURVE",
"23 295 OFFCURVE",
"24 293 CURVE SMOOTH",
"98 18 LINE SMOOTH",
"101 6 OFFCURVE",
"106 0 OFFCURVE",
"113 0 CURVE SMOOTH",
"150 0 LINE SMOOTH",
"158 0 OFFCURVE",
"163 6 OFFCURVE",
"166 18 CURVE SMOOTH",
"223 232 LINE",
"226 251 LINE",
"229 232 LINE",
"228 227 OFFCURVE",
"232 219 OFFCURVE",
"235 207 CURVE SMOOTH",
"286 18 LINE SMOOTH",
"289 6 OFFCURVE",
"294 0 OFFCURVE",
"301 0 CURVE SMOOTH",
"338 0 LINE SMOOTH",
"346 0 OFFCURVE",
"351 6 OFFCURVE",
"354 18 CURVE SMOOTH",
"427 293 LINE SMOOTH",
"428 296 OFFCURVE",
"428 298 OFFCURVE",
"428 300 CURVE SMOOTH",
"428 305 OFFCURVE",
"425 308 OFFCURVE",
"419 308 CURVE SMOOTH",
"387 308 LINE SMOOTH",
"380 308 OFFCURVE",
"375 304 OFFCURVE",
"374 296 CURVE",
"324 85 LINE",
"323 78 OFFCURVE",
"318 63 OFFCURVE",
"317 52 CURVE",
"315 52 LINE",
"313 62 OFFCURVE",
"310 80 OFFCURVE",
"304 105 CURVE SMOOTH",
"254 296 LINE SMOOTH",
"252 304 OFFCURVE",
"248 308 OFFCURVE",
"241 308 CURVE SMOOTH",
"210 308 LINE SMOOTH",
"203 308 OFFCURVE",
"199 304 OFFCURVE",
"197 296 CURVE SMOOTH",
"143 85 LINE",
"142 78 OFFCURVE",
"137 63 OFFCURVE",
"136 52 CURVE",
"135 52 LINE",
"135 55 OFFCURVE",
"133 62 OFFCURVE",
"130 74 CURVE SMOOTH",
"78 296 LINE SMOOTH",
"76 304 OFFCURVE",
"71 308 OFFCURVE",
"64 308 CURVE SMOOTH",
"32 308 LINE SMOOTH",
"26 308 OFFCURVE",
"23 305 OFFCURVE",
"23 300 CURVE SMOOTH"
);
}
);
width = 443;
},
{
layerId = "7D4B8FA6-1CBF-4C70-BCBE-1433105F567F";
width = 600;
}
);
unicode = 02AC;
},
{
glyphname = bstroke;
lastChange = "2016-10-15 04:12:42 +0000";
layers = (
{
layerId = UUID0;
paths = (
{
closed = 1;
nodes = (
"15 607 LINE SMOOTH",
"15 596 OFFCURVE",
"22 590 OFFCURVE",
"37 590 CURVE SMOOTH",
"104 590 LINE",
"104 22 LINE SMOOTH",
"104 7 OFFCURVE",
"111 0 OFFCURVE",
"125 0 CURVE SMOOTH",
"167 0 LINE SMOOTH",
"179 0 OFFCURVE",
"185 7 OFFCURVE",
"186 22 CURVE SMOOTH",
"189 61 LINE",
"235 11 OFFCURVE",
"266 -8 OFFCURVE",
"340 -8 CURVE SMOOTH",
"476 -8 OFFCURVE",
"539 125 OFFCURVE",
"539 256 CURVE SMOOTH",
"539 392 OFFCURVE",
"472 521 OFFCURVE",
"340 521 CURVE SMOOTH",
"263 521 OFFCURVE",
"230 497 OFFCURVE",
"189 452 CURVE",
"188 452 LINE",
"189 458 OFFCURVE",
"189 468 OFFCURVE",
"189 481 CURVE SMOOTH",
"189 590 LINE",
"367 590 LINE SMOOTH",
"382 590 OFFCURVE",
"389 596 OFFCURVE",
"389 607 CURVE SMOOTH",
"389 637 LINE SMOOTH",
"389 648 OFFCURVE",
"382 654 OFFCURVE",
"367 654 CURVE SMOOTH",
"189 654 LINE",
"189 699 LINE SMOOTH",
"189 714 OFFCURVE",
"182 721 OFFCURVE",
"167 721 CURVE SMOOTH",
"125 721 LINE SMOOTH",
"111 721 OFFCURVE",
"104 714 OFFCURVE",
"104 699 CURVE SMOOTH",
"104 654 LINE",
"37 654 LINE SMOOTH",
"22 654 OFFCURVE",
"15 648 OFFCURVE",
"15 637 CURVE SMOOTH"
);
},
{
closed = 1;
nodes = (
"201 116 OFFCURVE",
"189 152 OFFCURVE",
"189 200 CURVE SMOOTH",
"189 313 LINE SMOOTH",
"189 410 OFFCURVE",
"246 458 OFFCURVE",
"312 458 CURVE SMOOTH",
"411 458 OFFCURVE",
"448 375 OFFCURVE",
"448 256 CURVE SMOOTH",
"448 138 OFFCURVE",
"411 55 OFFCURVE",
"312 55 CURVE SMOOTH",
"277 55 OFFCURVE",
"248 67 OFFCURVE",
"224 91 CURVE"
);
}
);
width = 581;
},
{
layerId = "7D4B8FA6-1CBF-4C70-BCBE-1433105F567F";
width = 600;
}
);
unicode = 0180;
},
{
glyphname = c;
lastChange = "2016-10-15 04:12:12 +0000";
layers = (
{
anchors = (
{
name = mark0;
position = "{0, 0}";
},
{
name = mark1;
position = "{501, -195}";
},
{
name = mark2;
position = "{501, 721}";
},
{
name = mark3;
position = "{272, 0}";
},
{
name = mark4;
position = "{272, 521}";
},
{
name = mark5;
position = "{0, 0}";
},
{
name = mark6;
position = "{0, 0}";
}
);
layerId = UUID0;
paths = (
{
closed = 1;
nodes = (
"61 395 OFFCURVE",
"42 332 OFFCURVE",
"42 256 CURVE SMOOTH",
"42 109 OFFCURVE",
"111 -8 OFFCURVE",
"272 -8 CURVE SMOOTH",
"399 -8 OFFCURVE",
"450 64 OFFCURVE",
"463 88 CURVE SMOOTH",
"466 93 OFFCURVE",
"468 98 OFFCURVE",
"468 102 CURVE SMOOTH",
"468 108 OFFCURVE",
"465 112 OFFCURVE",
"459 115 CURVE SMOOTH",
"426 134 LINE SMOOTH",
"423 136 OFFCURVE",
"420 137 OFFCURVE",
"417 137 CURVE SMOOTH",
"391 137 OFFCURVE",
"383 55 OFFCURVE",
"272 55 CURVE SMOOTH",
"181 55 OFFCURVE",
"132 123 OFFCURVE",
"132 256 CURVE SMOOTH",
"132 391 OFFCURVE",
"181 458 OFFCURVE",
"272 458 CURVE SMOOTH",
"372 458 OFFCURVE",
"389 387 OFFCURVE",
"409 387 CURVE SMOOTH",
"412 387 OFFCURVE",
"415 388 OFFCURVE",
"418 390 CURVE SMOOTH",
"449 410 LINE SMOOTH",
"455 414 OFFCURVE",
"458 419 OFFCURVE",
"458 424 CURVE SMOOTH",
"458 442 OFFCURVE",
"423 472 OFFCURVE",
"393 493 CURVE SMOOTH",
"366 512 OFFCURVE",
"325 521 OFFCURVE",
"272 521 CURVE SMOOTH",
"194 521 OFFCURVE",
"136 496 OFFCURVE",
"98 446 CURVE"
);
}
);
width = 501;
},
{
anchors = (
{
name = mark0;
position = "{0, 0}";
},
{
name = mark1;
position = "{293, 0}";
},
{
name = mark2;
position = "{293, 522}";
},
{
name = mark3;
position = "{0, 0}";
},
{
name = mark4;
position = "{0, 0}";
}
);
layerId = "7D4B8FA6-1CBF-4C70-BCBE-1433105F567F";
paths = (
{
closed = 1;
nodes = (
"60 404 OFFCURVE",
"39 339 OFFCURVE",
"39 256 CURVE SMOOTH",
"39 93 OFFCURVE",
"120 -10 OFFCURVE",
"293 -10 CURVE SMOOTH",
"438 -10 OFFCURVE",
"498 67 OFFCURVE",
"498 96 CURVE SMOOTH",
"498 103 OFFCURVE",
"495 110 OFFCURVE",
"488 116 CURVE SMOOTH",
"442 152 LINE",
"437 157 OFFCURVE",
"431 159 OFFCURVE",
"425 159 CURVE SMOOTH",
"409 159 OFFCURVE",
"379 118 OFFCURVE",
"357 103 CURVE SMOOTH",
"341 92 OFFCURVE",
"320 86 OFFCURVE",
"293 86 CURVE SMOOTH",
"221 86 OFFCURVE",
"184 129 OFFCURVE",
"184 256 CURVE SMOOTH",
"184 381 OFFCURVE",
"220 427 OFFCURVE",
"293 427 CURVE SMOOTH",
"375 427 OFFCURVE",
"384 369 OFFCURVE",
"407 369 CURVE SMOOTH",
"413 369 OFFCURVE",
"418 371 OFFCURVE",
"422 374 CURVE SMOOTH",
"474 408 LINE SMOOTH",
"481 413 OFFCURVE",
"485 420 OFFCURVE",
"485 427 CURVE SMOOTH",
"485 454 OFFCURVE",
"437 489 OFFCURVE",
"411 502 CURVE SMOOTH",
"384 515 OFFCURVE",
"345 522 OFFCURVE",
"293 522 CURVE SMOOTH",
"206 522 OFFCURVE",
"143 499 OFFCURVE",
"102 452 CURVE SMOOTH"
);
}
);
width = 530;
}
);
unicode = 0063;
},
{
glyphname = ccedilla;
lastChange = "2016-10-15 04:12:12 +0000";
layers = (
{
anchors = (
{
name = mark0;
position = "{0, 0}";
},
{
name = mark1;
position = "{0, 0}";
},
{
name = mark2;
position = "{0, 0}";
},
{
name = mark3;
position = "{0, 0}";
},
{
name = mark4;
position = "{272, 521}";
},
{
name = mark5;
position = "{0, 0}";
},
{
name = mark6;
position = "{0, 0}";
}
);
layerId = UUID0;
paths = (
{
closed = 1;
nodes = (
"468 108 OFFCURVE",
"465 112 OFFCURVE",
"459 115 CURVE SMOOTH",
"426 134 LINE SMOOTH",
"423 136 OFFCURVE",
"420 137 OFFCURVE",
"417 137 CURVE SMOOTH",
"391 137 OFFCURVE",
"383 55 OFFCURVE",
"272 55 CURVE SMOOTH",
"181 55 OFFCURVE",
"132 123 OFFCURVE",
"132 256 CURVE SMOOTH",
"132 391 OFFCURVE",
"181 458 OFFCURVE",
"272 458 CURVE SMOOTH",
"372 458 OFFCURVE",
"389 387 OFFCURVE",
"409 387 CURVE SMOOTH",
"412 387 OFFCURVE",
"415 388 OFFCURVE",
"418 390 CURVE SMOOTH",
"449 410 LINE SMOOTH",
"455 414 OFFCURVE",
"458 419 OFFCURVE",
"458 424 CURVE SMOOTH",
"458 442 OFFCURVE",
"423 472 OFFCURVE",
"393 493 CURVE SMOOTH",
"366 512 OFFCURVE",
"325 521 OFFCURVE",
"272 521 CURVE SMOOTH",
"113 521 OFFCURVE",
"42 405 OFFCURVE",
"42 256 CURVE SMOOTH",
"42 120 OFFCURVE",
"101 9 OFFCURVE",
"240 -7 CURVE",
"213 -53 LINE",
"210 -60 OFFCURVE",
"208 -69 OFFCURVE",
"208 -80 CURVE SMOOTH",
"208 -88 OFFCURVE",
"212 -92 OFFCURVE",
"220 -92 CURVE SMOOTH",
"234 -92 LINE SMOOTH",
"266 -92 OFFCURVE",
"287 -102 OFFCURVE",
"287 -121 CURVE SMOOTH",
"287 -143 OFFCURVE",
"271 -154 OFFCURVE",
"238 -154 CURVE SMOOTH",
"220 -154 OFFCURVE",
"204 -146 OFFCURVE",
"191 -146 CURVE SMOOTH",
"184 -146 OFFCURVE",
"180 -150 OFFCURVE",
"178 -157 CURVE SMOOTH",
"173 -176 LINE SMOOTH",
"172 -178 OFFCURVE",
"172 -180 OFFCURVE",
"172 -182 CURVE SMOOTH",
"172 -200 OFFCURVE",
"225 -203 OFFCURVE",
"242 -203 CURVE SMOOTH",
"306 -203 OFFCURVE",
"347 -172 OFFCURVE",
"347 -123 CURVE SMOOTH",
"347 -86 OFFCURVE",
"324 -52 OFFCURVE",
"275 -48 CURVE",
"299 -7 LINE",
"402 -1 OFFCURVE",
"451 67 OFFCURVE",
"463 88 CURVE SMOOTH",
"466 93 OFFCURVE",
"468 98 OFFCURVE",
"468 102 CURVE SMOOTH"
);
}
);
width = 501;
},
{
anchors = (
{
name = mark0;
position = "{0, 0}";
},
{
name = mark1;
position = "{0, 0}";
},
{
name = mark2;
position = "{293, 522}";
},
{
name = mark3;
position = "{0, 0}";
},
{
name = mark4;
position = "{0, 0}";
}
);
layerId = "7D4B8FA6-1CBF-4C70-BCBE-1433105F567F";
paths = (
{
closed = 1;
nodes = (
"498 103 OFFCURVE",
"495 110 OFFCURVE",
"488 116 CURVE SMOOTH",
"442 152 LINE",
"437 157 OFFCURVE",
"431 159 OFFCURVE",
"425 159 CURVE SMOOTH",
"409 159 OFFCURVE",
"379 118 OFFCURVE",
"357 103 CURVE SMOOTH",
"341 92 OFFCURVE",
"320 86 OFFCURVE",
"293 86 CURVE SMOOTH",
"221 86 OFFCURVE",
"184 129 OFFCURVE",
"184 256 CURVE SMOOTH",
"184 381 OFFCURVE",
"220 427 OFFCURVE",
"293 427 CURVE SMOOTH",
"375 427 OFFCURVE",
"384 369 OFFCURVE",
"407 369 CURVE SMOOTH",
"413 369 OFFCURVE",
"418 371 OFFCURVE",
"422 374 CURVE SMOOTH",
"474 408 LINE SMOOTH",
"481 413 OFFCURVE",
"485 420 OFFCURVE",
"485 427 CURVE SMOOTH",
"485 454 OFFCURVE",
"437 489 OFFCURVE",
"411 502 CURVE SMOOTH",
"384 515 OFFCURVE",
"345 522 OFFCURVE",
"293 522 CURVE SMOOTH",
"116 522 OFFCURVE",
"39 418 OFFCURVE",
"39 256 CURVE SMOOTH",
"39 110 OFFCURVE",
"106 12 OFFCURVE",
"238 -6 CURVE",
"218 -46 LINE SMOOTH",
"213 -55 OFFCURVE",
"211 -66 OFFCURVE",
"211 -79 CURVE SMOOTH",
"211 -90 OFFCURVE",
"217 -96 OFFCURVE",
"228 -96 CURVE SMOOTH",
"238 -96 LINE SMOOTH",
"271 -96 OFFCURVE",
"288 -104 OFFCURVE",
"288 -121 CURVE SMOOTH",
"288 -139 OFFCURVE",
"274 -148 OFFCURVE",
"245 -148 CURVE SMOOTH",
"230 -148 OFFCURVE",
"217 -146 OFFCURVE",
"206 -142 CURVE SMOOTH",
"198 -140 LINE",
"191 -140 OFFCURVE",
"186 -144 OFFCURVE",
"184 -153 CURVE SMOOTH",
"177 -175 LINE SMOOTH",
"176 -177 OFFCURVE",
"176 -180 OFFCURVE",
"176 -183 CURVE SMOOTH",
"176 -202 OFFCURVE",
"228 -205 OFFCURVE",
"250 -205 CURVE SMOOTH",
"309 -205 OFFCURVE",
"364 -185 OFFCURVE",
"364 -119 CURVE SMOOTH",
"364 -76 OFFCURVE",
"344 -52 OFFCURVE",
"289 -44 CURVE",
"306 -10 LINE",
"450 -5 OFFCURVE",
"498 72 OFFCURVE",
"498 96 CURVE SMOOTH"
);
}
);
width = 530;
}
);
unicode = 00E7;
},
{
glyphname = ccedillaacute;
lastChange = "2016-10-15 04:12:42 +0000";
layers = (
{
anchors = (
{
name = mark0;
position = "{0, 0}";
},
{
name = mark1;
position = "{0, 0}";
},
{
name = mark2;
position = "{0, 0}";
},
{
name = mark3;
position = "{0, 0}";
},
{
name = mark4;
position = "{272, 680}";
},
{
name = mark5;
position = "{0, 0}";
},
{
name = mark6;
position = "{0, 0}";
}
);
layerId = UUID0;
paths = (
{
closed = 1;
nodes = (
"196 565 OFFCURVE",
"201 562 OFFCURVE",
"210 562 CURVE SMOOTH",
"246 562 LINE SMOOTH",
"263 562 OFFCURVE",
"278 566 OFFCURVE",
"286 576 CURVE SMOOTH",
"372 675 LINE SMOOTH",
"379 682 OFFCURVE",
"382 688 OFFCURVE",
"382 693 CURVE SMOOTH",
"382 698 OFFCURVE",
"377 701 OFFCURVE",
"366 701 CURVE SMOOTH",
"311 701 LINE SMOOTH",
"293 701 OFFCURVE",
"280 695 OFFCURVE",
"272 683 CURVE SMOOTH",
"204 587 LINE SMOOTH",
"199 580 OFFCURVE",
"196 574 OFFCURVE",
"196 570 CURVE SMOOTH"
);
},
{
closed = 1;
nodes = (
"468 108 OFFCURVE",
"465 112 OFFCURVE",
"459 115 CURVE SMOOTH",
"426 134 LINE SMOOTH",
"423 136 OFFCURVE",
"420 137 OFFCURVE",
"417 137 CURVE SMOOTH",
"391 137 OFFCURVE",
"383 55 OFFCURVE",
"272 55 CURVE SMOOTH",
"181 55 OFFCURVE",
"132 123 OFFCURVE",
"132 256 CURVE SMOOTH",
"132 391 OFFCURVE",
"181 458 OFFCURVE",
"272 458 CURVE SMOOTH",
"372 458 OFFCURVE",
"389 387 OFFCURVE",
"409 387 CURVE SMOOTH",
"412 387 OFFCURVE",
"415 388 OFFCURVE",
"418 390 CURVE SMOOTH",
"449 410 LINE SMOOTH",
"455 414 OFFCURVE",
"458 419 OFFCURVE",
"458 424 CURVE SMOOTH",
"458 442 OFFCURVE",
"423 472 OFFCURVE",
"393 493 CURVE SMOOTH",
"366 512 OFFCURVE",
"325 521 OFFCURVE",
"272 521 CURVE SMOOTH",
"113 521 OFFCURVE",
"42 405 OFFCURVE",
"42 256 CURVE SMOOTH",
"42 120 OFFCURVE",
"101 9 OFFCURVE",
"240 -7 CURVE",
"213 -53 LINE",
"210 -60 OFFCURVE",
"208 -69 OFFCURVE",
"208 -80 CURVE SMOOTH",
"208 -88 OFFCURVE",
"212 -92 OFFCURVE",
"220 -92 CURVE SMOOTH",
"234 -92 LINE SMOOTH",
"266 -92 OFFCURVE",
"287 -102 OFFCURVE",
"287 -121 CURVE SMOOTH",
"287 -143 OFFCURVE",
"271 -154 OFFCURVE",
"238 -154 CURVE SMOOTH",
"220 -154 OFFCURVE",
"204 -146 OFFCURVE",
"191 -146 CURVE SMOOTH",
"184 -146 OFFCURVE",
"180 -150 OFFCURVE",
"178 -157 CURVE SMOOTH",
"173 -176 LINE SMOOTH",
"172 -178 OFFCURVE",
"172 -180 OFFCURVE",
"172 -182 CURVE SMOOTH",
"172 -200 OFFCURVE",
"225 -203 OFFCURVE",
"242 -203 CURVE SMOOTH",
"306 -203 OFFCURVE",
"347 -172 OFFCURVE",
"347 -123 CURVE SMOOTH",
"347 -86 OFFCURVE",
"324 -52 OFFCURVE",
"275 -48 CURVE",
"299 -7 LINE",
"402 -1 OFFCURVE",
"451 67 OFFCURVE",
"463 88 CURVE SMOOTH",
"466 93 OFFCURVE",
"468 98 OFFCURVE",
"468 102 CURVE SMOOTH"
);
}
);
width = 501;
},
{
anchors = (
{
name = mark0;
position = "{0, 0}";
},
{
name = mark1;
position = "{0, 0}";
},
{
name = mark2;
position = "{293, 680}";
},
{
name = mark3;
position = "{0, 0}";
},
{
name = mark4;
position = "{0, 0}";
}
);
layerId = "7D4B8FA6-1CBF-4C70-BCBE-1433105F567F";
paths = (
{
closed = 1;
nodes = (
"212 566 OFFCURVE",
"218 562 OFFCURVE",
"229 562 CURVE SMOOTH",
"278 562 LINE",
"302 561 OFFCURVE",
"317 569 OFFCURVE",
"327 580 CURVE SMOOTH",
"408 672 LINE SMOOTH",
"415 679 OFFCURVE",
"418 686 OFFCURVE",
"418 691 CURVE SMOOTH",
"418 698 OFFCURVE",
"411 701 OFFCURVE",
"397 701 CURVE SMOOTH",
"323 701 LINE SMOOTH",
"298 701 OFFCURVE",
"280 693 OFFCURVE",
"271 678 CURVE SMOOTH",
"218 590 LINE SMOOTH",
"214 583 OFFCURVE",
"212 578 OFFCURVE",
"212 573 CURVE SMOOTH"
);
},
{
closed = 1;
nodes = (
"498 103 OFFCURVE",
"495 110 OFFCURVE",
"488 116 CURVE SMOOTH",
"442 152 LINE",
"437 157 OFFCURVE",
"431 159 OFFCURVE",
"425 159 CURVE SMOOTH",
"409 159 OFFCURVE",
"379 118 OFFCURVE",
"357 103 CURVE SMOOTH",
"341 92 OFFCURVE",
"320 86 OFFCURVE",
"293 86 CURVE SMOOTH",
"221 86 OFFCURVE",
"184 129 OFFCURVE",
"184 256 CURVE SMOOTH",
"184 381 OFFCURVE",
"220 427 OFFCURVE",
"293 427 CURVE SMOOTH",
"375 427 OFFCURVE",
"384 369 OFFCURVE",
"407 369 CURVE SMOOTH",
"413 369 OFFCURVE",
"418 371 OFFCURVE",
"422 374 CURVE SMOOTH",
"474 408 LINE SMOOTH",
"481 413 OFFCURVE",
"485 420 OFFCURVE",
"485 427 CURVE SMOOTH",
"485 454 OFFCURVE",
"437 489 OFFCURVE",
"411 502 CURVE SMOOTH",
"384 515 OFFCURVE",
"345 522 OFFCURVE",
"293 522 CURVE SMOOTH",
"116 522 OFFCURVE",
"39 418 OFFCURVE",
"39 256 CURVE SMOOTH",
"39 110 OFFCURVE",
"106 12 OFFCURVE",
"238 -6 CURVE",
"218 -46 LINE SMOOTH",
"213 -55 OFFCURVE",
"211 -66 OFFCURVE",
"211 -79 CURVE SMOOTH",
"211 -90 OFFCURVE",
"217 -96 OFFCURVE",
"228 -96 CURVE SMOOTH",
"238 -96 LINE SMOOTH",
"271 -96 OFFCURVE",
"288 -104 OFFCURVE",
"288 -121 CURVE SMOOTH",
"288 -139 OFFCURVE",
"274 -148 OFFCURVE",
"245 -148 CURVE SMOOTH",
"230 -148 OFFCURVE",
"217 -146 OFFCURVE",
"206 -142 CURVE SMOOTH",
"198 -140 LINE",
"191 -140 OFFCURVE",
"186 -144 OFFCURVE",
"184 -153 CURVE SMOOTH",
"177 -175 LINE SMOOTH",
"176 -177 OFFCURVE",
"176 -180 OFFCURVE",
"176 -183 CURVE SMOOTH",
"176 -202 OFFCURVE",
"228 -205 OFFCURVE",
"250 -205 CURVE SMOOTH",
"309 -205 OFFCURVE",
"364 -185 OFFCURVE",
"364 -119 CURVE SMOOTH",
"364 -76 OFFCURVE",
"344 -52 OFFCURVE",
"289 -44 CURVE",
"306 -10 LINE",
"450 -5 OFFCURVE",
"498 72 OFFCURVE",
"498 96 CURVE SMOOTH"
);
}
);
width = 530;
}
);
unicode = 1E09;
},
{
glyphname = ccurl;
lastChange = "2016-10-15 04:12:42 +0000";
layers = (
{
anchors = (
{
name = mark0;
position = "{0, 0}";
},
{
name = mark1;
position = "{501, -195}";
},
{
name = mark2;
position = "{501, 721}";
},
{
name = mark3;
position = "{0, 0}";
},
{
name = mark4;
position = "{272, 521}";
},
{
name = mark5;
position = "{0, 0}";
},
{
name = mark6;
position = "{0, 0}";
}
);
layerId = UUID0;
paths = (
{
closed = 1;
nodes = (
"61 396 OFFCURVE",
"42 333 OFFCURVE",
"42 256 CURVE SMOOTH",
"42 116 OFFCURVE",
"108 34 OFFCURVE",
"157 17 CURVE",
"142 -21 OFFCURVE",
"125 -65 OFFCURVE",
"125 -97 CURVE SMOOTH",
"125 -108 OFFCURVE",
"129 -114 OFFCURVE",
"137 -116 CURVE SMOOTH",
"174 -125 LINE SMOOTH",
"176 -126 OFFCURVE",
"179 -126 OFFCURVE",
"182 -126 CURVE SMOOTH",
"199 -126 OFFCURVE",
"208 -58 OFFCURVE",
"225 -5 CURVE",
"242 -7 OFFCURVE",
"258 -8 OFFCURVE",
"272 -8 CURVE SMOOTH",
"405 -8 OFFCURVE",
"464 56 OFFCURVE",
"464 114 CURVE SMOOTH",
"464 177 OFFCURVE",
"410 212 OFFCURVE",
"343 212 CURVE SMOOTH",
"260 212 OFFCURVE",
"204 147 OFFCURVE",
"186 86 CURVE",
"161 107 OFFCURVE",
"132 148 OFFCURVE",
"132 256 CURVE SMOOTH",
"132 391 OFFCURVE",
"181 458 OFFCURVE",
"272 458 CURVE SMOOTH",
"372 458 OFFCURVE",
"389 387 OFFCURVE",
"409 387 CURVE SMOOTH",
"412 387 OFFCURVE",
"415 388 OFFCURVE",
"418 390 CURVE SMOOTH",
"449 410 LINE SMOOTH",
"455 414 OFFCURVE",
"458 419 OFFCURVE",
"458 424 CURVE SMOOTH",
"458 445 OFFCURVE",
"421 474 OFFCURVE",
"393 493 CURVE SMOOTH",
"365 511 OFFCURVE",
"325 521 OFFCURVE",
"272 521 CURVE SMOOTH",
"193 521 OFFCURVE",
"136 496 OFFCURVE",
"99 446 CURVE SMOOTH"
);
},
{
closed = 1;
nodes = (
"265 55 OFFCURVE",
"257 56 OFFCURVE",
"246 57 CURVE",
"266 114 OFFCURVE",
"306 148 OFFCURVE",
"342 148 CURVE SMOOTH",
"373 148 OFFCURVE",
"389 139 OFFCURVE",
"389 115 CURVE SMOOTH",
"389 92 OFFCURVE",
"353 55 OFFCURVE",
"272 55 CURVE SMOOTH"
);
}
);
width = 501;
},
{
layerId = "7D4B8FA6-1CBF-4C70-BCBE-1433105F567F";
width = 600;
}
);
unicode = 0255;
},
{
glyphname = cstretched;
lastChange = "2016-10-15 04:12:42 +0000";
layers = (
{
anchors = (
{
name = mark0;
position = "{0, 0}";
},
{
name = mark1;
position = "{501, -195}";
},
{
name = mark2;
position = "{501, 721}";
},
{
name = mark3;
position = "{272, -195}";
},
{
name = mark4;
position = "{272, 721}";
},
{
name = mark5;
position = "{0, 0}";
},
{
name = mark6;
position = "{0, 0}";
}
);
layerId = UUID0;
paths = (
{
closed = 1;
nodes = (
"44 61 LINE SMOOTH",
"44 -87 OFFCURVE",
"116 -204 OFFCURVE",
"272 -204 CURVE SMOOTH",
"403 -204 OFFCURVE",
"469 -114 OFFCURVE",
"469 -82 CURVE SMOOTH",
"469 -77 OFFCURVE",
"465 -72 OFFCURVE",
"458 -68 CURVE SMOOTH",
"424 -52 LINE SMOOTH",
"422 -51 OFFCURVE",
"419 -50 OFFCURVE",
"415 -50 CURVE SMOOTH",
"390 -50 OFFCURVE",
"382 -140 OFFCURVE",
"272 -140 CURVE SMOOTH",
"180 -140 OFFCURVE",
"130 -74 OFFCURVE",
"130 61 CURVE SMOOTH",
"130 256 LINE SMOOTH",
"130 391 OFFCURVE",
"180 458 OFFCURVE",
"272 458 CURVE SMOOTH",
"340 458 OFFCURVE",
"372 428 OFFCURVE",
"389 396 CURVE SMOOTH",
"395 384 OFFCURVE",
"402 378 OFFCURVE",
"409 378 CURVE SMOOTH",
"410 378 OFFCURVE",
"413 379 OFFCURVE",
"417 380 CURVE",
"449 397 LINE SMOOTH",
"456 401 OFFCURVE",
"459 406 OFFCURVE",
"459 412 CURVE SMOOTH",
"459 434 OFFCURVE",
"424 469 OFFCURVE",
"395 490 CURVE SMOOTH",
"366 511 OFFCURVE",
"325 521 OFFCURVE",
"272 521 CURVE SMOOTH",
"115 521 OFFCURVE",
"44 404 OFFCURVE",
"44 256 CURVE SMOOTH"
);
}
);
width = 501;
},
{
layerId = "7D4B8FA6-1CBF-4C70-BCBE-1433105F567F";
width = 600;
}
);
unicode = 0297;
},
